<svg width="654" height="662" viewBox="0 0 654 662" fill="none" xmlns="http://www.w3.org/2000/svg">
<g opacity="0.05">
<path fill-rule="evenodd" clip-rule="evenodd" d="M500.23 145.982C501.985 144.042 504.003 144.395 505.962 144.558C512.55 131.887 519.061 119.371 525.485 107.013C524.738 105.578 523.738 104.307 523.433 102.887C523.131 101.489 523.535 99.938 523.651 98.0526C509.642 87.3046 497.754 73.7353 484.355 61.6313C481.907 63.6646 479.295 63.3713 476.801 62.7593C468.973 78.0366 461.257 93.0926 453.509 108.21C456.058 110.43 456.547 113.195 455.539 116.294C457.162 117.573 458.633 118.866 460.233 119.971C466.67 124.417 473.071 128.918 479.629 133.178C486.334 137.534 493.206 141.633 500.23 145.982ZM474.897 61.6566C474.394 60.7113 473.919 59.9006 473.519 59.054C471.803 55.4326 473.853 51.5539 477.787 50.9353C482.947 50.1246 486.437 53.202 486.211 58.4366C486.173 59.3766 486.35 60.0646 487.085 60.6726C493.667 66.1113 499.282 72.55 505.418 78.4473C509.285 82.1633 513.355 85.6713 517.369 89.234C519.782 91.378 522.287 93.4206 524.702 95.5633C525.611 96.37 526.454 96.5633 527.691 96.2953C529.146 95.982 530.754 95.8753 532.202 96.1566C534.375 96.578 535.813 98.01 536.035 100.366C536.271 102.885 535.855 105.122 533.454 106.566C531.707 107.615 529.869 108.097 527.591 107.611C521.115 120.053 514.637 132.501 508.106 145.045C510.082 146.806 511.142 148.909 510.167 151.259C509.267 153.427 507.666 155.154 504.738 155.079C502.757 167.977 500.782 180.815 498.797 193.734C499.719 194.217 500.454 194.601 501.353 195.07C515.558 185.722 529.763 176.375 543.905 167.073C543.998 166.682 544.121 166.437 544.102 166.203C543.831 162.815 545.511 161.254 548.722 160.577C551.259 160.042 554.525 161.802 555.189 164.417C555.626 166.146 556.678 166.93 557.975 167.79C561.375 170.046 564.67 172.466 568.102 174.677C574.973 179.101 581.907 183.429 588.577 187.646C594.049 186.047 596.902 187.102 597.605 190.714C598.074 193.122 595.746 196.43 593.294 196.839C589.473 197.475 587.649 195.439 587.261 189.838C585.834 188.945 584.259 187.966 582.694 186.978C577.799 183.891 572.873 180.854 568.027 177.695C564.111 175.146 560.295 172.445 556.427 169.821C556.079 169.585 555.678 169.429 555.139 169.153C551.683 172.462 548.199 172.058 544.957 168.854C540.397 171.705 535.99 174.433 531.615 177.211C530.47 177.939 529.451 178.87 528.315 179.621C522.21 183.662 516.087 187.677 509.967 191.701C508.047 192.963 506.134 194.239 504.194 195.473C503.006 196.227 502.373 197.093 502.773 198.631C503.445 201.221 500.763 203.766 498.702 204.373C496.263 205.091 493.585 204.094 492.255 201.963C490.99 199.937 491.113 198.046 492.767 196.385C493.537 195.613 494.411 194.782 495.399 194.43C496.594 194.005 496.974 193.295 497.107 192.197C497.347 190.253 497.591 188.306 497.897 186.371C498.687 181.326 499.566 176.295 500.307 171.245C501.107 165.782 501.793 160.301 502.546 154.697C499.49 153.521 498.298 151.219 498.749 147.943C482.921 139.07 468.361 128.374 453.519 118.15C452.266 118.366 451.026 118.703 449.769 118.771C446.793 118.935 444.165 116.842 443.883 114.213C443.569 111.27 445.918 108.121 448.91 107.859C451.035 107.675 452.139 106.801 453.033 104.823C454.889 100.718 457.127 96.7859 459.203 92.7793C461.003 89.302 462.794 85.8206 464.591 82.3446C466.511 78.638 468.475 74.954 470.339 71.2206C471.901 68.098 473.347 64.9193 474.897 61.6566Z" fill="white"/>
<path fill-rule="evenodd" clip-rule="evenodd" d="M584.49 413.827C574.757 414.095 565.504 416.1 556.713 420.175C547.224 424.572 539.024 430.674 532.433 438.844C530.406 441.355 528.121 443.735 526.533 446.506C523.948 451.022 522.854 456.047 523.508 461.275C523.994 465.187 526.089 468.486 528.274 471.632C533.109 478.598 539.756 482.799 548.257 483.496C552.05 483.807 555.92 483.506 559.73 483.178C563.285 482.872 566.817 482.23 570.34 481.618C576.074 480.622 581.509 478.672 586.858 476.399C596.496 472.302 604.736 466.219 612.185 458.98C613.581 457.624 614.806 456.092 616.114 454.644C616.4 454.328 616.648 453.906 617.009 453.746C617.566 453.5 618.402 453.13 618.772 453.363C619.557 453.859 619.281 454.65 618.734 455.336C615.804 459.015 612.568 462.404 608.833 465.252C605.312 467.94 601.673 470.476 598.021 472.984C596.201 474.235 594.316 475.448 592.32 476.376C586.217 479.214 580.08 482.039 573.45 483.432C569.545 484.252 565.578 484.832 561.613 485.29C558.233 485.68 554.816 485.842 551.412 485.927C542.505 486.15 534.953 483.26 528.9 476.45C525.954 473.135 523.724 469.472 521.922 465.514C520.621 462.651 520.596 459.547 520.966 456.468C521.732 450.118 524.01 444.459 528.594 439.838C532.612 435.787 536.345 431.424 540.602 427.651C545.665 423.164 551.605 419.92 557.87 417.338C559.916 416.495 561.937 415.558 564.046 414.915C571.1 412.772 578.368 411.519 585.704 411.886C591.87 412.192 598.108 412.595 604.045 414.836C605.948 415.554 607.845 416.188 609.678 417.118C614.157 419.386 617.08 423.047 619.208 427.408C620.252 429.548 619.981 431.95 619.518 434.191C618.081 441.175 614.162 446.58 608.6 450.92C602.962 455.319 596.569 458.232 590.018 460.987C583.418 463.763 576.626 465.316 569.542 466.048C563.793 466.642 558.116 466.476 552.574 464.946C546.808 463.352 542.477 459.759 539.81 454.344C538.752 452.195 538.764 449.968 539.602 447.667C541.152 443.416 543.524 439.814 546.84 436.691C550.821 432.943 555.332 430.278 560.41 428.279C563.745 426.966 567.078 425.704 570.553 424.907C578.688 423.036 586.876 422.464 595.098 424.446C598.058 425.158 600.198 427.154 602.209 429.219C603.633 430.68 603.52 432.571 602.92 434.504C601.938 437.664 599.434 439.471 597.074 441.402C593.736 444.131 589.782 445.787 585.886 447.508C585.072 447.868 584.498 448.155 584.089 449.066C583.078 451.315 581.389 453.019 578.994 453.799C574.164 455.371 569.332 455.932 564.638 453.307C560.868 451.196 559.144 446.114 562.957 442.602C566.334 439.49 570.592 438.656 575.045 438.716C577.654 438.752 580.112 439.27 582.001 441.331C582.756 442.154 583.776 442.292 584.842 441.99C589.354 440.711 593.866 439.427 597.697 436.539C597.834 436.436 597.969 436.332 598.1 436.223C600.868 433.906 600.805 431.544 598.072 429.192C594.966 426.523 591.269 425.93 587.373 425.651C582.65 425.315 577.98 425.806 573.389 426.635C569.82 427.279 566.33 428.524 562.909 429.787C557.77 431.682 552.916 434.13 548.864 437.962C545.522 441.12 542.741 444.596 541.713 449.2C541.218 451.414 541.8 453.462 543.116 455.207C546.666 459.923 551.354 462.728 557.278 463.456C566.75 464.62 576.037 463.658 585.004 460.564C593.16 457.75 600.969 454.071 607.805 448.686C612.713 444.818 615.897 439.768 617.242 433.611C617.797 431.075 617.472 428.726 616.116 426.484C613.293 421.827 609.313 418.728 604.04 417.303C601.738 416.682 599.48 415.807 597.138 415.426C592.948 414.743 588.709 414.344 584.49 413.827Z" fill="white"/>
<path fill-rule="evenodd" clip-rule="evenodd" d="M313.036 651.834C313.921 651.979 314.711 652.007 315.422 652.257C316.017 652.466 316.394 652.345 316.869 652.01C321.038 649.066 325.312 646.259 329.369 643.166C331.219 641.756 333.178 640.555 335.091 639.264C336.371 638.401 337.694 637.605 338.968 636.736C339.249 636.544 339.484 636.199 339.605 635.873C339.916 635.029 340.151 634.156 340.474 633.106C337.298 629.216 333.687 625.425 331.578 620.858C330.364 620.7 329.354 620.746 328.494 620.41C327.639 620.076 326.933 619.358 326.069 618.744C320.4 620.661 314.615 622.617 308.877 624.557C308.669 625.283 308.596 626.098 308.212 626.722C307.829 627.342 307.135 627.769 306.52 628.333C308.367 636.172 309.777 644.212 313.036 651.834ZM374.823 625.827C373.288 627.782 368.032 636.135 366.981 638.935C367.729 639.469 368.2 640.185 368.366 641.157C368.691 643.071 367.661 644.488 365.722 644.644C363.378 644.832 362.295 644.125 361.278 641.859C361.126 641.522 360.711 641.197 360.348 641.078C358.931 640.615 357.487 640.224 356.048 639.829C352.797 638.938 349.542 638.059 346.276 637.172C346.246 637.184 346.182 637.187 346.158 637.219C344.559 639.434 342.928 639.237 341.027 638.059C340.281 637.597 339.79 637.673 339.084 638.145C337.001 639.54 334.849 640.833 332.724 642.165C332.357 642.395 331.97 642.598 331.621 642.851C328.728 644.945 325.845 647.053 322.953 649.148C321.471 650.222 319.973 651.274 318.489 652.346C318.066 652.652 317.667 652.992 317.29 653.289C317.859 655.535 317.461 656.934 316.087 657.723C314.692 658.525 312.587 658.088 311.322 656.736C310.459 655.812 310.563 654.43 311.62 652.612C310.901 650.441 310.087 648.317 309.499 646.133C308.27 641.568 307.159 636.971 306.003 632.387C305.802 631.591 305.554 630.802 305.441 629.994C305.275 628.817 304.865 628.052 303.581 627.624C302.044 627.112 301.593 625.548 302.245 624.051C303.021 622.27 304.54 621.51 306.201 622.156C306.861 622.413 307.449 622.855 308.323 623.357C314.06 621.436 319.997 619.45 325.878 617.481C326.957 614.86 328.923 613.681 330.864 614.43C332.845 615.195 333.561 617.408 332.571 619.831C334.474 623.155 336.549 626.398 339.159 629.276C339.936 630.132 340.669 631.03 341.391 631.934C341.843 632.498 342.306 632.804 343.108 632.709C344.451 632.551 345.329 633.462 345.822 634.509C346.273 635.468 346.91 635.865 347.851 636.111C351.398 637.038 354.936 638.002 358.47 638.975C359.305 639.205 360.12 639.509 360.934 639.808C361.489 640.012 361.947 640.024 362.325 639.47C362.87 638.67 363.704 638.432 364.609 638.498C365.436 638.559 365.929 638.304 366.298 637.503C368.337 633.058 371.248 629.13 373.809 624.924C373.196 623.618 372.865 622.219 373.968 620.957C374.815 619.987 375.959 619.453 377.222 619.971C378.894 620.658 380.073 621.807 379.808 623.701C383.499 625.961 387.077 628.152 390.654 630.341C390.942 630.518 391.262 630.656 391.518 630.87C392.516 631.703 393.451 632.238 394.898 631.652C396.105 631.162 397.852 632.351 398.454 633.561C399.274 635.207 397.709 637.322 396.099 637.386C394.562 637.446 392.893 636.659 392.627 634.269C392.544 633.527 392.264 633.105 391.763 632.743C391.06 632.235 390.316 631.78 389.576 631.326C386.782 629.609 383.986 627.897 381.182 626.198C380.688 625.898 380.163 625.64 379.629 625.424C379.386 625.325 379.062 625.301 378.813 625.374C378.174 625.561 377.57 625.94 376.925 626.019C376.274 626.099 375.59 625.909 374.823 625.827Z" fill="white"/>
<path fill-rule="evenodd" clip-rule="evenodd" d="M182.227 475.591C180.727 475.081 179.441 474.993 178.681 474.314C176.87 472.703 174.973 473.125 172.978 473.518C171.393 473.829 169.782 474.015 168.206 474.366C161.985 475.753 155.769 477.17 149.558 478.603C147.681 479.037 145.825 479.561 143.923 480.053C143.866 481.138 143.821 481.961 143.769 482.917C149.519 486.201 155.102 489.641 160.911 492.642C169.227 496.938 177.642 501.05 185.589 506.015C186.719 506.722 187.401 506.63 188.03 505.549C185.283 495.675 183.194 485.717 182.227 475.591ZM100.102 544.963C108.113 538.215 117.323 533.219 125.173 526.506C123.217 521.127 124.702 518.274 130.025 516.826C131.639 507.11 133.938 497.506 134.81 487.666C134.893 486.747 134.793 486.154 133.99 485.49C132.034 483.865 131.725 480.083 133.162 477.727C134.302 475.855 136.935 475.173 139.55 476.067C139.631 476.095 139.725 476.107 139.789 476.157C142.391 478.23 145.149 477.349 147.955 476.687C155.246 474.971 162.554 473.323 169.866 471.693C171.853 471.25 173.875 470.966 175.983 470.593C176.758 467.649 177.462 464.61 181.413 464.618C183.834 464.622 186.751 466.305 187.506 468.145C188.346 470.187 187.409 472.539 184.681 475.121C184.886 477.425 184.887 479.831 185.349 482.147C186.71 488.986 188.262 495.786 189.722 502.606C190.094 504.35 190.659 505.625 192.795 506.027C195.211 506.482 196.091 508.023 195.931 510.255C195.725 513.115 194.397 514.969 192.159 515.382C189.579 515.859 187.394 515.003 185.802 512.987C185.287 512.335 185.105 511.247 185.142 510.374C185.191 509.142 184.637 508.542 183.691 507.946C175.954 503.082 167.714 499.173 159.587 495.042C155.798 493.117 152.218 490.779 148.553 488.613C146.505 487.401 144.475 486.157 142.694 485.082C140.778 485.771 139.113 486.367 137.459 486.961C135.743 496.99 134.011 507.119 132.277 517.255C132.909 517.679 133.41 517.99 133.882 518.338C135.837 519.771 136.599 522.037 135.962 524.47C135.479 526.311 133.642 527.786 131.423 528.034C130.665 528.119 129.838 528.23 129.134 528.022C127.519 527.547 126.446 528.282 125.246 529.197C122.473 531.314 119.589 533.287 116.751 535.322C112.047 538.691 107.326 542.039 102.665 545.469C102.143 545.853 101.779 546.678 101.669 547.351C101.415 548.906 101.363 550.494 101.197 552.462C110.051 558.831 117.843 567.058 126.066 574.685C131.194 573.33 133.238 573.702 134.674 576.194C135.745 578.051 135.363 581.041 133.857 582.618C132.433 584.106 128.583 584.627 126.657 583.593C123.765 582.038 123.347 580.811 124.382 576.577C123.561 575.869 122.623 575.139 121.779 574.315C120.078 572.654 118.454 570.913 116.751 569.255C114.738 567.298 112.738 565.318 110.618 563.483C107.334 560.646 103.949 557.929 100.615 555.15C99.4542 554.181 98.2248 553.614 96.6368 553.907C95.9102 554.043 95.0955 553.897 94.3568 553.73C91.5115 553.085 90.1568 551.117 90.5502 548.306C90.8728 545.991 93.4675 543.929 95.9208 544.169C97.2635 544.298 98.5875 544.667 100.102 544.963Z" fill="white"/>
<path fill-rule="evenodd" clip-rule="evenodd" d="M111.639 103.303C111.369 103.155 111.221 102.999 111.082 103.01C104.103 103.486 96.2632 109.539 98.6606 118.42C99.7792 122.576 102.046 126.066 105.741 128.695C114.675 135.052 124.558 137.096 135.299 136.035C140.587 135.512 145.766 134.612 150.675 132.503C151.501 132.148 152.249 132.143 152.563 133.076C152.879 134.002 152.23 134.427 151.434 134.748C146.902 136.584 142.197 137.646 137.345 138.239C131.546 138.947 125.791 138.995 120.058 137.786C112.899 136.276 106.393 133.28 101.213 128.12C96.7792 123.71 94.5632 118.244 96.1966 111.812C97.2006 107.85 99.6112 104.732 102.806 102.374C106.618 99.559 110.874 97.623 115.775 97.5416C116.429 97.531 117.145 97.3483 117.721 97.0363C122.809 94.2776 128.347 92.8563 133.981 92.015C138.17 91.3883 142.465 91.4883 146.639 92.6896C148.667 93.2736 149.361 92.8496 150.07 90.8483C151.289 87.407 149.549 82.1696 146.431 80.2083C139.849 76.0643 132.827 74.8963 125.142 76.5376C116.554 78.3723 109.723 83.0803 103.326 88.711C99.2526 92.295 95.8299 96.4523 93.2646 101.19C89.2752 108.552 88.0552 116.415 91.2299 124.338C93.1126 129.03 96.2646 133.036 100.931 135.515C102.735 136.472 104.549 137.411 106.346 138.379C106.922 138.688 107.462 139.062 108.101 139.458C107.377 140.734 106.481 141.127 105.273 140.636C99.7352 138.383 94.8366 135.347 91.4392 130.19C85.6312 121.382 85.7486 112.202 89.6992 102.884C92.8952 95.347 98.2486 89.463 104.623 84.375C108.653 81.159 112.826 78.147 117.629 76.415C124.037 74.1056 130.681 72.1683 137.602 73.915C142.405 75.127 146.939 77.0643 150.727 80.443C154.478 83.7883 155.843 87.991 155.282 92.8643C155.161 93.9243 154.563 94.9296 154.239 95.8136C155.399 97.3976 156.585 98.9216 157.67 100.515C161.019 105.436 158.265 111.826 154.098 114.3C148.727 117.49 142.986 119.796 136.683 120.43C136.181 120.479 135.683 120.574 134.722 120.715C135.317 121.403 135.618 122.038 136.11 122.272C138.022 123.18 139.929 124.348 141.962 124.71C146.342 125.487 150.821 125.53 155.154 124.332C157.263 123.75 159.309 122.795 161.241 121.748C164.967 119.736 168.897 118.084 171.999 114.99C175.47 111.528 177.622 107.684 177.683 102.622C177.743 97.6763 177.057 92.9536 174.981 88.4643C173.165 84.5363 170.761 81.0483 166.982 78.7536C164.366 77.1656 161.683 75.6883 158.99 74.2363C155.694 72.4576 152.086 71.8496 148.399 71.735C145.847 71.6563 143.287 71.7656 140.731 71.7936C140.391 71.7976 140.014 71.9203 139.722 71.807C139.377 71.6736 138.915 71.3816 138.861 71.0896C138.806 70.8096 139.145 70.2336 139.419 70.151C140.634 69.7843 141.877 69.3896 143.131 69.2936C151.314 68.6683 158.809 70.8163 165.765 75.0563C175.525 81.0043 179.963 89.8483 179.923 101.108C179.918 102.98 179.897 104.882 179.581 106.716C178.905 110.638 176.626 113.698 173.939 116.512C170.738 119.867 166.535 121.628 162.525 123.627C158.43 125.668 154.179 127.375 149.542 127.959C142.233 128.879 135.346 127.882 129.509 123.186C127.282 121.396 125.071 120.472 122.317 119.975C117.97 119.191 114.475 116.75 112.15 112.914C110.701 110.52 110.891 107.846 111.27 105.198C111.363 104.546 111.519 103.903 111.639 103.303Z" fill="white"/>
<path fill-rule="evenodd" clip-rule="evenodd" d="M81.673 127.705C80.165 126.921 79.7636 125.821 79.3396 124.705C76.6916 117.703 76.465 110.569 78.2556 103.359C79.4956 98.372 81.4676 93.6453 83.973 89.1707C86.8663 84.004 91.113 80.0627 96.0343 76.888C100.701 73.8773 105.73 71.5467 111.105 70.0933C112.556 69.7013 114.138 69.7467 115.66 69.7293C116.017 69.7267 116.378 70.2893 116.738 70.592C116.386 71.0013 116.102 71.6533 115.673 71.7707C114.701 72.036 113.625 71.9053 112.652 72.164C104.348 74.3707 97.0196 78.336 90.813 84.336C85.905 89.0827 83.7663 95.2933 81.5823 101.487C79.5756 107.171 79.257 112.987 80.385 118.881C80.6396 120.209 81.1076 121.503 81.553 122.787C82.0903 124.337 82.4103 125.865 81.673 127.705Z" fill="white"/>
<path fill-rule="evenodd" clip-rule="evenodd" d="M190.114 101.707C189.744 111.771 185.334 119.617 177.086 125.346C176.54 125.726 175.913 126.099 175.277 126.207C174.818 126.283 174.284 125.911 173.782 125.739C173.993 125.257 174.069 124.541 174.436 124.323C177.822 122.334 180.436 119.53 182.609 116.358C187.186 109.679 188.597 102.437 186.361 94.5018C184.92 89.3952 182.394 84.9552 179.069 80.8992C178.586 80.3125 178.001 79.6992 177.832 79.0085C177.71 78.5112 178.072 77.7218 178.477 77.3458C178.684 77.1538 179.569 77.4632 179.968 77.7765C180.41 78.1258 180.629 78.7525 180.982 79.2298C182.252 80.9392 183.558 82.6218 184.808 84.3458C185.405 85.1712 186.05 86.0072 186.422 86.9378C188.326 91.6805 190.218 96.4378 190.114 101.707Z" fill="white"/>
<path fill-rule="evenodd" clip-rule="evenodd" d="M131.824 147.549C129.73 147.417 126.417 147.21 123.105 147.002C122.85 146.986 122.51 147.073 122.354 146.941C121.878 146.534 121.47 146.045 121.037 145.588C121.526 145.214 121.985 144.582 122.512 144.521C123.509 144.405 124.548 144.581 125.564 144.692C135.076 145.724 144.43 144.692 153.654 142.382C156.98 141.549 160.072 140.089 162.63 137.7C162.816 137.526 163.029 137.381 163.228 137.221C163.81 136.757 164.425 136.485 165.018 137.161C165.662 137.893 165.425 138.489 164.738 139.113C161.906 141.686 158.629 143.47 154.977 144.493C147.813 146.5 140.501 147.528 131.824 147.549Z" fill="white"/>
<path fill-rule="evenodd" clip-rule="evenodd" d="M141.231 61.6709C150.415 61.8376 157.071 63.0376 163.383 65.7989C165.394 66.6789 167.33 67.7323 169.315 68.6736C170.069 69.0309 170.845 69.4616 170.277 70.3576C169.725 71.2323 168.941 70.5963 168.241 70.3069C164.787 68.8856 161.394 67.2709 157.85 66.1256C147.811 62.8816 137.75 63.2176 127.749 66.4509C127.263 66.6083 126.742 66.6816 126.287 66.8989C125.491 67.2789 124.798 67.0363 124.687 66.2923C124.614 65.8043 125.07 64.9696 125.525 64.7243C126.405 64.2496 127.433 63.9736 128.433 63.8003C133.45 62.9323 138.481 62.1243 141.231 61.6709Z" fill="white"/>
<path fill-rule="evenodd" clip-rule="evenodd" d="M401.609 433.224C401.509 433.089 401.408 432.957 401.305 432.824C400.616 433.132 399.91 433.408 399.238 433.752C392.717 437.081 386.157 440.336 379.696 443.78C371.578 448.107 363.612 452.724 355.45 456.967C348.697 460.477 342.496 464.836 336.217 469.053C329.932 473.276 323.944 477.948 318.388 483.131C313.942 487.276 311.301 492.443 310.086 498.332C309.386 501.724 310.8 504.26 313.698 506.104C317.457 508.495 321.532 508.743 325.738 508.011C329.881 507.289 333.46 505.323 336.482 502.451C339.813 499.284 343.006 495.975 346.269 492.737C349.528 489.503 352.805 486.287 356.066 483.052C359.025 480.117 362.032 477.227 364.901 474.205C367.712 471.247 370.34 468.115 373.113 465.12C375.712 462.312 378.496 459.675 381.016 456.803C386.958 450.021 392.782 443.139 398.673 436.313C399.602 435.24 400.629 434.251 401.609 433.224ZM315.886 509.427C313.35 508.473 311.092 507.288 309.524 504.94C307.264 501.559 307.724 498.009 309.069 494.653C310.358 491.445 312.277 488.487 313.976 485.451C314.386 484.72 314.938 484.016 315.574 483.476C320.436 479.355 324.892 474.765 330.308 471.284C335.462 467.972 340.397 464.319 345.478 460.892C347.452 459.563 349.549 458.415 351.613 457.227C356.116 454.633 360.58 451.967 365.157 449.513C374.09 444.725 383.076 440.031 392.072 435.363C396.381 433.128 400.765 431.035 405.116 428.877C405.269 428.803 405.43 428.656 405.574 428.671C406.122 428.727 406.664 428.835 407.206 428.924C407.08 429.443 407.116 430.112 406.798 430.459C405.073 432.335 403.176 434.057 401.49 435.968C395.809 442.411 390.198 448.917 384.545 455.385C382.81 457.369 381.048 459.328 379.258 461.264C374.6 466.304 369.973 471.372 365.232 476.329C362.474 479.213 359.514 481.904 356.652 484.687C354.277 486.997 351.862 489.271 349.55 491.643C346.756 494.507 344.186 497.601 341.269 500.331C338.485 502.937 335.606 505.573 332.368 507.533C327.277 510.615 321.621 510.963 315.886 509.427Z" fill="white"/>
<path fill-rule="evenodd" clip-rule="evenodd" d="M337.837 479.784C342.668 481.352 344.03 484.313 342.293 488.287C340.553 492.263 337.729 495.44 334.408 498.168C332.832 499.461 331.204 500.743 329.434 501.735C326.085 503.612 322.632 504.423 319.126 501.907C316.984 500.368 316.121 498.289 316.238 495.756C316.418 491.891 318.342 488.815 320.918 486.131C324 482.919 327.804 480.896 332.124 479.859C334.314 479.332 336.505 479.404 337.837 479.784Z" fill="white"/>
<path fill-rule="evenodd" clip-rule="evenodd" d="M135.922 357.852C135.808 357.841 135.694 357.833 135.579 357.824C135.579 356.292 135.802 354.721 135.539 353.234C134.72 348.609 133.21 344.173 131.062 339.998C130.218 338.357 129.183 336.672 127.83 335.46C123.543 331.625 118.263 330.409 112.659 330.504C109.948 330.549 107.224 330.748 104.54 331.12C101.942 331.482 99.2405 331.798 96.8418 332.77C92.0578 334.712 88.8445 338.469 86.7698 343.134C84.3138 348.656 84.0325 353.985 87.6311 359.361C90.3431 363.413 91.5405 368.037 90.1125 373.002C89.3591 375.62 88.5965 378.24 88.0045 380.896C87.6765 382.366 87.2618 384.029 87.6311 385.404C88.7671 389.616 91.1791 393.005 95.4991 394.465C97.9791 395.302 100.568 395.982 103.16 396.285C106.595 396.686 110.006 396.924 113.483 395.673C118.939 393.713 123.959 391.194 128.074 387.052C129.823 385.292 131.254 383.39 132.152 380.972C133.506 377.321 133.939 373.526 134.504 369.75C135.096 365.801 135.459 361.818 135.922 357.852ZM137.524 357.204C137.259 360.062 137.118 362.018 136.887 363.961C136.532 366.921 136.068 369.868 135.734 372.83C135.331 376.409 134.578 379.942 133.036 383.157C131.998 385.325 130.374 387.318 128.66 389.04C124.439 393.278 119.292 395.98 113.576 397.8C109.839 398.99 106.158 398.596 102.442 398.284C99.1231 398.008 95.8871 397.338 92.9178 395.649C87.1098 392.337 84.4591 385.985 86.2964 379.592C86.9311 377.382 87.5138 375.158 88.1471 372.949C89.3751 368.656 88.4978 364.702 86.2885 360.936C85.5138 359.614 84.7858 358.264 84.1111 356.89C82.1978 352.997 82.9258 349.045 84.0405 345.152C85.5805 339.778 88.9471 335.646 93.3991 332.426C96.3071 330.324 99.8258 329.8 103.294 329.368C106.335 328.99 109.398 328.518 112.447 328.545C118.054 328.594 123.546 329.524 128.003 333.276C129.72 334.722 131.258 336.584 132.327 338.554C133.776 341.226 134.998 344.105 135.762 347.041C136.696 350.629 137.056 354.368 137.524 357.204Z" fill="white"/>
<path fill-rule="evenodd" clip-rule="evenodd" d="M101.372 353.628C103.707 353.445 105.317 353.122 106.691 351.933C109.6 349.412 109.288 345.07 106.493 342.502C103.66 339.898 99.3667 340.016 97.0214 342.925C96.2881 343.836 95.7014 344.904 95.2227 345.976C93.9667 348.781 94.9747 351.458 97.8041 352.644C99.1081 353.192 100.551 353.409 101.372 353.628ZM101.872 355.88C100.335 355.453 98.7281 355.188 97.2707 354.57C93.1787 352.837 91.8774 349.377 93.4934 345.19C94.4214 342.786 95.8761 340.961 98.1934 339.724C101.497 337.964 105.197 338.606 107.853 341.068C110.184 343.226 111.315 347.289 110.256 349.942C108.804 353.576 105.877 355.566 101.872 355.88Z" fill="white"/>
<path fill-rule="evenodd" clip-rule="evenodd" d="M120.66 351.479C117.174 351.669 114.021 355.334 114.33 359.03C114.473 360.742 115.198 362.006 116.762 362.933C120.066 364.894 122.897 364.537 126.073 362.401C129.754 359.929 129.474 355.521 125.586 353.297C124.088 352.441 122.309 352.07 120.66 351.479ZM119.648 349.815C125.984 350.243 128.581 352.378 130.14 356.523C130.846 358.401 130.514 360.086 129.422 361.589C125.969 366.349 120.069 367.461 115.445 364.515C114.052 363.627 113.113 362.506 112.794 360.949C111.926 356.729 113.282 353.403 116.704 350.906C117.673 350.198 119.036 350.029 119.648 349.815Z" fill="white"/>
<path fill-rule="evenodd" clip-rule="evenodd" d="M102.027 387.878C103.094 387.638 104.194 387.498 105.22 387.14C107.024 386.514 108.596 384.018 108.355 382.367C107.9 379.239 104.395 376.443 101.48 376.88C97.9016 377.418 95.3576 380.678 95.9296 384.14C96.0402 384.815 96.4962 385.603 97.0389 386.006C98.4829 387.078 100.127 387.771 102.027 387.878ZM101.912 374.886C105.416 374.842 108.716 377.439 109.891 380.859C110.784 383.456 109.863 386.414 107.211 388.219C105.886 389.123 104.087 389.482 102.448 389.724C101.327 389.892 100.024 389.651 98.9562 389.215C96.8856 388.367 94.3656 387.787 94.1309 384.916C93.8736 381.764 94.1856 378.771 97.2162 376.811C98.8016 375.787 100.331 374.68 101.912 374.886Z" fill="white"/>
<path fill-rule="evenodd" clip-rule="evenodd" d="M119.421 379.254C120.329 379.13 120.761 379.115 121.168 379.007C122.511 378.65 123.384 377.429 123.387 375.951C123.389 374.659 122.853 374.009 121.116 373.751C120.16 373.61 119.141 373.933 118.149 373.961C117.105 373.993 116.157 374.29 116.155 375.427C116.152 376.269 116.42 377.337 116.977 377.898C117.693 378.619 118.817 378.941 119.421 379.254ZM119.915 381.197C116.312 381.235 113.716 378.498 114.265 375.237C114.559 373.495 115.501 372.345 117.189 371.702C119.705 370.743 121.907 371.559 123.899 372.93C125.415 373.971 125.756 376.039 125.067 377.779C124.179 380.018 122.444 381.17 119.915 381.197Z" fill="white"/>
<path fill-rule="evenodd" clip-rule="evenodd" d="M100.791 362.173C100.571 362.229 99.9764 362.312 99.4364 362.529C98.0404 363.091 97.2004 364.213 97.2458 365.36C97.3071 366.92 98.5511 367.185 99.6831 367.535C100.163 367.683 100.678 367.776 101.178 367.784C103.246 367.817 105.015 366.408 104.964 364.811C104.919 363.356 103.166 362.139 100.791 362.173ZM101.068 370.208C99.4684 369.516 97.8364 369.013 96.4324 368.144C95.0391 367.277 94.8244 364.865 95.7178 363.268C97.6311 359.852 103.238 359.251 105.863 362.18C107.483 363.987 107.224 367.175 105.178 368.477C103.998 369.227 102.571 369.591 101.068 370.208Z" fill="white"/>
<path fill-rule="evenodd" clip-rule="evenodd" d="M117.812 338.849C116.968 339.464 115.884 339.902 115.387 340.706C114.776 341.69 115.201 342.849 116.113 343.662C117.149 344.586 120.088 344.568 121.123 343.664C122.325 342.612 122.377 341.174 121.047 340.234C120.192 339.633 119.092 339.38 117.812 338.849ZM118.237 346.298C116.837 346.164 114.989 346.005 113.955 343.997C113.041 342.222 113.033 340.352 114.207 338.982C115.504 337.469 116.984 336.442 119.117 337.409C119.651 337.65 120.285 337.656 120.84 337.865C122.887 338.629 124.165 340.696 123.856 342.669C123.575 344.477 121.771 346.076 119.745 346.293C119.409 346.329 119.065 346.298 118.237 346.298Z" fill="white"/>
<path fill-rule="evenodd" clip-rule="evenodd" d="M115.834 387.143C114.911 387.05 113.857 386.727 113.678 388.154C113.549 389.185 114.659 390.143 115.891 390.117C116.907 390.097 117.858 389.299 117.785 388.419C117.686 387.225 116.982 386.802 115.834 387.143ZM115.485 385.135C118.054 385.153 119.651 386.469 119.689 388.599C119.718 390.349 117.906 391.941 115.875 391.946C113.583 391.951 111.845 390.453 111.923 388.537C112.017 386.297 113.25 385.119 115.485 385.135Z" fill="white"/>
<path fill-rule="evenodd" clip-rule="evenodd" d="M296.412 105.613C296.782 108.424 296.741 111.246 297.57 113.781C299.686 120.252 303.541 125.244 310.096 128.096C319.561 132.216 329.145 132.705 338.742 129.322C348.785 125.781 353.133 117.606 354.461 107.638C355.236 101.834 353.625 96.2956 351.12 91.0876C349.441 87.5969 347.112 84.4702 343.724 82.4742C339.481 79.9729 334.726 78.9742 329.858 78.4462C325.838 78.0089 321.886 78.6609 317.921 79.0382C313.556 79.4529 309.642 81.2036 306.4 84.0316C299.884 89.7169 297.217 97.2649 296.412 105.613ZM325.189 134.025C317.921 133.524 311.162 131.661 305.109 127.726C299.7 124.21 296.681 119.038 295.504 112.694C294.817 108.977 294.328 105.285 295.118 101.548C295.452 99.9742 295.826 98.3796 296.445 96.9062C297.954 93.3142 298.986 89.4596 301.653 86.4529C306.384 81.1156 311.648 76.6849 319.273 76.4116C323.098 76.2756 326.921 76.0036 330.745 76.0022C336.009 75.9996 340.689 77.6849 344.988 80.8422C351.136 85.3596 354.162 91.5702 355.664 98.7809C356.93 104.86 356.565 110.841 354.078 116.513C350.298 125.133 344.112 131.036 334.49 132.641C331.398 133.156 328.29 133.566 325.189 134.025Z" fill="white"/>
<path fill-rule="evenodd" clip-rule="evenodd" d="M64.3613 218.092C63.4827 215.397 63.0069 212.614 61.7278 210.274C58.4636 204.3 53.7607 200.097 46.7948 198.493C36.7355 196.174 27.2237 197.446 18.4073 202.528C9.18208 207.847 6.40314 216.679 6.92133 226.722C7.22165 232.57 9.8185 237.72 13.2344 242.382C15.5234 245.506 18.3855 248.154 22.0815 249.497C26.7102 251.179 31.5673 251.291 36.4497 250.92C40.4819 250.614 44.2479 249.25 48.0773 248.154C52.293 246.947 55.82 244.51 58.4905 241.137C63.8563 234.355 65.097 226.447 64.3613 218.092ZM30.8714 195.425C38.1085 194.588 45.0938 195.183 51.7649 197.943C57.7262 200.41 61.6402 204.943 63.9584 210.964C65.3136 214.493 66.4702 218.033 66.3766 221.852C66.3368 223.46 66.2602 225.096 65.9216 226.658C65.0949 230.465 64.7856 234.444 62.714 237.888C59.0398 244 54.6753 249.319 47.2287 250.983C43.4928 251.817 39.7844 252.784 36.0252 253.485C30.8505 254.45 25.9412 253.65 21.1374 251.332C14.2667 248.016 10.1548 242.464 7.35952 235.65C5.00207 229.905 4.26687 223.958 5.6738 217.927C7.81285 208.761 12.8151 201.826 21.9803 198.487C24.926 197.416 27.9064 196.443 30.8714 195.425Z" fill="white"/>
<path fill-rule="evenodd" clip-rule="evenodd" d="M328.052 97.906C332.259 97.5594 334.409 95.4767 335.053 91.7554C335.473 89.3327 334.092 87.1434 331.796 86.3207C328.196 85.0327 324.469 86.0247 322.135 89.01C321.647 89.6327 321.288 90.51 321.236 91.294C320.98 95.0967 323.903 97.878 328.052 97.906ZM328.02 99.9287C322.924 99.858 319.887 97.1554 319.364 92.1527C319.236 90.9114 319.691 89.4154 320.353 88.3234C322.561 84.678 328.98 82.7607 332.801 84.602C335.515 85.91 337.541 88.7274 336.88 92.2967C336.012 96.9834 332.436 99.6807 328.02 99.9287Z" fill="white"/>
<path fill-rule="evenodd" clip-rule="evenodd" d="M34.6654 231.458C30.5932 232.569 28.8598 235.01 28.9076 238.786C28.9379 241.244 30.6965 243.144 33.1043 243.533C36.8792 244.14 40.3614 242.483 42.1105 239.121C42.4763 238.42 42.6684 237.492 42.5761 236.711C42.132 232.926 38.7498 230.726 34.6654 231.458ZM34.3268 229.464C39.3497 228.601 42.8302 230.702 44.2594 235.525C44.6123 236.722 44.4391 238.276 43.9874 239.47C42.4836 243.458 36.5241 246.518 32.4304 245.406C29.5235 244.617 27.0156 242.218 27.0127 238.588C27.0086 233.822 30.0307 230.515 34.3268 229.464Z" fill="white"/>
<path fill-rule="evenodd" clip-rule="evenodd" d="M341.715 106.719C341.942 105.511 341.339 104.647 340.247 103.876C337.326 101.812 333.27 102.732 331.587 105.931C330.687 107.643 330.863 108.862 332.515 109.858C333.644 110.539 334.983 111.096 336.28 111.239C339.291 111.574 341.623 109.566 341.715 106.719ZM343.426 106.708C343.363 112.047 339.704 113.034 335.99 113.147C335.163 113.171 334.312 112.903 333.495 112.684C329.763 111.684 328.327 108.359 330.127 104.938C332.159 101.067 337.406 99.7603 341.068 102.158C342.784 103.28 343.788 104.684 343.426 106.708Z" fill="white"/>
<path fill-rule="evenodd" clip-rule="evenodd" d="M19.6207 225.294C19.6189 226.523 20.3695 227.262 21.584 227.82C24.8337 229.314 28.6529 227.668 29.7219 224.215C30.2935 222.368 29.8975 221.202 28.0912 220.525C26.8562 220.062 25.4382 219.759 24.1367 219.856C21.1156 220.077 19.1903 222.478 19.6207 225.294ZM17.9409 225.617C17.0257 220.357 20.4421 218.718 24.0733 217.927C24.8816 217.752 25.767 217.86 26.6105 217.925C30.4625 218.225 32.4827 221.232 31.339 224.925C30.0495 229.102 25.1305 231.346 21.091 229.66C19.1986 228.87 17.9546 227.673 17.9409 225.617Z" fill="white"/>
<path fill-rule="evenodd" clip-rule="evenodd" d="M343.928 97.9044C345.764 97.8951 347.208 96.9844 347.568 95.9338C347.962 94.7911 347.308 93.9191 346.582 93.2351C345.204 91.9364 342.66 91.9871 341.151 93.2058C339.706 94.3738 339.671 95.6844 341.234 96.7124C342.196 97.3458 343.367 97.6644 343.928 97.9044ZM343.827 90.6391C345.682 90.7204 347.371 91.0044 348.466 92.5351C349.515 94.0018 349.907 95.5924 348.931 97.3004C347.778 99.3204 345.844 100.116 343.764 99.8538C342.251 99.6631 340.644 98.8911 339.435 97.9298C337.416 96.3258 337.646 93.6138 339.678 91.9951C340.915 91.0071 342.332 90.4991 343.827 90.6391Z" fill="white"/>
<path fill-rule="evenodd" clip-rule="evenodd" d="M19.0572 234.364C17.2539 234.709 16.0009 235.869 15.8392 236.968C15.6616 238.163 16.4634 238.901 17.303 239.44C18.8947 240.465 21.3865 239.95 22.6473 238.475C23.8546 237.063 23.6489 235.768 21.9245 235.043C20.8622 234.597 19.653 234.497 19.0572 234.364ZM20.4861 241.488C18.6479 241.748 16.9351 241.778 15.5789 240.473C14.2789 239.223 13.6025 237.731 14.2495 235.873C15.0138 233.676 16.7688 232.54 18.8618 232.418C20.3845 232.328 22.1052 232.793 23.4701 233.517C25.7481 234.725 26.0189 237.433 24.3173 239.396C23.2816 240.594 21.9812 241.353 20.4861 241.488Z" fill="white"/>
<path fill-rule="evenodd" clip-rule="evenodd" d="M481.542 360.603C483.61 360.415 485.977 360.527 488.157 359.936C492.808 358.675 496.99 356.372 500.464 352.971C501.542 351.914 502.566 350.706 503.274 349.386C505.553 345.132 506.55 340.636 505.258 335.831C504.86 334.351 504.553 332.847 504.125 331.375C503.436 329.011 503.58 326.656 504.094 324.299C504.386 322.971 504.758 321.66 505.064 320.335C506.029 316.128 505.848 312.23 503.204 308.444C501.013 305.308 498.326 303.352 494.681 302.495C491.198 301.678 487.717 301.06 484.124 300.807C480.064 300.519 476.172 300.73 472.33 302.096C467.564 303.792 463.448 306.443 460.424 310.514C457.821 314.016 456.857 317.99 457.965 322.334C458.632 324.947 459.993 327.159 461.66 329.252C465.901 334.58 467.841 340.478 466.304 347.37C465.897 349.198 466.006 351.334 466.53 353.139C467.79 357.478 471.334 359.348 475.456 360.156C477.36 360.531 479.352 360.459 481.542 360.603ZM480.633 362.867C477.798 362.352 474.904 362.05 472.148 361.266C469.193 360.424 466.854 358.47 465.384 355.74C464.233 353.604 464.098 351.187 464.157 348.792C464.173 348.198 464.258 347.595 464.404 347.02C465.972 340.87 463.973 335.672 460.29 330.826C458.181 328.052 456.109 325.222 455.712 321.546C455.293 317.674 456.061 314.096 458.116 310.819C462.985 303.046 470.454 299.879 479.185 298.506C484.4 297.686 489.105 299.344 493.996 300.263C494.99 300.45 495.938 300.887 496.925 301.135C502.264 302.472 504.662 306.74 506.654 311.211C507.972 314.168 507.438 317.408 506.925 320.524C506.706 321.862 506.244 323.162 505.894 324.478C505.288 326.748 505.286 329.02 505.854 331.3C506.266 332.954 506.601 334.626 507.037 336.271C508.29 341.006 506.92 345.358 505.162 349.664C503.449 353.862 499.892 356.271 496.308 358.566C491.573 361.595 486.289 362.742 480.633 362.867Z" fill="white"/>
<path fill-rule="evenodd" clip-rule="evenodd" d="M473.35 325.182C474.432 324.997 475.525 324.865 476.593 324.618C479.074 324.044 480.552 322.453 481.048 319.972C481.769 316.354 479.754 312.454 476.46 311.613C472.082 310.493 468.642 311.54 466.705 315.373C465.676 317.409 465.058 319.756 466.722 321.868C468.384 323.974 470.536 325.213 473.35 325.182ZM483.036 318.897C482.908 323.17 480.14 326.122 475.918 326.81C471.645 327.508 467.944 326.729 465.269 323.116C464.602 322.217 464.113 320.992 464.041 319.885C463.55 312.341 470.162 307.592 477.045 309.769C481.045 311.034 483.105 314.67 483.036 318.897Z" fill="white"/>
<path fill-rule="evenodd" clip-rule="evenodd" d="M497.434 345.25C497.466 341.335 492.886 338.433 489.129 340.023C487.357 340.774 485.974 342.034 484.974 343.674C484.124 345.074 484.266 346.826 485.257 347.945C487.141 350.07 490.83 351.073 493.437 350.055C495.152 349.385 497.8 347.182 497.434 345.25ZM490.84 352.431C488.057 352.253 485.629 351.13 483.66 349.125C482.433 347.875 482.264 346.237 482.698 344.591C483.692 340.838 488.09 336.561 493.808 338.013C496.988 338.819 499.801 343.047 499.318 346.253C498.954 348.671 495.728 351.695 492.928 352.206C492.262 352.329 491.578 352.354 490.84 352.431Z" fill="white"/>
<path fill-rule="evenodd" clip-rule="evenodd" d="M494.315 309.562C493.619 309.497 493.366 309.457 493.114 309.451C490.976 309.413 489.49 310.715 488.923 313.115C488.427 315.21 489.019 316.347 491.048 317.427C492.738 318.327 494.514 318.281 496.251 317.845C498.282 317.335 499.504 314.833 498.907 312.826C498.155 310.301 496.363 309.383 494.315 309.562ZM493.932 320.117C493.491 320.081 492.978 320.07 492.472 319.998C489.647 319.594 487.556 317.878 487.087 315.605C486.504 312.765 487.934 309.502 490.359 308.133C493.796 306.193 499.147 308.065 500.462 311.669C501.91 315.631 499.707 319.367 495.532 320.007C495.03 320.086 494.511 320.079 493.932 320.117Z" fill="white"/>
<path fill-rule="evenodd" clip-rule="evenodd" d="M475.319 332.112C473.417 332.339 471.879 333.368 471.313 334.995C470.869 336.273 471.219 337.571 472.357 338.393C474.048 339.613 475.999 339.951 477.928 339.297C479.185 338.872 480.292 338.013 480.472 336.407C480.647 334.831 479.673 334.031 478.548 333.413C477.537 332.86 476.4 332.536 475.319 332.112ZM475.936 341.951C474.389 341.341 472.743 340.904 471.32 340.081C468.881 338.672 468.713 335.013 470.18 333.159C473.303 329.213 478.989 329.424 481.584 333.716C483.371 336.669 481.288 340.743 477.595 341.485C477.1 341.585 476.583 341.577 476.076 341.619L475.936 341.951Z" fill="white"/>
<path fill-rule="evenodd" clip-rule="evenodd" d="M490.904 332.448C492.128 332.401 493.279 331.465 493.216 330.568C493.143 329.516 492.154 328.789 490.83 328.809C489.271 328.836 488.232 329.581 488.271 330.643C488.311 331.685 489.502 332.503 490.904 332.448ZM490.688 334.364C488.358 334.32 486.236 332.569 486.199 330.656C486.163 328.852 488.607 326.576 490.474 326.679C493.107 326.823 495.022 328.607 495.015 330.909C495.01 332.743 492.927 334.407 490.688 334.364Z" fill="white"/>
<path fill-rule="evenodd" clip-rule="evenodd" d="M476.175 349.13C474.809 349.082 474.263 349.562 474.238 350.84C474.214 352.013 474.629 352.381 475.982 352.39C477.391 352.404 478.378 351.716 478.378 350.724C478.375 349.794 477.522 349.177 476.175 349.13ZM475.995 354.316C473.401 354.31 472.389 353.328 472.378 350.81C472.371 348.825 473.959 347.198 475.889 347.212C478.391 347.226 480.293 348.818 480.265 350.873C480.239 352.828 478.386 354.322 475.995 354.316Z" fill="white"/>
<path fill-rule="evenodd" clip-rule="evenodd" d="M484.845 551.112C483.473 553.884 481.876 556.423 479.381 557.92C476.902 559.408 474.05 560.269 471.322 561.42C472.809 564.196 473.309 567.241 472.677 570.275C472.049 573.291 470.912 576.197 469.938 579.344C477.426 579.679 480.321 585.369 483.088 591.299C487.17 584.236 493.366 581.467 504.892 582.269C505.017 573.683 506.424 570.709 511.473 565.597C511.669 565.399 511.709 565.048 511.861 564.68C505.068 563.24 502.517 558.565 501.924 552.337C496.04 555.173 490.304 556.532 484.845 551.112ZM504.009 548.405C504.009 550.008 504.028 550.92 504.006 551.832C503.926 555.22 504.738 558.295 507.457 560.517C508.402 561.289 509.621 561.803 510.796 562.196C512.142 562.648 513.585 562.816 514.785 563.7C514.637 565.245 513.714 566.136 512.861 567.067C511.712 568.316 510.465 569.492 509.438 570.837C507.618 573.225 507.136 576.103 506.848 579.001C506.681 580.689 507.129 582.228 508.45 583.371C509.042 583.884 509.402 584.428 508.957 585.121C508.473 585.875 507.814 585.463 507.148 585.263C502.02 583.732 496.97 583.78 491.921 585.796C488.72 587.072 486.444 589.151 485.025 592.241C484.741 592.86 484.522 593.516 484.172 594.093C483.936 594.484 483.445 595.088 483.206 595.029C482.736 594.916 482.197 594.488 481.978 594.047C481.418 592.907 480.93 591.712 480.566 590.493C479.728 587.688 477.856 585.584 475.892 583.576C474.309 581.956 472.134 581.677 469.993 581.509C468.994 581.431 467.985 581.496 467.178 581.496C466.353 580.324 466.76 579.671 467.29 578.916C468.869 576.677 469.954 574.225 470.684 571.551C471.321 569.217 471.23 566.973 470.55 564.775C470.197 563.632 469.304 562.625 468.54 561.645C468.1 561.081 467.43 560.693 466.43 559.865C467.538 559.483 468.17 559.176 468.837 559.053C470.504 558.747 472.197 558.583 473.858 558.255C478.148 557.413 480.913 554.628 482.782 550.887C483.293 549.865 483.25 548.581 483.569 547.448C483.686 547.039 484.121 546.72 484.41 546.361C484.768 546.663 485.249 546.897 485.461 547.281C485.908 548.084 486.093 549.045 486.594 549.803C488.328 552.411 491.077 552.789 493.848 552.648C496.678 552.504 499.406 551.817 501.6 549.767C502.11 549.291 502.841 549.052 504.009 548.405Z" fill="white"/>
<path fill-rule="evenodd" clip-rule="evenodd" d="M487.957 576.473C483.83 576.484 481.399 574.994 480.389 571.937C479.245 568.474 480.714 564.25 483.49 562.722C485.013 561.885 486.123 560.288 488.173 560.434C490.659 560.612 493.069 560.921 495.161 562.45C499.097 565.332 499.246 570.98 495.457 573.986C493.221 575.76 490.613 576.362 487.957 576.473Z" fill="white"/>
<path fill-rule="evenodd" clip-rule="evenodd" d="M620.768 36.6343C623.349 34.8743 625.488 33.357 627.686 31.933C630.116 30.361 632.581 28.8423 635.072 27.369C636.068 26.7796 637.184 26.125 638.344 27.6236C636.473 30.1063 633.649 31.2036 631.212 32.8036C628.818 34.3743 626.41 35.9223 624.081 37.941C625.633 38.0436 627.184 38.201 628.738 38.2396C632.572 38.3343 636.406 38.337 640.238 38.453C642.12 38.509 642.23 38.7156 642.485 41.301C636.64 41.557 630.82 40.637 624.725 41.1143C625.19 41.6076 625.518 42.025 625.913 42.361C628.514 44.565 631.086 46.8023 633.758 48.917C634.812 49.7503 635.294 50.6423 635.09 52.0076C634.045 52.653 633.276 52.0076 632.565 51.457C630.006 49.4756 627.492 47.437 624.94 45.4476C623.629 44.4263 622.274 43.4623 620.392 42.065C620.392 44.5903 620.478 46.441 620.373 48.2823C620.156 52.1063 619.837 55.9236 619.558 59.745C619.534 60.0823 619.62 60.493 619.46 60.7436C619.21 61.1316 618.804 61.653 618.445 61.6703C618.056 61.689 617.4 61.2636 617.293 60.9036C617.06 60.117 617 59.245 617.049 58.417C617.36 53.3183 617.725 48.2223 618.06 43.125C618.086 42.7263 618.028 42.3236 617.994 41.5903C615.401 43.173 612.998 44.5623 610.674 46.0743C607.034 48.441 603.45 50.8903 599.842 53.305C599.701 53.3996 599.548 53.5876 599.42 53.573C598.809 53.4983 597.998 53.5743 597.644 53.2156C597.08 52.6423 597.469 51.9796 598.116 51.5223C599.644 50.4396 601.129 49.293 602.682 48.2463C605.365 46.4383 608.089 44.6903 610.792 42.9063C611.05 42.7356 611.268 42.5023 611.924 41.937C608.937 41.937 606.436 41.9436 603.934 41.933C603.081 41.929 602.226 41.925 601.381 41.837C600.442 41.741 599.428 41.597 599.317 40.3783C599.232 39.4183 600.017 38.9463 601.529 38.937C605.365 38.909 609.2 38.885 613.034 38.857C613.458 38.853 613.881 38.821 614.738 38.7836C614.077 38.229 613.721 37.8463 613.292 37.5796C610.11 35.6063 606.913 33.6556 603.724 31.6943C603.434 31.517 603.021 31.3743 602.906 31.1103C602.665 30.5556 602.285 29.7303 602.514 29.3876C602.778 28.9943 603.796 28.6863 604.218 28.8916C606.052 29.7823 607.805 30.8436 609.553 31.901C612.308 33.569 615.034 35.2836 617.96 37.093C618.196 36.4916 618.401 36.2103 618.406 35.9236C618.502 31.4996 618.568 27.0756 618.653 22.6503C618.661 22.2383 618.642 21.749 618.852 21.4396C619.058 21.1343 619.548 20.8356 619.889 20.861C620.196 20.8836 620.678 21.317 620.724 21.6236C620.9 22.797 621.02 23.9943 620.996 25.1796C620.932 28.245 620.772 31.3076 620.669 34.373C620.649 34.949 620.716 35.5263 620.768 36.6343Z" fill="white"/>
<path fill-rule="evenodd" clip-rule="evenodd" d="M352.396 337.775C354.977 336.015 357.116 334.498 359.315 333.074C361.744 331.502 364.209 329.983 366.7 328.51C367.696 327.92 368.812 327.266 369.972 328.764C368.101 331.247 365.277 332.344 362.84 333.944C360.447 335.515 358.039 337.063 355.709 339.082C357.261 339.184 358.812 339.342 360.367 339.38C364.2 339.475 368.035 339.478 371.867 339.594C373.748 339.65 373.859 339.856 374.113 342.442C368.268 342.698 362.448 341.778 356.353 342.255C356.819 342.748 357.147 343.166 357.541 343.502C360.143 345.706 362.715 347.943 365.387 350.058C366.44 350.891 366.923 351.783 366.719 353.148C365.673 353.794 364.904 353.148 364.193 352.598C361.635 350.616 359.12 348.578 356.568 346.588C355.257 345.567 353.903 344.603 352.02 343.206C352.02 345.731 352.107 347.582 352.001 349.423C351.784 353.247 351.465 357.064 351.187 360.886C351.163 361.223 351.248 361.634 351.088 361.884C350.839 362.272 350.432 362.794 350.073 362.811C349.684 362.83 349.028 362.404 348.921 362.044C348.688 361.258 348.628 360.386 348.677 359.558C348.988 354.459 349.353 349.363 349.688 344.266C349.715 343.867 349.656 343.464 349.623 342.731C347.029 344.314 344.627 345.703 342.303 347.215C338.663 349.582 335.079 352.031 331.471 354.446C331.329 354.54 331.176 354.728 331.048 354.714C330.437 354.639 329.627 354.715 329.272 354.356C328.708 353.783 329.097 353.12 329.744 352.663C331.272 351.58 332.757 350.434 334.311 349.387C336.993 347.579 339.717 345.831 342.42 344.047C342.679 343.876 342.896 343.643 343.552 343.078C340.565 343.078 338.064 343.084 335.563 343.074C334.709 343.07 333.855 343.066 333.009 342.978C332.071 342.882 331.056 342.738 330.945 341.519C330.86 340.559 331.645 340.087 333.157 340.078C336.993 340.05 340.828 340.026 344.663 339.998C345.087 339.994 345.509 339.962 346.367 339.924C345.705 339.37 345.349 338.987 344.92 338.72C341.739 336.747 338.541 334.796 335.352 332.835C335.063 332.658 334.649 332.515 334.535 332.251C334.293 331.696 333.913 330.871 334.143 330.528C334.407 330.135 335.424 329.827 335.847 330.032C337.68 330.923 339.433 331.984 341.181 333.042C343.936 334.71 346.663 336.424 349.588 338.234C349.824 337.632 350.029 337.351 350.035 337.064C350.131 332.64 350.196 328.216 350.281 323.791C350.289 323.379 350.271 322.89 350.48 322.58C350.687 322.275 351.176 321.976 351.517 322.002C351.824 322.024 352.307 322.458 352.352 322.764C352.528 323.938 352.648 325.135 352.624 326.32C352.56 329.386 352.4 332.448 352.297 335.514C352.277 336.09 352.344 336.667 352.396 337.775Z" fill="white"/>
<path fill-rule="evenodd" clip-rule="evenodd" d="M190.696 212.64C192.092 218.803 191.87 224.923 191.899 231.431C193.048 230.837 193.872 230.459 194.652 230.003C198.843 227.552 203.024 225.081 207.21 222.617C207.431 222.488 207.668 222.385 207.882 222.244C208.614 221.755 209.382 221.251 210.144 222.104C210.722 222.749 210.282 223.811 209.063 224.547C204.759 227.149 200.431 229.709 196.108 232.28C195.09 232.884 194.054 233.463 192.639 234.275C195.002 235.529 197.054 236.617 199.103 237.709C201.66 239.071 204.219 240.431 206.768 241.807C207.215 242.047 207.727 242.285 208.014 242.671C208.27 243.016 208.447 243.635 208.307 243.997C208.163 244.371 207.568 244.851 207.222 244.813C206.406 244.725 205.567 244.461 204.835 244.084C201.272 242.251 197.743 240.352 194.199 238.488C193.606 238.177 192.986 237.923 192.002 237.471C191.847 239.592 191.566 241.489 191.603 243.381C191.67 246.955 191.923 250.524 192.092 254.095C192.108 254.431 192.204 254.847 192.051 255.089C191.762 255.545 191.343 256.181 190.931 256.221C190.526 256.259 189.824 255.729 189.672 255.301C189.398 254.523 189.363 253.635 189.354 252.789C189.3 248.017 189.286 243.245 189.248 238.473C189.243 237.972 189.17 237.471 189.108 236.719C188.466 236.989 187.923 237.133 187.47 237.421C182.732 240.448 178.014 243.505 173.276 246.529C172.639 246.936 171.939 247.375 171.223 247.475C170.806 247.533 170.144 247.045 169.887 246.624C169.727 246.363 170.018 245.675 170.3 245.343C170.612 244.973 171.155 244.803 171.582 244.524C176.502 241.319 181.418 238.109 186.486 234.801C182.726 232.621 179.126 230.532 175.524 228.444C174.79 228.017 173.958 227.692 173.352 227.124C172.942 226.74 172.527 225.904 172.678 225.465C173.006 224.521 173.902 224.371 174.79 224.845C176.595 225.807 178.387 226.791 180.172 227.78C183.066 229.38 185.951 230.992 189.087 232.735C189.688 228.811 189.447 225.267 189.298 221.737C189.199 219.357 188.859 216.988 188.626 214.613C188.47 213.032 188.468 213.032 190.696 212.64Z" fill="white"/>
<path fill-rule="evenodd" clip-rule="evenodd" d="M617.056 585.434C620.595 587.608 624.017 589.682 627.404 591.804C628.411 592.436 629.407 593.128 630.251 593.955C630.769 594.464 630.993 595.278 631.357 595.964C629.893 596.958 629.015 596.33 628.061 595.707C625.139 593.795 622.184 591.931 619.228 590.067C618.444 589.572 617.616 589.147 616.575 588.556C616.439 589.324 616.311 589.858 616.253 590.398C615.741 595.3 615.239 600.204 614.735 605.108C614.708 605.363 614.799 605.712 614.663 605.856C614.251 606.299 613.753 606.666 613.291 607.062C612.904 606.572 612.308 606.128 612.187 605.582C612.045 604.964 612.312 604.248 612.436 603.582C613.403 598.384 613.583 593.128 613.756 587.608C613.072 587.822 612.569 587.866 612.204 588.111C607.408 591.346 602.644 594.628 597.829 597.838C597.26 598.218 596.32 598.53 595.775 598.314C595.288 598.119 595.108 597.15 594.717 596.371C600.327 592.658 605.707 589.096 611.287 585.404C610.72 584.944 610.316 584.564 609.863 584.254C606.493 581.946 603.107 579.659 599.745 577.338C599.263 577.007 598.755 576.594 598.493 576.095C598.296 575.719 598.293 575.004 598.532 574.699C598.769 574.398 599.479 574.227 599.877 574.346C600.507 574.532 601.056 574.999 601.623 575.37C605.324 577.795 609.02 580.232 612.725 582.65C613.056 582.866 613.449 582.98 614.159 583.296C614.351 579.376 614.549 575.75 614.696 572.122C614.761 570.504 614.733 568.882 614.733 567.262C614.732 566.376 615.072 565.706 616.012 565.69C617.011 565.674 617.268 566.436 617.248 567.276C617.16 570.85 617.065 574.424 616.939 577.999C616.897 579.142 616.749 580.282 616.605 581.915C618.007 581.134 618.977 580.654 619.889 580.074C622.98 578.108 626.039 576.09 629.14 574.135C629.919 573.644 630.78 573.23 631.66 572.97C632.02 572.864 632.84 573.191 632.904 573.455C633.02 573.934 632.871 574.618 632.572 575.024C632.239 575.475 631.621 575.719 631.119 576.04C626.601 578.936 622.083 581.827 617.567 584.73C617.441 584.81 617.376 584.986 617.056 585.434Z" fill="white"/>
<path fill-rule="evenodd" clip-rule="evenodd" d="M400.208 184.818C405.043 188.502 407.775 193.426 409.928 198.917C412.177 193.216 414.313 187.805 416.455 182.381C414.105 179.389 411.668 176.288 408.988 172.876C407.516 178.114 404.599 181.942 400.208 184.818ZM408.332 166.56C408.96 166.966 409.476 167.109 409.565 167.385C411.367 173.072 414.944 177.534 419.303 181.561C419.225 181.869 419.227 182.238 419.057 182.5C415.787 187.56 413.992 193.234 412.243 198.92C411.723 200.618 411.527 202.416 411.089 204.146C410.985 204.55 410.503 204.86 410.193 205.212C409.852 204.889 409.34 204.626 409.201 204.234C408.339 201.754 407.671 199.204 406.725 196.757C405.097 192.538 402.457 189.049 398.733 186.421C396.971 185.178 397.072 184.632 398.948 183.406C403.729 180.284 406.863 176.046 407.617 170.245C407.765 169.105 408.052 167.985 408.332 166.56Z" fill="white"/>
<path fill-rule="evenodd" clip-rule="evenodd" d="M40.0271 452.487C38.1151 457.26 35.7951 461.259 32.2378 464.692C36.9125 466.784 39.6311 470.219 41.3431 474.7C42.4564 470.32 44.3031 466.383 46.8871 462.812C45.7098 461.091 44.5924 459.492 43.5138 457.87C42.4378 456.25 41.3964 454.607 40.0271 452.487ZM39.7018 447.894C40.3058 448.603 40.7498 448.92 40.9098 449.346C42.5871 453.79 45.4231 457.512 48.3631 461.138C49.2591 462.242 49.2618 462.906 48.4724 463.987C45.0924 468.62 42.8124 473.668 42.9938 479.568C43.0004 479.822 43.0658 480.127 42.9538 480.323C42.7284 480.716 42.4191 481.318 42.1098 481.342C41.7431 481.367 41.1284 480.951 40.9911 480.586C40.4204 479.083 40.1125 477.471 39.4751 476C38.6391 474.068 37.7431 472.123 36.5791 470.38C35.3845 468.591 33.5685 467.419 31.5405 466.602C29.0111 465.58 29.0071 465.282 30.9618 463.518C35.2018 459.692 37.8365 454.946 38.9565 449.347C39.0311 448.971 39.3111 448.64 39.7018 447.894Z" fill="white"/>
<path fill-rule="evenodd" clip-rule="evenodd" d="M227.949 544.072C228.442 544.074 228.725 544.29 228.727 544.804C228.733 545.366 228.697 545.933 228.75 546.49C229.17 550.908 230.678 554.829 234.013 557.905C234.911 558.73 235.822 559.545 236.731 560.361C237.285 560.858 237.194 561.309 236.587 562.045C235.457 563.418 234.331 564.804 233.309 566.258C231.699 568.546 231.274 571.241 230.914 573.933C230.818 574.64 230.877 575.364 230.785 576.072C230.754 576.321 230.485 576.544 230.325 576.78C230.066 576.582 229.751 576.429 229.565 576.178C229.433 576.001 229.477 575.692 229.443 575.441C228.962 571.861 227.534 568.67 225.307 565.858C224.279 564.564 222.975 563.588 221.269 563.246C220.345 563.064 220.201 562.582 220.795 561.853C221.602 560.864 222.461 559.916 223.261 558.921C225.885 555.66 227.214 551.91 227.381 547.749C227.419 546.837 227.318 545.916 227.217 545.004C227.149 544.397 227.431 544.162 227.949 544.072Z" fill="white"/>
<path fill-rule="evenodd" clip-rule="evenodd" d="M253.51 265C254.003 265.002 254.286 265.218 254.288 265.732C254.294 266.294 254.258 266.861 254.311 267.418C254.731 271.836 256.239 275.757 259.574 278.833C260.472 279.658 261.383 280.473 262.292 281.289C262.846 281.786 262.755 282.237 262.148 282.973C261.018 284.346 259.892 285.732 258.87 287.186C257.26 289.474 256.835 292.169 256.475 294.861C256.379 295.568 256.438 296.292 256.346 297C256.315 297.249 256.046 297.472 255.886 297.708C255.627 297.51 255.312 297.357 255.126 297.106C254.994 296.929 255.038 296.62 255.004 296.369C254.523 292.789 253.095 289.598 250.868 286.786C249.84 285.492 248.536 284.516 246.83 284.174C245.906 283.992 245.762 283.51 246.356 282.781C247.163 281.792 248.022 280.844 248.822 279.849C251.446 276.588 252.775 272.838 252.942 268.677C252.98 267.765 252.879 266.844 252.778 265.932C252.71 265.325 252.992 265.09 253.51 265Z" fill="white"/>
<path fill-rule="evenodd" clip-rule="evenodd" d="M30.3914 136.106C30.7554 136.37 31.0608 136.472 31.1034 136.64C31.9981 140.107 33.9928 142.898 36.4741 145.452C36.4181 145.634 36.4074 145.856 36.2968 146.006C34.1714 148.931 32.9101 152.272 31.6781 155.62C31.3074 156.622 31.1341 157.692 30.8128 158.714C30.7408 158.954 30.4408 159.122 30.2434 159.324C30.0501 159.119 29.7501 158.946 29.6808 158.704C29.2448 157.191 28.9274 155.64 28.4421 154.144C27.6048 151.563 26.1368 149.387 23.9901 147.691C22.9768 146.888 23.0554 146.564 24.2194 145.892C27.1861 144.178 29.2008 141.742 29.8434 138.291C29.9701 137.612 30.1781 136.951 30.3914 136.106Z" fill="white"/>
<path fill-rule="evenodd" clip-rule="evenodd" d="M597.056 294.852C597.212 294.715 597.368 294.579 597.525 294.442C596.304 291.155 595.08 287.868 593.873 284.626C598.332 282.46 599.947 281.342 601.199 279.52C597.605 279.026 594.103 278.544 590.671 278.072C589.887 274.98 588.991 272.247 587.204 269.288C585.78 272.608 584.488 275.372 583.425 278.22C582.968 279.446 582.416 279.852 581.095 280.035C578.728 280.364 576.313 280.811 573.935 282.29C575.879 283.263 577.532 284.11 579.201 284.923C581.627 286.102 581.572 286.07 580.584 288.698C579.733 290.96 579.035 293.28 578.269 295.575C580.889 293.703 583.147 291.668 585.439 289.675C586.985 288.332 587.004 288.378 588.707 289.484C591.48 291.288 594.272 293.064 597.056 294.852ZM579.187 287.112C576.9 285.98 574.775 284.931 572.655 283.876C572.121 283.611 571.54 283.392 571.087 283.024C570.733 282.739 570.301 282.218 570.349 281.863C570.397 281.504 570.944 281.064 571.361 280.926C573.939 280.072 576.504 279.119 579.147 278.548C580.96 278.158 581.988 277.263 582.613 275.627C583.613 273.002 584.655 270.392 585.707 267.787C585.98 267.114 586.356 266.483 586.879 265.444C587.567 266.234 588.103 266.643 588.363 267.186C589.509 269.559 590.78 271.903 591.603 274.392C592.209 276.23 593.408 276.598 594.977 276.854C597.741 277.306 600.493 277.838 603.249 278.339C603.501 278.384 603.796 278.379 603.988 278.515C604.373 278.784 604.936 279.104 604.983 279.462C605.032 279.842 604.671 280.435 604.313 280.679C603.335 281.352 602.239 281.852 601.231 282.491C599.587 283.532 597.98 284.63 596.209 285.799C596.772 287.228 597.321 288.539 597.799 289.875C598.457 291.715 599.108 293.562 599.647 295.438C599.813 296.016 599.608 296.702 599.572 297.338C598.865 297.284 598.029 297.458 597.475 297.14C594.299 295.326 591.189 293.394 588.056 291.504C587.769 291.33 587.473 291.168 586.879 290.828C584.92 292.608 582.92 294.424 580.925 296.244C579.983 297.104 579.095 298.032 578.097 298.822C577.488 299.303 576.92 300.284 575.917 299.639C574.897 298.983 575.559 298.122 575.808 297.355C576.733 294.52 577.68 291.695 578.616 288.866C578.775 288.386 578.928 287.904 579.187 287.112Z" fill="white"/>
<path fill-rule="evenodd" clip-rule="evenodd" d="M23.9932 43.6943L24.4625 43.937C26.8545 41.9223 29.2692 39.9317 31.6345 37.8877C33.6985 36.1023 33.6292 36.1437 35.8998 37.7183C38.0718 39.2223 40.3558 40.565 42.5918 41.9783C42.1745 39.4863 41.3598 37.373 40.6292 35.2317C39.6932 32.505 39.7452 32.5263 41.9252 30.793C43.8705 29.2463 45.8438 27.7077 47.4812 25.3237C44.7145 25.0063 42.2878 24.6077 39.8478 24.4943C38.3132 24.421 37.2718 23.7903 36.4825 22.6077C36.0145 21.9037 35.7038 21.0917 35.2305 20.389C34.7358 19.6583 34.1318 19.001 33.4518 18.161C33.0105 18.765 32.7372 19.081 32.5265 19.4343C31.4465 21.2663 30.4092 23.1263 29.2972 24.937C28.7252 25.869 28.0918 26.4143 26.7118 26.517C24.2318 26.7037 21.7998 27.553 18.7678 28.261C20.1985 29.093 21.1305 29.6343 22.0612 30.1743C23.4585 30.9863 24.8572 31.793 26.2505 32.6103C27.0585 33.085 27.2092 33.7077 26.7292 34.5357C25.0758 37.3757 24.6545 40.5703 23.9932 43.6943ZM44.3518 45.5117C40.8158 43.2997 37.2345 41.057 33.6145 38.7917C31.1865 40.817 28.8652 42.7957 26.4918 44.7103C25.7065 45.3423 24.8398 45.9517 23.9105 46.301C23.3025 46.5277 22.3678 46.4863 21.8545 46.1477C21.5452 45.9423 21.6038 44.9023 21.7585 44.3063C22.6332 40.9463 23.5878 37.6063 24.5758 34.0423C23.5892 33.481 22.6265 32.9837 21.7145 32.405C19.9958 31.3117 18.2798 30.213 16.6238 29.029C16.1492 28.6917 15.8892 28.0557 15.3052 27.2477C17.0972 26.765 18.4665 26.377 19.8478 26.0317C21.7438 25.5583 23.6292 25.005 25.5532 24.7023C27.1678 24.449 28.1238 23.5823 28.8225 22.2183C29.8292 20.2557 30.8678 18.3103 31.9118 16.369C32.6278 15.0397 33.4692 14.897 34.4252 16.0903C35.5918 17.5437 36.6812 19.073 37.6598 20.657C38.4572 21.9437 39.4398 22.4943 40.9745 22.581C43.6812 22.7343 46.3705 23.1477 49.0665 23.465C49.3998 23.5037 49.7452 23.569 50.0532 23.7023C51.0638 24.1383 51.2092 24.913 50.3945 25.673C48.2825 27.641 46.2038 29.6543 43.9958 31.5117C42.5772 32.705 42.0678 33.8943 42.7532 35.7183C43.6812 38.1757 44.3852 40.7183 45.1838 43.225C45.4212 43.9717 45.6612 44.7223 44.3518 45.5117Z" fill="white"/>
<path fill-rule="evenodd" clip-rule="evenodd" d="M340.242 565.71C342.589 567.652 344.838 569.515 347.087 571.375C347.271 570.295 347.058 569.502 346.841 568.707C346.395 567.07 345.985 565.422 345.491 563.8C344.993 562.168 345.275 560.846 346.603 559.676C347.357 559.012 347.883 558.092 348.55 557.322C349.23 556.532 349.955 555.783 350.661 555.015C348.569 554.866 346.725 555.071 344.894 555.368C342.31 555.787 341.658 555.447 340.574 552.983C340.111 551.935 339.615 550.9 338.991 549.546C338.061 551.532 337.265 553.119 336.573 554.751C335.93 556.272 334.801 556.836 333.214 556.972C331.246 557.142 329.297 557.515 326.969 557.855C329.315 560.223 332.311 561.048 333.767 563.124C332.735 566.532 331.811 569.586 330.887 572.639C331.051 572.75 331.215 572.86 331.381 572.97C334.302 570.576 337.222 568.183 340.242 565.71ZM349.259 574.759C348.285 574.355 347.478 574.196 346.894 573.746C344.735 572.084 342.654 570.327 340.289 568.399C338.681 569.647 337.026 570.942 335.361 572.22C334.214 573.102 333.095 574.032 331.882 574.811C330.949 575.412 329.873 575.696 328.394 575.202C329.095 571.296 330.655 567.652 331.574 563.751C330.035 562.698 328.546 561.736 327.121 560.682C326.238 560.027 325.387 559.3 324.645 558.495C323.465 557.215 323.741 556.504 325.523 556.188C327.787 555.79 330.058 555.295 332.345 555.172C334.189 555.071 335.115 554.308 335.631 552.622C336.226 550.674 336.937 548.756 337.703 546.867C337.931 546.303 338.509 545.882 338.927 545.396C339.341 545.863 339.894 546.264 340.143 546.808C340.886 548.431 341.419 550.155 342.203 551.755C343.069 553.527 343.522 553.655 345.451 553.406C347.723 553.114 349.995 552.8 352.278 552.618C352.847 552.571 353.659 552.83 353.993 553.24C354.53 553.904 353.866 554.4 353.367 554.916C351.891 556.444 350.583 558.144 349.046 559.602C347.082 561.462 347.017 563.54 347.795 565.903C348.355 567.598 348.877 569.316 349.221 571.064C349.429 572.106 349.259 573.22 349.259 574.759Z" fill="white"/>
<path fill-rule="evenodd" clip-rule="evenodd" d="M354.311 273.313C356.658 275.256 358.907 277.119 361.157 278.979C361.341 277.899 361.127 277.105 360.91 276.311C360.465 274.673 360.054 273.025 359.561 271.404C359.062 269.772 359.345 268.449 360.673 267.28C361.426 266.616 361.953 265.696 362.619 264.925C363.299 264.136 364.025 263.387 364.73 262.619C362.638 262.469 360.794 262.675 358.963 262.972C356.379 263.391 355.727 263.051 354.643 260.587C354.181 259.539 353.685 258.504 353.061 257.149C352.13 259.136 351.334 260.723 350.642 262.355C349.999 263.876 348.87 264.44 347.283 264.576C345.315 264.745 343.366 265.119 341.038 265.459C343.385 267.827 346.381 268.652 347.837 270.728C346.805 274.136 345.881 277.189 344.957 280.243C345.121 280.353 345.285 280.464 345.45 280.573C348.371 278.18 351.291 275.787 354.311 273.313ZM363.329 282.363C362.354 281.959 361.547 281.8 360.963 281.349C358.805 279.688 356.723 277.931 354.358 276.003C352.75 277.251 351.095 278.545 349.43 279.824C348.283 280.705 347.165 281.636 345.951 282.415C345.018 283.016 343.942 283.3 342.463 282.805C343.165 278.9 344.725 275.256 345.643 271.355C344.105 270.301 342.615 269.34 341.19 268.285C340.307 267.631 339.457 266.904 338.714 266.099C337.534 264.819 337.81 264.108 339.593 263.792C341.857 263.393 344.127 262.899 346.414 262.776C348.258 262.675 349.185 261.912 349.701 260.225C350.295 258.277 351.006 256.36 351.773 254.471C352.001 253.907 352.578 253.485 352.997 253C353.41 253.467 353.963 253.868 354.213 254.412C354.955 256.035 355.489 257.759 356.273 259.359C357.138 261.131 357.591 261.259 359.521 261.009C361.793 260.717 364.065 260.404 366.347 260.221C366.917 260.175 367.729 260.433 368.062 260.844C368.599 261.508 367.935 262.004 367.437 262.52C365.961 264.048 364.653 265.748 363.115 267.205C361.151 269.065 361.086 271.144 361.865 273.507C362.425 275.201 362.946 276.92 363.29 278.668C363.498 279.709 363.329 280.824 363.329 282.363Z" fill="white"/>
<path fill-rule="evenodd" clip-rule="evenodd" d="M224.307 405.209C223.325 401.973 221.075 399.827 221.027 396.622C223.911 396.365 225.963 394.778 228.333 392.518C225.815 392.763 223.879 392.91 221.953 393.149C220.035 393.386 219.599 393.146 219.015 391.274C218.664 390.139 218.361 388.985 217.931 387.881C217.555 386.911 217.255 385.845 216.291 385.247C215.057 387.635 213.905 389.898 212.723 392.142C212.32 392.907 211.703 393.073 210.804 392.95C209.265 392.737 207.709 392.834 205.932 393.771C207.397 394.598 208.559 395.267 209.733 395.911C210.728 396.458 210.867 396.987 210.343 398.147C209.137 400.815 208.247 403.626 207.227 406.378C207.345 406.451 207.465 406.522 207.585 406.594C210.209 404.359 212.833 402.125 215.284 400.037C218.343 401.79 221.093 403.366 224.307 405.209ZM226.855 408.677C222.952 406.607 219.128 404.579 215.195 402.494C213.137 404.323 211.181 406.082 209.203 407.817C208.369 408.547 207.547 409.311 206.612 409.891C206.132 410.189 205.421 410.118 204.815 410.214C204.76 409.661 204.528 409.05 204.683 408.563C205.351 406.458 206.148 404.391 206.869 402.302C207.395 400.787 207.88 399.255 208.443 397.55C205.989 396.017 203.676 394.573 200.981 392.89C201.911 392.381 202.356 391.963 202.851 391.894C205.041 391.585 207.239 391.306 209.443 391.157C210.584 391.081 211.372 390.735 211.884 389.678C212.887 387.611 213.937 385.569 215 383.531C215.367 382.829 215.831 382.175 216.501 381.093C218.807 384.435 219.681 387.915 221.168 391.153C224.872 391.149 228.575 389.611 232.556 391.242C229.869 394.573 226.189 396.033 223.2 398.771C224.629 401.315 225.976 403.857 227.476 406.305C228.095 407.318 228.181 407.981 226.855 408.677Z" fill="white"/>
<path fill-rule="evenodd" clip-rule="evenodd" d="M470.757 450.165C468.636 448.839 466.487 447.492 464.315 446.133C462.857 447.349 461.465 448.536 460.041 449.685C459.571 450.065 459.051 450.429 458.493 450.639C458.128 450.776 457.568 450.749 457.26 450.547C457.073 450.424 457.109 449.8 457.201 449.443C457.728 447.427 458.299 445.421 458.892 443.284C458.3 442.948 457.723 442.648 457.175 442.303C456.144 441.645 455.116 440.987 454.12 440.276C453.837 440.073 453.679 439.693 453.331 439.205C454.404 438.916 455.228 438.685 456.056 438.476C457.192 438.195 458.324 437.861 459.477 437.68C460.447 437.528 461.019 437.008 461.44 436.191C462.044 435.013 462.668 433.845 463.295 432.68C463.723 431.883 464.228 431.797 464.803 432.513C465.501 433.385 466.155 434.303 466.743 435.252C467.22 436.025 467.811 436.355 468.731 436.407C470.355 436.5 471.968 436.748 473.585 436.937C473.787 436.961 473.995 437 474.177 437.081C474.785 437.341 474.873 437.807 474.384 438.263C473.116 439.443 471.869 440.651 470.545 441.765C469.693 442.481 469.387 443.195 469.799 444.289C470.355 445.764 470.777 447.289 471.256 448.795C471.399 449.243 471.543 449.693 470.757 450.165Z" fill="white"/>
<path fill-rule="evenodd" clip-rule="evenodd" d="M236.828 35.5654C236.244 35.3227 235.758 35.2281 235.409 34.9587C234.114 33.9614 232.864 32.9067 231.446 31.7494C230.48 32.4987 229.488 33.2747 228.488 34.0414C227.8 34.5707 227.13 35.1294 226.402 35.5974C225.842 35.9574 225.196 36.1281 224.309 35.8307C224.73 33.4881 225.665 31.3014 226.217 28.9614C225.293 28.3281 224.4 27.7521 223.545 27.1187C223.016 26.7267 222.505 26.2907 222.058 25.8067C221.352 25.0387 221.517 24.6121 222.586 24.4241C223.945 24.1841 225.308 23.8867 226.678 23.8134C227.786 23.7534 228.342 23.2961 228.652 22.2827C229.009 21.1134 229.436 19.9641 229.894 18.8307C230.03 18.4921 230.378 18.2401 230.629 17.9481C230.877 18.2281 231.209 18.4694 231.357 18.7947C231.802 19.7694 232.124 20.8027 232.594 21.7627C233.113 22.8254 233.386 22.9041 234.542 22.7547C235.908 22.5774 237.27 22.3907 238.638 22.2801C238.98 22.2534 239.466 22.4081 239.668 22.6547C239.99 23.0534 239.592 23.3494 239.293 23.6601C238.408 24.5774 237.624 25.5961 236.698 26.4707C235.522 27.5881 235.482 28.8347 235.95 30.2521C236.285 31.2681 236.598 32.3001 236.805 33.3481C236.928 33.9734 236.828 34.6427 236.828 35.5654Z" fill="white"/>
<path fill-rule="evenodd" clip-rule="evenodd" d="M61.7354 618.504C59.3941 617.261 57.0994 616.045 54.7381 614.793C53.5048 615.892 52.3314 616.947 51.1448 617.988C50.6448 618.425 50.1501 618.884 49.5901 619.232C49.3008 619.411 48.8741 619.368 48.5114 619.425C48.4781 619.092 48.3394 618.728 48.4314 618.436C48.8328 617.171 49.3114 615.931 49.7434 614.679C50.0594 613.769 50.3501 612.851 50.6874 611.827C49.2141 610.908 47.8274 610.04 46.2114 609.032C46.7688 608.725 47.0368 608.476 47.3328 608.433C48.6474 608.249 49.9648 608.083 51.2874 607.991C51.9728 607.945 52.4448 607.739 52.7528 607.103C53.3541 605.864 53.9848 604.637 54.6208 603.416C54.8421 602.993 55.1208 602.603 55.5248 601.952C56.9061 603.959 57.4301 606.045 58.3221 607.988C60.5448 607.985 62.7661 607.064 65.1568 608.043C63.5421 610.04 61.3368 610.919 59.5421 612.559C60.3994 614.087 61.2074 615.611 62.1074 617.08C62.4794 617.689 62.5314 618.085 61.7354 618.504Z" fill="white"/>
<path fill-rule="evenodd" clip-rule="evenodd" d="M387.103 406.878C387.496 408.066 387.895 409.252 388.281 410.443C388.387 410.764 388.664 411.128 388.236 411.402C387.813 411.672 387.576 411.26 387.321 411.059C386.903 410.727 386.527 410.338 386.131 409.976C385.295 409.211 384.455 408.448 383.632 407.7C383.383 407.844 383.259 407.911 383.136 407.984C381.821 408.779 380.516 409.591 379.181 410.352C378.949 410.486 378.597 410.412 378.3 410.435C378.285 410.168 378.199 409.88 378.269 409.638C378.496 408.85 378.769 408.074 379.045 407.302C379.245 406.739 379.477 406.19 379.712 405.588C378.969 405.098 378.295 404.638 377.604 404.2C377.181 403.932 376.721 403.722 376.308 403.439C376.16 403.336 376.007 403.086 376.027 402.927C376.048 402.778 376.285 402.643 376.447 402.53C376.527 402.472 376.651 402.475 376.756 402.456C377.915 402.244 379.069 402.022 380.231 401.834C380.889 401.726 381.395 401.571 381.648 400.798C381.993 399.752 382.527 398.768 383.009 397.771C383.119 397.544 383.343 397.372 383.631 397.04C383.852 397.476 384.009 397.74 384.124 398.023C384.567 399.119 385.004 400.214 385.423 401.316C385.687 402.004 386.119 402.38 386.879 402.544C387.991 402.784 389.068 403.183 390.149 403.542C390.324 403.602 390.553 403.786 390.575 403.936C390.595 404.084 390.412 404.303 390.264 404.424C390.075 404.578 389.831 404.67 389.605 404.782C388.715 405.226 387.824 405.666 386.863 406.14C386.971 406.474 387.035 406.676 387.103 406.878Z" fill="white"/>
<path fill-rule="evenodd" clip-rule="evenodd" d="M405.367 45.7328C405.511 44.9995 405.73 44.2781 405.966 43.5661C406.292 42.5728 406.267 41.7008 405.442 40.9195C404.795 40.3075 404.246 39.5941 403.626 38.9515C403.416 38.7341 403.138 38.5275 403.363 38.2488C403.504 38.0755 403.844 37.9661 404.083 37.9848C405.042 38.0635 405.996 38.1941 406.95 38.3168C407.762 38.4221 407.951 38.3675 408.315 37.6235C408.644 36.9515 408.868 36.2288 409.18 35.5461C409.284 35.3181 409.516 35.1501 409.691 34.9528C409.866 35.1568 410.11 35.3341 410.204 35.5701C410.527 36.3648 410.824 37.1688 411.074 37.9875C411.292 38.6968 411.68 39.0168 412.455 39.0581C413.415 39.1101 414.37 39.3181 415.322 39.4861C416.068 39.6181 416.186 39.9168 415.69 40.4541C415.378 40.7928 415.019 41.0981 414.65 41.3728C414.051 41.8155 413.426 42.2195 412.78 42.6621C413.166 44.3008 413.82 45.8315 414.115 47.4715C413.494 47.6781 413.043 47.5595 412.65 47.3075C412.139 46.9808 411.671 46.5888 411.188 46.2195C410.49 45.6821 409.795 45.1381 409.118 44.6141C408.126 45.4248 407.251 46.1621 406.344 46.8608C406.1 47.0488 405.76 47.1155 405.351 47.2861C405.351 46.6395 405.282 46.1701 405.367 45.7328Z" fill="white"/>
<path fill-rule="evenodd" clip-rule="evenodd" d="M418.657 530.967C417.512 530.359 416.387 529.763 415.231 529.15C414.625 529.687 414.051 530.205 413.468 530.715C413.223 530.93 412.98 531.155 412.707 531.325C412.565 531.413 412.356 531.391 412.179 531.419C412.163 531.257 412.095 531.077 412.139 530.934C412.336 530.315 412.569 529.707 412.783 529.094C412.937 528.647 413.079 528.198 413.243 527.697C412.523 527.246 411.844 526.822 411.051 526.327C411.324 526.175 411.456 526.053 411.6 526.034C412.244 525.942 412.891 525.861 413.539 525.817C413.873 525.794 414.105 525.693 414.256 525.382C414.551 524.774 414.86 524.173 415.173 523.574C415.28 523.369 415.416 523.175 415.615 522.858C416.292 523.839 416.548 524.863 416.985 525.817C418.075 525.814 419.164 525.363 420.335 525.842C419.543 526.822 418.463 527.251 417.583 528.055C418.004 528.803 418.4 529.551 418.84 530.271C419.021 530.569 419.048 530.763 418.657 530.967Z" fill="white"/>
<path fill-rule="evenodd" clip-rule="evenodd" d="M266.377 182.14C265.704 181.807 265.081 181.5 264.457 181.189C264.3 181.111 264.131 181.047 263.996 180.939C263.893 180.855 263.765 180.7 263.78 180.597C263.795 180.491 263.955 180.363 264.076 180.321C264.835 180.071 265.589 179.789 266.365 179.623C266.9 179.507 267.201 179.244 267.385 178.763C267.68 177.992 267.985 177.224 268.295 176.459C268.375 176.26 268.485 176.075 268.639 175.769C268.843 176.001 268.999 176.123 269.076 176.281C269.412 176.979 269.787 177.668 270.027 178.4C270.207 178.941 270.559 179.049 271.019 179.124C271.833 179.257 272.641 179.413 273.452 179.56C273.527 179.575 273.613 179.572 273.671 179.612C273.783 179.692 273.949 179.785 273.961 179.891C273.977 180.001 273.871 180.176 273.765 180.249C273.477 180.447 273.155 180.593 272.859 180.781C272.376 181.088 271.904 181.411 271.383 181.753C271.548 182.175 271.709 182.559 271.849 182.952C272.043 183.493 272.236 184.036 272.395 184.588C272.443 184.757 272.381 184.959 272.371 185.145C272.164 185.131 271.917 185.181 271.755 185.088C270.821 184.555 269.907 183.987 268.985 183.431C268.901 183.38 268.813 183.333 268.639 183.232C268.064 183.756 267.475 184.289 266.889 184.825C266.613 185.077 266.349 185.351 266.057 185.583C265.879 185.724 265.712 186.012 265.417 185.823C265.117 185.631 265.311 185.376 265.385 185.151C265.656 184.317 265.935 183.487 266.209 182.656C266.256 182.515 266.301 182.373 266.377 182.14Z" fill="white"/>
<path fill-rule="evenodd" clip-rule="evenodd" d="M590.665 138.24C590.378 138.121 590.141 138.073 589.97 137.941C589.334 137.453 588.722 136.936 588.028 136.369C587.556 136.737 587.069 137.117 586.58 137.493C586.242 137.752 585.913 138.025 585.556 138.254C585.282 138.432 584.966 138.514 584.53 138.369C584.737 137.221 585.196 136.15 585.466 135.004C585.014 134.693 584.576 134.41 584.157 134.101C583.897 133.908 583.646 133.694 583.428 133.457C583.082 133.081 583.162 132.873 583.686 132.78C584.353 132.662 585.02 132.517 585.693 132.481C586.236 132.452 586.506 132.226 586.658 131.73C586.834 131.157 587.042 130.594 587.268 130.04C587.334 129.874 587.505 129.749 587.628 129.606C587.748 129.744 587.913 129.862 587.985 130.021C588.204 130.5 588.36 131.005 588.59 131.477C588.845 131.997 588.977 132.036 589.545 131.962C590.214 131.876 590.881 131.784 591.553 131.729C591.72 131.716 591.96 131.793 592.057 131.913C592.214 132.108 592.02 132.254 591.873 132.406C591.438 132.854 591.056 133.354 590.602 133.782C590.025 134.33 590.006 134.941 590.236 135.636C590.4 136.134 590.553 136.64 590.654 137.153C590.714 137.458 590.665 137.786 590.665 138.24Z" fill="white"/>
<path fill-rule="evenodd" clip-rule="evenodd" d="M113.621 275.079C112.473 274.47 111.349 273.874 110.191 273.26C109.587 273.799 109.011 274.316 108.43 274.826C108.186 275.04 107.943 275.266 107.667 275.436C107.527 275.523 107.318 275.502 107.139 275.53C107.123 275.367 107.055 275.188 107.102 275.046C107.298 274.426 107.533 273.819 107.745 273.204C107.899 272.759 108.039 272.308 108.206 271.807C107.485 271.356 106.806 270.932 106.014 270.438C106.286 270.287 106.418 270.164 106.563 270.144C107.206 270.054 107.853 269.971 108.501 269.928C108.837 269.906 109.067 269.803 109.218 269.494C109.514 268.886 109.821 268.284 110.134 267.686C110.243 267.479 110.378 267.287 110.577 266.968C111.254 267.951 111.511 268.975 111.947 269.927C113.038 269.926 114.126 269.474 115.297 269.952C114.506 270.932 113.425 271.362 112.545 272.166C112.966 272.914 113.362 273.662 113.803 274.382C113.985 274.679 114.01 274.874 113.621 275.079Z" fill="white"/>
<path fill-rule="evenodd" clip-rule="evenodd" d="M532.358 23.4346C531.819 23.1679 531.322 22.9226 530.822 22.6733C530.696 22.6106 530.56 22.5599 530.452 22.4733C530.371 22.4066 530.268 22.2826 530.279 22.1999C530.29 22.1146 530.419 22.0119 530.516 21.9799C531.123 21.7786 531.727 21.5546 532.348 21.4199C532.774 21.3279 533.016 21.1173 533.163 20.7333C533.399 20.1159 533.644 19.5026 533.891 18.8893C533.955 18.7306 534.046 18.5826 534.167 18.3386C534.33 18.5239 534.454 18.6199 534.516 18.7479C534.784 19.3053 535.084 19.8573 535.276 20.4426C535.42 20.8759 535.703 20.9626 536.071 21.0213C536.722 21.1279 537.368 21.2533 538.016 21.3706C538.076 21.3813 538.147 21.3799 538.191 21.4119C538.282 21.4759 538.415 21.5506 538.426 21.6346C538.438 21.7239 538.352 21.8639 538.268 21.9213C538.038 22.0799 537.779 22.1973 537.543 22.3479C537.158 22.5933 536.778 22.8506 536.362 23.1253C536.494 23.4626 536.623 23.7693 536.735 24.0839C536.888 24.5173 537.043 24.9519 537.17 25.3933C537.21 25.5279 537.162 25.6893 537.152 25.8386C536.987 25.8266 536.79 25.8679 536.66 25.7933C535.912 25.3666 535.18 24.9119 534.443 24.4666C534.376 24.4266 534.307 24.3879 534.167 24.3079C533.707 24.7266 533.235 25.1546 532.767 25.5826C532.546 25.7839 532.336 26.0026 532.102 26.1879C531.958 26.3013 531.826 26.5319 531.59 26.3799C531.35 26.2266 531.504 26.0239 531.563 25.8439C531.779 25.1773 532.003 24.5119 532.223 23.8466C532.262 23.7346 532.298 23.6213 532.358 23.4346Z" fill="white"/>
<path fill-rule="evenodd" clip-rule="evenodd" d="M253.003 478.71C252.086 478.223 251.186 477.744 250.261 477.255C249.777 477.684 249.315 478.099 248.853 478.507C248.654 478.679 248.462 478.858 248.242 478.995C248.129 479.066 247.962 479.048 247.818 479.071C247.806 478.94 247.753 478.796 247.789 478.682C247.946 478.187 248.133 477.7 248.303 477.21C248.426 476.852 248.539 476.494 248.673 476.092C248.094 475.732 247.551 475.392 246.918 474.996C247.137 474.876 247.241 474.779 247.358 474.762C247.873 474.688 248.389 474.624 248.907 474.588C249.175 474.571 249.361 474.49 249.482 474.24C249.717 473.755 249.965 473.274 250.214 472.794C250.301 472.628 250.41 472.476 250.569 472.222C251.11 473.008 251.315 473.826 251.665 474.587C252.537 474.586 253.407 474.226 254.345 474.608C253.711 475.392 252.847 475.736 252.143 476.379C252.479 476.978 252.797 477.575 253.149 478.151C253.295 478.39 253.315 478.546 253.003 478.71Z" fill="white"/>
<path fill-rule="evenodd" clip-rule="evenodd" d="M33.0662 356.657C29.7475 356.778 26.3209 353.847 26.2475 350.822C26.1489 346.722 29.0929 343.233 32.7715 342.985C37.0382 342.698 39.8689 346.427 39.9782 350.026C40.0969 353.911 37.2515 356.394 33.0662 356.657Z" fill="white"/>
<path fill-rule="evenodd" clip-rule="evenodd" d="M629.604 378.078C625.116 377.844 622.84 375.461 622.751 371.426C622.676 367.885 626.003 364.345 629.103 364.494C633.767 364.718 636.265 368.392 636.288 371.909C636.305 374.792 633.436 378.166 629.604 378.078Z" fill="white"/>
<path fill-rule="evenodd" clip-rule="evenodd" d="M506.488 256.518C506.496 259.548 504.96 261.058 502.759 262.043C499.275 263.604 495.239 261.948 493.291 259.15C492.409 257.886 492.365 256.339 492.831 254.862C493.672 252.186 495.633 250.451 498.235 249.93C500.72 249.431 503.06 250.415 504.764 252.406C505.852 253.676 506.729 255.102 506.488 256.518Z" fill="white"/>
<path fill-rule="evenodd" clip-rule="evenodd" d="M550.65 635.592C548.716 635.558 546.926 635.304 545.418 633.798C542.966 631.342 543.859 626.099 546.686 624.335C549.912 622.319 553.532 622.835 555.78 626.064C556.475 627.064 557.046 628.264 557.283 629.451C557.816 632.122 555.311 635.351 551.902 635.588C551.486 635.618 551.066 635.592 550.65 635.592Z" fill="white"/>
<path fill-rule="evenodd" clip-rule="evenodd" d="M335.832 15.1826C335.944 18.6253 333.118 21.4106 328.452 21.5133C325.053 21.5879 322.898 18.6093 322.873 15.3239C322.84 10.9359 325.768 9.25194 329.592 9.04794C333.616 8.83461 335.804 12.1493 335.832 15.1826Z" fill="white"/>
<path fill-rule="evenodd" clip-rule="evenodd" d="M170.651 620.96C169.415 620.588 168.095 620.384 166.959 619.812C163.384 618.009 163.432 613.125 166.155 610.708C167.336 609.657 168.749 609.005 170.292 608.7C171.649 608.429 172.996 608.64 173.932 609.692C174.829 610.701 175.601 611.857 176.253 613.044C177.921 616.088 175.289 621.233 170.651 620.96Z" fill="white"/>
<path fill-rule="evenodd" clip-rule="evenodd" d="M237.464 639.367C236.228 638.995 234.908 638.791 233.772 638.219C230.197 636.417 230.245 631.533 232.968 629.115C234.149 628.065 235.562 627.413 237.105 627.107C238.462 626.837 239.809 627.047 240.745 628.099C241.642 629.109 242.414 630.265 243.066 631.451C244.734 634.495 242.102 639.641 237.464 639.367Z" fill="white"/>
<path fill-rule="evenodd" clip-rule="evenodd" d="M10.2041 532.412C11.6481 532.468 13.4695 533.549 14.7401 535.374C15.7841 536.87 15.2095 538.533 14.4161 539.941C13.1455 542.202 10.0055 542.92 7.47079 541.7C5.07079 540.542 4.00813 537.92 4.91746 535.402C5.56546 533.608 7.34946 532.4 10.2041 532.412Z" fill="white"/>
<path fill-rule="evenodd" clip-rule="evenodd" d="M648.17 531.991C645.11 531.824 643.482 530.303 643.49 527.275C643.498 524.274 645.341 522.491 648.873 522.294C651.433 522.147 653.744 524.26 653.722 526.78C653.697 530.027 651.562 531.911 648.17 531.991Z" fill="white"/>
<path fill-rule="evenodd" clip-rule="evenodd" d="M296.256 415.193C295.344 414.971 294.399 414.837 293.527 414.507C291.637 413.797 290.431 411.714 290.728 409.865C290.996 408.203 293.264 405.835 295.092 406.029C296.467 406.171 297.789 406.242 299.001 407.007C300.755 408.119 301.553 409.881 301.119 411.679C300.685 413.485 298.613 415.283 296.831 415.034C296.656 415.01 296.475 415.031 296.295 415.031C296.283 415.085 296.269 415.138 296.256 415.193Z" fill="white"/>
<path fill-rule="evenodd" clip-rule="evenodd" d="M263.573 348.175C262.661 347.954 261.716 347.819 260.844 347.49C258.954 346.779 257.748 344.696 258.045 342.847C258.313 341.186 260.581 338.818 262.409 339.011C263.784 339.154 265.106 339.224 266.318 339.99C268.072 341.102 268.87 342.863 268.436 344.662C268.002 346.467 265.93 348.266 264.148 348.016C263.973 347.992 263.792 348.014 263.612 348.014C263.6 348.067 263.586 348.12 263.573 348.175Z" fill="white"/>
<path fill-rule="evenodd" clip-rule="evenodd" d="M116.418 19.5901C113.743 19.6248 112.084 18.0861 112.042 15.5328C111.998 12.8635 113.934 10.9328 116.646 10.9408C119.347 10.9488 121.415 12.8568 121.434 15.3661C121.446 17.1595 119.519 19.8875 116.418 19.5901Z" fill="white"/>
<path fill-rule="evenodd" clip-rule="evenodd" d="M179.907 322.495C178.552 322.47 177.3 322.294 176.246 321.239C174.53 319.52 175.155 315.85 177.134 314.614C179.391 313.204 181.926 313.564 183.498 315.826C183.986 316.524 184.383 317.364 184.55 318.195C184.926 320.066 183.17 322.326 180.784 322.492C180.492 322.512 180.199 322.495 179.907 322.495Z" fill="white"/>
<path fill-rule="evenodd" clip-rule="evenodd" d="M143.342 436.674C142.478 436.416 141.553 436.273 140.759 435.872C138.257 434.609 138.289 431.19 140.195 429.497C141.022 428.762 142.011 428.308 143.093 428.092C144.041 427.904 144.983 428.05 145.639 428.786C146.266 429.494 146.809 430.304 147.263 431.136C148.43 433.264 146.59 436.868 143.342 436.674Z" fill="white"/>
<path fill-rule="evenodd" clip-rule="evenodd" d="M591.809 360.057C589.669 359.94 588.529 358.875 588.535 356.755C588.539 354.653 589.83 353.407 592.301 353.267C594.094 353.167 595.711 354.644 595.697 356.409C595.678 358.683 594.183 360 591.809 360.057Z" fill="white"/>
<path fill-rule="evenodd" clip-rule="evenodd" d="M121.733 189.097C121.094 188.941 120.433 188.848 119.822 188.619C118.501 188.12 117.654 186.661 117.863 185.367C118.05 184.204 119.639 182.548 120.919 182.683C121.881 182.783 122.807 182.832 123.654 183.368C124.882 184.145 125.441 185.377 125.138 186.639C124.834 187.901 123.382 189.16 122.135 188.987C122.013 188.969 121.886 188.984 121.761 188.984C121.751 189.021 121.743 189.06 121.733 189.097Z" fill="white"/>
<path fill-rule="evenodd" clip-rule="evenodd" d="M630.558 259.243C628.685 259.267 627.525 258.19 627.493 256.403C627.464 254.534 628.818 253.183 630.717 253.187C632.608 253.194 634.056 254.53 634.069 256.286C634.077 257.542 632.728 259.451 630.558 259.243Z" fill="white"/>
<path fill-rule="evenodd" clip-rule="evenodd" d="M239.526 131.006C237.202 131.092 234.803 129.038 234.752 126.922C234.683 124.053 236.743 121.61 239.319 121.437C242.306 121.236 244.286 123.845 244.363 126.366C244.446 129.086 242.454 130.822 239.526 131.006Z" fill="white"/>
<path fill-rule="evenodd" clip-rule="evenodd" d="M505.303 504.75C505.31 506.871 504.232 507.927 502.694 508.617C500.254 509.711 497.43 508.553 496.064 506.591C495.448 505.709 495.418 504.625 495.743 503.591C496.331 501.718 497.707 500.502 499.526 500.138C501.266 499.789 502.904 500.478 504.098 501.87C504.859 502.761 505.472 503.758 505.303 504.75Z" fill="white"/>
<path fill-rule="evenodd" clip-rule="evenodd" d="M403.321 116.477C401.123 116.362 400.007 115.194 399.963 113.217C399.925 111.482 401.556 109.747 403.075 109.821C405.36 109.93 406.584 111.73 406.596 113.453C406.605 114.866 405.199 116.519 403.321 116.477Z" fill="white"/>
<path fill-rule="evenodd" clip-rule="evenodd" d="M431.484 605C430.537 604.983 429.66 604.86 428.92 604.122C427.72 602.918 428.157 600.348 429.543 599.483C431.123 598.496 432.897 598.75 433.999 600.332C434.34 600.822 434.619 601.411 434.735 601.991C434.996 603.302 433.769 604.883 432.097 604.999C431.895 605.012 431.688 605 431.484 605Z" fill="white"/>
<path fill-rule="evenodd" clip-rule="evenodd" d="M436.155 285.26C434.808 285.408 433.119 284.034 433.387 282.442C433.652 280.876 435.361 279.38 437.337 280.316C438.167 280.708 438.635 281.368 438.955 282.169C439.371 283.214 438.753 284.601 437.687 284.957C437.196 285.12 436.668 285.162 436.155 285.26Z" fill="white"/>
<path fill-rule="evenodd" clip-rule="evenodd" d="M273.41 586.719C274.117 586.747 275.009 587.276 275.631 588.171C276.145 588.904 275.862 589.718 275.474 590.408C274.85 591.516 273.311 591.867 272.07 591.27C270.894 590.702 270.374 589.418 270.819 588.184C271.137 587.306 272.011 586.712 273.41 586.719Z" fill="white"/>
<path fill-rule="evenodd" clip-rule="evenodd" d="M45.997 282.404C44.4983 282.322 43.6996 281.576 43.7036 280.093C43.7063 278.622 44.6103 277.749 46.3423 277.652C47.5956 277.58 48.7276 278.616 48.7183 279.85C48.705 281.441 47.6596 282.365 45.997 282.404Z" fill="white"/>
<path fill-rule="evenodd" clip-rule="evenodd" d="M4.73953 407.01C4.29287 406.901 3.82887 406.836 3.4022 406.674C2.47687 406.325 1.88487 405.305 2.03153 404.398C2.1622 403.585 3.27287 402.426 4.1702 402.52C4.8422 402.59 5.4902 402.624 6.08487 403C6.94353 403.544 7.3342 404.406 7.12353 405.289C6.9102 406.172 5.8942 407.054 5.02087 406.932C4.93553 406.921 4.84753 406.93 4.75953 406.93C4.7542 406.957 4.7462 406.984 4.73953 407.01Z" fill="white"/>
<path fill-rule="evenodd" clip-rule="evenodd" d="M95.027 637.715C93.7164 637.734 92.9017 636.978 92.8817 635.728C92.8604 634.419 93.8084 633.474 95.1377 633.478C96.4617 633.48 97.475 634.415 97.4844 635.644C97.491 636.524 96.5457 637.86 95.027 637.715Z" fill="white"/>
<path fill-rule="evenodd" clip-rule="evenodd" d="M345.311 208.413C345.313 209.898 344.561 210.637 343.483 211.119C341.776 211.885 339.797 211.074 338.841 209.702C338.412 209.083 338.389 208.325 338.617 207.602C339.029 206.29 339.991 205.439 341.265 205.185C342.483 204.941 343.629 205.422 344.464 206.397C344.999 207.021 345.428 207.718 345.311 208.413Z" fill="white"/>
<path fill-rule="evenodd" clip-rule="evenodd" d="M466.275 4.23858C464.964 4.25591 464.149 3.50124 464.129 2.25058C464.108 0.942577 465.056 -0.00275574 466.385 -8.90742e-05C467.709 0.00391093 468.723 0.938578 468.732 2.16791C468.739 3.04791 467.793 4.38391 466.275 4.23858Z" fill="white"/>
<path fill-rule="evenodd" clip-rule="evenodd" d="M517.829 396.266C517.384 396.156 516.92 396.091 516.493 395.93C515.566 395.58 514.974 394.56 515.121 393.654C515.252 392.84 516.362 391.682 517.26 391.775C517.933 391.846 518.581 391.879 519.176 392.255C520.034 392.799 520.425 393.662 520.213 394.544C520.001 395.427 518.984 396.31 518.11 396.187C518.025 396.176 517.937 396.186 517.85 396.186C517.844 396.212 517.837 396.239 517.829 396.266Z" fill="white"/>
<mask id="mask0_178_2123" style="mask-type:luminance" maskUnits="userSpaceOnUse" x="545" y="232" width="8" height="8">
<path d="M545.582 232.371H552.03V239.038H545.582V232.371Z" fill="white"/>
</mask>
<g mask="url(#mask0_178_2123)">
<g opacity="0.699997">
<path d="M548.806 239.038C553.106 239.038 553.106 232.371 548.806 232.371C544.506 232.371 544.506 239.038 548.806 239.038Z" fill="#2D2E83"/>
</g>
</g>
<mask id="mask1_178_2123" style="mask-type:luminance" maskUnits="userSpaceOnUse" x="84" y="498" width="8" height="8">
<path d="M84.9854 498.715H91.4333V505.382H84.9854V498.715Z" fill="white"/>
</mask>
<g mask="url(#mask1_178_2123)">
<g opacity="0.699997">
<path d="M88.2094 505.382C92.508 505.382 92.508 498.715 88.2094 498.715C83.9107 498.715 83.9107 505.382 88.2094 505.382Z" fill="#2D2E83"/>
</g>
</g>
<mask id="mask2_178_2123" style="mask-type:luminance" maskUnits="userSpaceOnUse" x="272" y="61" width="8" height="8">
<path d="M272.985 61.3817H279.433V68.0483H272.985V61.3817Z" fill="white"/>
</mask>
<g mask="url(#mask2_178_2123)">
<g opacity="0.699997">
<path d="M276.209 68.0483C280.508 68.0483 280.508 61.3817 276.209 61.3817C271.911 61.3817 271.911 68.0483 276.209 68.0483Z" fill="#2D2E83"/>
</g>
</g>
<mask id="mask3_178_2123" style="mask-type:luminance" maskUnits="userSpaceOnUse" x="559" y="536" width="8" height="7">
<path d="M559.652 536.048H566.1V542.715H559.652V536.048Z" fill="white"/>
</mask>
<g mask="url(#mask3_178_2123)">
<g opacity="0.699997">
<path d="M562.876 542.715C567.176 542.715 567.176 536.048 562.876 536.048C558.576 536.048 558.576 542.715 562.876 542.715Z" fill="#2D2E83"/>
</g>
</g>
<mask id="mask4_178_2123" style="mask-type:luminance" maskUnits="userSpaceOnUse" x="192" y="167" width="9" height="9">
<path d="M192.017 167.048H200.401V175.715H192.017V167.048Z" fill="white"/>
</mask>
<g mask="url(#mask4_178_2123)">
<g opacity="0.699997">
<path d="M196.209 175.715C201.797 175.715 201.797 167.048 196.209 167.048C190.621 167.048 190.621 175.715 196.209 175.715Z" fill="#2D2E83"/>
</g>
</g>
<mask id="mask5_178_2123" style="mask-type:luminance" maskUnits="userSpaceOnUse" x="414" y="479" width="10" height="9">
<path d="M414.684 479.048H423.068V487.715H414.684V479.048Z" fill="white"/>
</mask>
<g mask="url(#mask5_178_2123)">
<g opacity="0.699997">
<path d="M418.876 487.715C424.464 487.715 424.464 479.048 418.876 479.048C413.288 479.048 413.288 487.715 418.876 487.715Z" fill="#2D2E83"/>
</g>
</g>
<mask id="mask6_178_2123" style="mask-type:luminance" maskUnits="userSpaceOnUse" x="562" y="81" width="10" height="10">
<path d="M562.684 81.7152H571.068V90.3818H562.684V81.7152Z" fill="white"/>
</mask>
<g mask="url(#mask6_178_2123)">
<g opacity="0.699997">
<path d="M566.876 90.3818C572.464 90.3818 572.464 81.7152 566.876 81.7152C561.288 81.7152 561.288 90.3818 566.876 90.3818Z" fill="#2D2E83"/>
</g>
</g>
</g>
</svg>
