<svg width="654" height="672" viewBox="0 0 654 672" fill="none" xmlns="http://www.w3.org/2000/svg">
<g opacity="0.05">
<path fill-rule="evenodd" clip-rule="evenodd" d="M500.018 145.981C501.772 144.041 503.791 144.395 505.75 144.557C512.338 131.887 518.848 119.371 525.272 107.012C524.526 105.577 523.526 104.307 523.22 102.887C522.919 101.488 523.323 99.9375 523.439 98.0521C509.43 87.3041 497.542 73.7348 484.143 61.6308C481.695 63.6641 479.083 63.3708 476.588 62.7588C468.76 78.0361 461.044 93.0921 453.296 108.209C455.846 110.429 456.335 113.195 455.327 116.293C456.95 117.572 458.42 118.865 460.02 119.971C466.458 124.416 472.859 128.917 479.416 133.177C486.122 137.533 492.994 141.632 500.018 145.981ZM474.684 61.6561C474.182 60.7108 473.707 59.9001 473.307 59.0535C471.591 55.4321 473.64 51.5535 477.575 50.9348C482.735 50.1241 486.224 53.2015 485.999 58.4361C485.96 59.3761 486.138 60.0641 486.872 60.6721C493.455 66.1108 499.07 72.5495 505.206 78.4468C509.072 82.1628 513.143 85.6708 517.156 89.2335C519.57 91.3775 522.075 93.4201 524.49 95.5628C525.399 96.3695 526.242 96.5628 527.479 96.2948C528.934 95.9815 530.542 95.8748 531.99 96.1561C534.163 96.5775 535.6 98.0095 535.823 100.365C536.059 102.884 535.643 105.121 533.242 106.565C531.495 107.615 529.656 108.096 527.379 107.611C520.903 120.052 514.424 132.5 507.894 145.044C509.87 146.805 510.93 148.908 509.955 151.259C509.055 153.427 507.454 155.153 504.526 155.079C502.544 167.976 500.57 180.815 498.584 193.733C499.507 194.216 500.242 194.6 501.14 195.069C515.346 185.721 529.551 176.375 543.692 167.072C543.786 166.681 543.908 166.436 543.89 166.203C543.619 162.815 545.299 161.253 548.51 160.576C551.047 160.041 554.312 161.801 554.976 164.416C555.414 166.145 556.466 166.929 557.763 167.789C561.163 170.045 564.458 172.465 567.89 174.676C574.76 179.1 581.695 183.428 588.364 187.645C593.836 186.047 596.69 187.101 597.392 190.713C597.862 193.121 595.534 196.429 593.082 196.839C589.26 197.475 587.436 195.439 587.048 189.837C585.622 188.944 584.047 187.965 582.482 186.977C577.587 183.891 572.66 180.853 567.815 177.695C563.899 175.145 560.083 172.444 556.215 169.82C555.867 169.584 555.466 169.428 554.927 169.152C551.471 172.461 547.987 172.057 544.744 168.853C540.184 171.704 535.778 174.432 531.403 177.211C530.258 177.939 529.239 178.869 528.103 179.62C521.998 183.661 515.875 187.676 509.755 191.7C507.835 192.963 505.922 194.239 503.982 195.472C502.794 196.227 502.16 197.092 502.56 198.631C503.232 201.22 500.551 203.765 498.49 204.372C496.051 205.091 493.372 204.093 492.043 201.963C490.778 199.936 490.9 198.045 492.555 196.384C493.324 195.612 494.199 194.781 495.187 194.429C496.382 194.004 496.762 193.295 496.895 192.196C497.135 190.252 497.379 188.305 497.684 186.371C498.475 181.325 499.354 176.295 500.095 171.244C500.895 165.781 501.58 160.3 502.334 154.696C499.278 153.52 498.086 151.219 498.536 147.943C482.708 139.069 468.148 128.373 453.307 118.149C452.054 118.365 450.814 118.703 449.556 118.771C446.58 118.935 443.952 116.841 443.671 114.212C443.356 111.269 445.706 108.12 448.698 107.859C450.823 107.675 451.927 106.8 452.82 104.823C454.676 100.717 456.915 96.7855 458.991 92.7788C460.791 89.3015 462.582 85.8201 464.379 82.3441C466.299 78.6375 468.263 74.9535 470.127 71.2201C471.688 68.0975 473.135 64.9188 474.684 61.6561Z" fill="white"/>
<path fill-rule="evenodd" clip-rule="evenodd" d="M584.278 413.827C574.545 414.095 565.291 416.1 556.501 420.175C547.011 424.572 538.811 430.673 532.221 438.844C530.194 441.355 527.909 443.735 526.321 446.505C523.735 451.021 522.642 456.047 523.295 461.275C523.782 465.187 525.877 468.485 528.062 471.632C532.897 478.597 539.543 482.799 548.045 483.496C551.838 483.807 555.707 483.505 559.518 483.177C563.073 482.872 566.605 482.229 570.127 481.617C575.862 480.621 581.297 478.672 586.646 476.399C596.283 472.301 604.523 466.219 611.973 458.98C613.369 457.624 614.594 456.092 615.902 454.644C616.187 454.328 616.435 453.905 616.797 453.745C617.354 453.5 618.19 453.129 618.559 453.363C619.345 453.859 619.069 454.649 618.522 455.336C615.591 459.015 612.355 462.404 608.621 465.252C605.099 467.94 601.461 470.476 597.809 472.984C595.989 474.235 594.103 475.448 592.107 476.376C586.005 479.213 579.867 482.039 573.238 483.432C569.333 484.252 565.366 484.832 561.401 485.289C558.021 485.68 554.603 485.841 551.199 485.927C542.293 486.149 534.741 483.26 528.687 476.449C525.742 473.135 523.511 469.472 521.71 465.513C520.409 462.651 520.383 459.547 520.754 456.468C521.519 450.117 523.798 444.459 528.382 439.837C532.399 435.787 536.133 431.424 540.39 427.651C545.453 423.164 551.393 419.92 557.658 417.337C559.703 416.495 561.725 415.557 563.834 414.915C570.887 412.772 578.155 411.519 585.491 411.885C591.658 412.192 597.895 412.595 603.833 414.836C605.735 415.553 607.633 416.188 609.466 417.117C613.945 419.385 616.867 423.047 618.995 427.408C620.039 429.548 619.769 431.949 619.306 434.191C617.869 441.175 613.95 446.58 608.387 450.92C602.75 455.319 596.357 458.232 589.806 460.987C583.206 463.763 576.414 465.316 569.33 466.048C563.581 466.641 557.903 466.476 552.362 464.945C546.595 463.352 542.265 459.759 539.598 454.344C538.539 452.195 538.551 449.968 539.39 447.667C540.939 443.416 543.311 439.813 546.627 436.691C550.609 432.943 555.119 430.277 560.198 428.279C563.533 426.965 566.866 425.704 570.341 424.907C578.475 423.036 586.663 422.464 594.886 424.445C597.846 425.157 599.986 427.153 601.997 429.219C603.421 430.68 603.307 432.571 602.707 434.504C601.726 437.664 599.222 439.471 596.862 441.401C593.523 444.131 589.57 445.787 585.674 447.508C584.859 447.868 584.286 448.155 583.877 449.065C582.866 451.315 581.177 453.019 578.782 453.799C573.951 455.371 569.119 455.932 564.426 453.307C560.655 451.196 558.931 446.113 562.745 442.601C566.122 439.489 570.379 438.656 574.833 438.716C577.442 438.752 579.899 439.269 581.789 441.331C582.543 442.153 583.563 442.292 584.63 441.989C589.142 440.711 593.654 439.427 597.485 436.539C597.622 436.436 597.757 436.332 597.887 436.223C600.655 433.905 600.593 431.544 597.859 429.192C594.754 426.523 591.057 425.929 587.161 425.651C582.438 425.315 577.767 425.805 573.177 426.635C569.607 427.279 566.118 428.524 562.697 429.787C557.558 431.681 552.703 434.129 548.651 437.961C545.31 441.12 542.529 444.596 541.501 449.2C541.006 451.413 541.587 453.461 542.903 455.207C546.454 459.923 551.142 462.728 557.066 463.456C566.538 464.62 575.825 463.657 584.791 460.564C592.947 457.749 600.757 454.071 607.593 448.685C612.501 444.817 615.685 439.768 617.03 433.611C617.585 431.075 617.259 428.725 615.903 426.484C613.081 421.827 609.101 418.728 603.827 417.303C601.526 416.681 599.267 415.807 596.926 415.425C592.735 414.743 588.497 414.344 584.278 413.827Z" fill="white"/>
<path fill-rule="evenodd" clip-rule="evenodd" d="M312.823 651.833C313.709 651.979 314.499 652.007 315.21 652.257C315.804 652.466 316.182 652.345 316.656 652.01C320.826 649.066 325.1 646.259 329.157 643.166C331.007 641.756 332.965 640.554 334.878 639.264C336.158 638.401 337.482 637.605 338.756 636.736C339.037 636.544 339.272 636.199 339.392 635.873C339.704 635.029 339.939 634.155 340.261 633.106C337.086 629.216 333.475 625.425 331.366 620.858C330.152 620.7 329.141 620.746 328.282 620.41C327.426 620.076 326.72 619.358 325.857 618.743C320.187 620.661 314.403 622.617 308.665 624.556C308.457 625.283 308.383 626.098 307.999 626.722C307.617 627.341 306.922 627.769 306.308 628.333C308.154 636.171 309.565 644.212 312.823 651.833ZM374.611 625.827C373.075 627.782 367.82 636.134 366.769 638.934C367.517 639.469 367.988 640.185 368.154 641.157C368.479 643.071 367.449 644.487 365.51 644.644C363.166 644.832 362.083 644.124 361.066 641.859C360.914 641.522 360.499 641.196 360.136 641.078C358.718 640.615 357.275 640.224 355.836 639.829C352.585 638.938 349.329 638.058 346.064 637.172C346.034 637.183 345.97 637.187 345.946 637.219C344.347 639.433 342.716 639.237 340.815 638.059C340.069 637.597 339.577 637.673 338.872 638.145C336.788 639.539 334.637 640.833 332.511 642.165C332.144 642.395 331.758 642.597 331.409 642.851C328.516 644.945 325.632 647.053 322.741 649.148C321.258 650.222 319.76 651.274 318.276 652.345C317.853 652.652 317.454 652.992 317.078 653.289C317.646 655.534 317.249 656.934 315.874 657.723C314.48 658.524 312.374 658.087 311.11 656.735C310.246 655.812 310.351 654.43 311.408 652.612C310.689 650.44 309.875 648.317 309.287 646.133C308.058 641.568 306.947 636.971 305.791 632.386C305.59 631.591 305.342 630.802 305.228 629.994C305.062 628.817 304.653 628.052 303.369 627.624C301.832 627.112 301.381 625.547 302.033 624.051C302.808 622.27 304.327 621.51 305.989 622.156C306.648 622.413 307.237 622.854 308.11 623.357C313.848 621.436 319.784 619.449 325.665 617.481C326.745 614.86 328.711 613.681 330.652 614.43C332.633 615.195 333.349 617.408 332.359 619.831C334.262 623.155 336.337 626.398 338.947 629.275C339.723 630.132 340.457 631.03 341.179 631.934C341.631 632.498 342.093 632.804 342.896 632.709C344.238 632.55 345.116 633.462 345.609 634.509C346.061 635.468 346.698 635.865 347.638 636.11C351.186 637.038 354.723 638.002 358.258 638.975C359.092 639.205 359.908 639.509 360.722 639.808C361.277 640.011 361.734 640.024 362.112 639.47C362.658 638.67 363.491 638.432 364.397 638.498C365.224 638.559 365.717 638.304 366.085 637.502C368.124 633.057 371.036 629.13 373.597 624.924C372.983 623.617 372.652 622.219 373.755 620.957C374.603 619.987 375.747 619.453 377.01 619.971C378.682 620.657 379.861 621.806 379.596 623.701C383.286 625.961 386.864 628.151 390.442 630.341C390.73 630.518 391.049 630.656 391.305 630.869C392.304 631.703 393.239 632.237 394.686 631.651C395.893 631.162 397.639 632.351 398.241 633.56C399.062 635.207 397.496 637.322 395.887 637.386C394.35 637.446 392.681 636.659 392.414 634.269C392.332 633.527 392.051 633.105 391.55 632.743C390.847 632.235 390.104 631.78 389.364 631.325C386.57 629.609 383.774 627.896 380.969 626.197C380.476 625.898 379.951 625.64 379.417 625.423C379.174 625.325 378.85 625.301 378.601 625.373C377.961 625.561 377.358 625.94 376.713 626.019C376.062 626.099 375.378 625.909 374.611 625.827Z" fill="white"/>
<path fill-rule="evenodd" clip-rule="evenodd" d="M182.015 475.591C180.515 475.08 179.228 474.992 178.468 474.314C176.658 472.703 174.76 473.124 172.766 473.518C171.18 473.828 169.57 474.015 167.994 474.366C161.772 475.752 155.556 477.17 149.346 478.603C147.468 479.036 145.612 479.56 143.711 480.052C143.654 481.138 143.608 481.96 143.556 482.916C149.307 486.2 154.89 489.64 160.699 492.642C169.015 496.938 177.43 501.05 185.376 506.015C186.507 506.722 187.188 506.63 187.818 505.548C185.071 495.675 182.982 485.716 182.015 475.591ZM99.8897 544.963C107.9 538.215 117.111 533.219 124.96 526.506C123.004 521.127 124.49 518.274 129.812 516.826C131.427 507.11 133.726 497.506 134.598 487.666C134.68 486.747 134.58 486.154 133.778 485.49C131.822 483.864 131.512 480.083 132.95 477.727C134.09 475.855 136.723 475.172 139.338 476.067C139.419 476.095 139.512 476.107 139.576 476.156C142.179 478.23 144.936 477.348 147.743 476.687C155.034 474.971 162.342 473.323 169.654 471.692C171.64 471.25 173.663 470.966 175.771 470.592C176.546 467.648 177.25 464.61 181.2 464.618C183.622 464.622 186.539 466.304 187.294 468.144C188.134 470.187 187.196 472.539 184.468 475.12C184.674 477.424 184.675 479.831 185.136 482.147C186.498 488.986 188.05 495.786 189.51 502.606C189.882 504.35 190.447 505.624 192.583 506.027C194.999 506.482 195.879 508.023 195.719 510.255C195.512 513.115 194.184 514.968 191.947 515.382C189.367 515.859 187.182 515.003 185.59 512.987C185.075 512.335 184.892 511.247 184.93 510.374C184.979 509.142 184.424 508.542 183.479 507.946C175.742 503.082 167.502 499.172 159.375 495.042C155.586 493.116 152.006 490.779 148.34 488.612C146.292 487.4 144.263 486.156 142.482 485.082C140.566 485.771 138.9 486.367 137.247 486.96C135.531 496.99 133.799 507.119 132.064 517.255C132.696 517.679 133.198 517.99 133.67 518.338C135.624 519.771 136.387 522.036 135.75 524.47C135.267 526.311 133.43 527.786 131.211 528.034C130.452 528.119 129.626 528.23 128.922 528.022C127.307 527.547 126.234 528.282 125.034 529.196C122.26 531.314 119.376 533.287 116.539 535.322C111.835 538.691 107.114 542.039 102.452 545.468C101.931 545.852 101.567 546.678 101.456 547.351C101.203 548.906 101.151 550.494 100.984 552.462C109.839 558.831 117.631 567.058 125.854 574.684C130.982 573.33 133.026 573.702 134.462 576.194C135.532 578.051 135.151 581.04 133.644 582.618C132.22 584.106 128.371 584.627 126.444 583.592C123.552 582.038 123.135 580.811 124.17 576.576C123.348 575.868 122.411 575.139 121.567 574.315C119.866 572.654 118.242 570.912 116.539 569.255C114.526 567.298 112.526 565.318 110.406 563.483C107.122 560.646 103.736 557.928 100.403 555.15C99.2418 554.18 98.0124 553.614 96.4244 553.907C95.6978 554.043 94.8831 553.896 94.1444 553.73C91.2991 553.084 89.9444 551.116 90.3377 548.306C90.6604 545.991 93.2551 543.928 95.7084 544.168C97.0511 544.298 98.3751 544.667 99.8897 544.963Z" fill="white"/>
<path fill-rule="evenodd" clip-rule="evenodd" d="M111.427 103.303C111.156 103.155 111.008 102.999 110.869 103.009C103.891 103.485 96.0508 109.539 98.4482 118.42C99.5668 122.576 101.833 126.065 105.528 128.695C114.463 135.052 124.345 137.096 135.087 136.035C140.375 135.512 145.553 134.612 150.463 132.503C151.288 132.148 152.036 132.143 152.351 133.076C152.667 134.001 152.017 134.427 151.221 134.748C146.689 136.584 141.984 137.645 137.132 138.239C131.333 138.947 125.579 138.995 119.845 137.785C112.687 136.276 106.18 133.28 101 128.12C96.5668 123.709 94.3508 118.244 95.9842 111.812C96.9882 107.849 99.3988 104.732 102.593 102.373C106.405 99.5587 110.661 97.6227 115.563 97.5414C116.216 97.5307 116.932 97.348 117.508 97.036C122.596 94.2774 128.135 92.856 133.768 92.0147C137.957 91.388 142.252 91.488 146.427 92.6894C148.455 93.2734 149.148 92.8494 149.857 90.848C151.076 87.4067 149.336 82.1694 146.219 80.208C139.636 76.064 132.615 74.896 124.929 76.5374C116.341 78.372 109.511 83.08 103.113 88.7107C99.0402 92.2947 95.6175 96.452 93.0522 101.189C89.0628 108.552 87.8428 116.415 91.0175 124.337C92.9002 129.029 96.0522 133.036 100.719 135.515C102.523 136.472 104.336 137.411 106.133 138.379C106.709 138.688 107.249 139.061 107.888 139.457C107.164 140.733 106.268 141.127 105.06 140.636C99.5228 138.383 94.6242 135.347 91.2268 130.189C85.4188 121.381 85.5362 112.201 89.4868 102.884C92.6828 95.3467 98.0362 89.4627 104.411 84.3747C108.44 81.1587 112.613 78.1467 117.416 76.4147C123.824 74.1054 130.468 72.168 137.389 73.9147C142.192 75.1267 146.727 77.064 150.515 80.4427C154.265 83.788 155.631 87.9907 155.069 92.864C154.948 93.924 154.351 94.9294 154.027 95.8134C155.187 97.3974 156.372 98.9214 157.457 100.515C160.807 105.436 158.052 111.825 153.885 114.3C148.515 117.489 142.773 119.796 136.471 120.429C135.968 120.479 135.471 120.573 134.509 120.715C135.104 121.403 135.405 122.037 135.897 122.272C137.809 123.18 139.716 124.348 141.749 124.709C146.129 125.487 150.608 125.529 154.941 124.332C157.051 123.749 159.096 122.795 161.028 121.748C164.755 119.736 168.684 118.084 171.787 114.989C175.257 111.528 177.409 107.684 177.471 102.621C177.531 97.676 176.844 92.9534 174.768 88.464C172.952 84.536 170.548 81.048 166.769 78.7534C164.153 77.1654 161.471 75.688 158.777 74.236C155.481 72.4574 151.873 71.8494 148.187 71.7347C145.635 71.656 143.075 71.7654 140.519 71.7934C140.179 71.7974 139.801 71.92 139.509 71.8067C139.164 71.6734 138.703 71.3814 138.648 71.0894C138.593 70.8094 138.932 70.2334 139.207 70.1507C140.421 69.784 141.664 69.3894 142.919 69.2934C151.101 68.668 158.596 70.816 165.552 75.056C175.312 81.004 179.751 89.848 179.711 101.108C179.705 102.98 179.684 104.881 179.368 106.716C178.692 110.637 176.413 113.697 173.727 116.512C170.525 119.867 166.323 121.628 162.312 123.627C158.217 125.668 153.967 127.375 149.329 127.959C142.02 128.879 135.133 127.881 129.296 123.185C127.069 121.396 124.859 120.472 122.104 119.975C117.757 119.191 114.263 116.749 111.937 112.913C110.488 110.52 110.679 107.845 111.057 105.197C111.151 104.545 111.307 103.903 111.427 103.303Z" fill="white"/>
<path fill-rule="evenodd" clip-rule="evenodd" d="M81.4606 127.705C79.9526 126.921 79.5512 125.821 79.1272 124.705C76.4792 117.702 76.2526 110.569 78.0432 103.358C79.2832 98.3717 81.2552 93.6451 83.7606 89.1704C86.6539 84.0037 90.9006 80.0624 95.8219 76.8877C100.489 73.8771 105.518 71.5464 110.893 70.0931C112.343 69.7011 113.926 69.7464 115.447 69.7291C115.805 69.7264 116.166 70.2891 116.526 70.5917C116.174 71.0011 115.89 71.6531 115.461 71.7704C114.489 72.0357 113.413 71.9051 112.439 72.1638C104.135 74.3704 96.8072 78.3357 90.6006 84.3357C85.6926 89.0824 83.5539 95.2931 81.3699 101.486C79.3632 107.17 79.0446 112.986 80.1726 118.881C80.4272 120.209 80.8952 121.502 81.3406 122.786C81.8779 124.337 82.1979 125.865 81.4606 127.705Z" fill="white"/>
<path fill-rule="evenodd" clip-rule="evenodd" d="M189.902 101.707C189.531 111.771 185.122 119.617 176.874 125.346C176.327 125.726 175.7 126.099 175.064 126.207C174.606 126.283 174.071 125.911 173.57 125.739C173.78 125.257 173.856 124.541 174.223 124.323C177.61 122.334 180.223 119.53 182.396 116.358C186.974 109.679 188.384 102.437 186.148 94.5018C184.707 89.3952 182.182 84.9552 178.856 80.8992C178.374 80.3125 177.788 79.6992 177.619 79.0085C177.498 78.5112 177.859 77.7218 178.264 77.3458C178.471 77.1538 179.356 77.4632 179.755 77.7765C180.198 78.1258 180.416 78.7525 180.77 79.2298C182.039 80.9392 183.346 82.6218 184.595 84.3458C185.192 85.1712 185.838 86.0072 186.21 86.9378C188.114 91.6805 190.006 96.4378 189.902 101.707Z" fill="white"/>
<path fill-rule="evenodd" clip-rule="evenodd" d="M131.611 147.549C129.518 147.417 126.205 147.21 122.893 147.002C122.638 146.986 122.298 147.073 122.142 146.941C121.666 146.534 121.258 146.045 120.825 145.587C121.314 145.214 121.773 144.582 122.299 144.521C123.297 144.405 124.335 144.581 125.351 144.691C134.863 145.723 144.218 144.691 153.442 142.382C156.767 141.549 159.859 140.089 162.418 137.699C162.603 137.526 162.817 137.381 163.015 137.221C163.598 136.757 164.213 136.485 164.806 137.161C165.45 137.893 165.213 138.489 164.526 139.113C161.694 141.686 158.417 143.47 154.765 144.493C147.601 146.499 140.289 147.527 131.611 147.549Z" fill="white"/>
<path fill-rule="evenodd" clip-rule="evenodd" d="M141.019 61.6705C150.203 61.8371 156.859 63.0371 163.171 65.7985C165.182 66.6785 167.118 67.7318 169.103 68.6731C169.856 69.0305 170.632 69.4611 170.064 70.3571C169.512 71.2318 168.728 70.5958 168.028 70.3065C164.575 68.8851 161.182 67.2705 157.638 66.1251C147.599 62.8811 137.538 63.2171 127.536 66.4505C127.051 66.6078 126.53 66.6811 126.075 66.8985C125.279 67.2785 124.586 67.0358 124.475 66.2918C124.402 65.8038 124.858 64.9691 125.312 64.7238C126.192 64.2491 127.22 63.9731 128.22 63.7998C133.238 62.9318 138.268 62.1238 141.019 61.6705Z" fill="white"/>
<path fill-rule="evenodd" clip-rule="evenodd" d="M401.397 433.224C401.297 433.089 401.195 432.957 401.093 432.824C400.403 433.132 399.698 433.408 399.026 433.752C392.505 437.081 385.945 440.336 379.483 443.78C371.366 448.107 363.399 452.724 355.238 456.967C348.485 460.477 342.283 464.836 336.005 469.053C329.719 473.276 323.731 477.948 318.175 483.131C313.73 487.276 311.089 492.443 309.874 498.332C309.174 501.724 310.587 504.26 313.486 506.104C317.245 508.495 321.319 508.743 325.526 508.011C329.669 507.289 333.247 505.323 336.27 502.451C339.601 499.284 342.794 495.975 346.057 492.737C349.315 489.503 352.593 486.287 355.854 483.052C358.813 480.117 361.819 477.227 364.689 474.205C367.499 471.247 370.127 468.115 372.901 465.12C375.499 462.312 378.283 459.675 380.803 456.803C386.746 450.021 392.57 443.139 398.461 436.313C399.39 435.24 400.417 434.251 401.397 433.224ZM315.674 509.427C313.138 508.473 310.879 507.288 309.311 504.94C307.051 501.559 307.511 498.009 308.857 494.653C310.146 491.445 312.065 488.487 313.763 485.451C314.174 484.72 314.726 484.016 315.362 483.476C320.223 479.355 324.679 474.765 330.095 471.284C335.25 467.972 340.185 464.319 345.266 460.892C347.239 459.563 349.337 458.415 351.401 457.227C355.903 454.633 360.367 451.967 364.945 449.513C373.878 444.725 382.863 440.031 391.859 435.363C396.169 433.128 400.553 431.035 404.903 428.877C405.057 428.803 405.218 428.656 405.362 428.671C405.91 428.727 406.451 428.835 406.994 428.924C406.867 429.443 406.903 430.112 406.586 430.459C404.861 432.335 402.963 434.057 401.278 435.968C395.597 442.411 389.986 448.917 384.333 455.385C382.598 457.369 380.835 459.328 379.046 461.264C374.387 466.304 369.761 471.372 365.019 476.329C362.262 479.213 359.302 481.904 356.439 484.687C354.065 486.997 351.65 489.271 349.338 491.643C346.543 494.507 343.974 497.601 341.057 500.331C338.273 502.937 335.394 505.573 332.155 507.533C327.065 510.615 321.409 510.963 315.674 509.427Z" fill="white"/>
<path fill-rule="evenodd" clip-rule="evenodd" d="M337.625 479.784C342.455 481.352 343.818 484.313 342.081 488.287C340.341 492.263 337.517 495.44 334.195 498.168C332.619 499.461 330.991 500.743 329.222 501.735C325.873 503.612 322.419 504.423 318.914 501.907C316.771 500.368 315.909 498.289 316.026 495.756C316.206 491.891 318.13 488.815 320.706 486.131C323.787 482.919 327.591 480.896 331.911 479.859C334.102 479.332 336.293 479.404 337.625 479.784Z" fill="white"/>
<path fill-rule="evenodd" clip-rule="evenodd" d="M135.709 357.851C135.596 357.841 135.481 357.833 135.367 357.823C135.367 356.291 135.589 354.721 135.327 353.234C134.508 348.609 132.997 344.173 130.849 339.998C130.005 338.357 128.971 336.671 127.617 335.459C123.331 331.625 118.051 330.409 112.447 330.503C109.736 330.549 107.012 330.747 104.328 331.119C101.729 331.482 99.028 331.798 96.6294 332.77C91.8454 334.711 88.6321 338.469 86.5574 343.134C84.1014 348.655 83.8201 353.985 87.4187 359.361C90.1307 363.413 91.3281 368.037 89.9001 373.002C89.1467 375.619 88.384 378.239 87.792 380.895C87.464 382.366 87.0494 384.029 87.4187 385.403C88.5547 389.615 90.9667 393.005 95.2867 394.465C97.7667 395.302 100.356 395.982 102.948 396.285C106.383 396.686 109.793 396.923 113.271 395.673C118.727 393.713 123.747 391.194 127.861 387.051C129.611 385.291 131.041 383.39 131.94 380.971C133.293 377.321 133.727 373.526 134.292 369.75C134.884 365.801 135.247 361.818 135.709 357.851ZM137.312 357.203C137.047 360.062 136.905 362.018 136.675 363.961C136.32 366.921 135.856 369.867 135.521 372.83C135.119 376.409 134.365 379.942 132.824 383.157C131.785 385.325 130.161 387.318 128.448 389.039C124.227 393.278 119.08 395.979 113.364 397.799C109.627 398.99 105.945 398.595 102.229 398.283C98.9107 398.007 95.6747 397.338 92.7054 395.649C86.8974 392.337 84.2467 385.985 86.084 379.591C86.7187 377.382 87.3014 375.158 87.9347 372.949C89.1627 368.655 88.2854 364.702 86.0761 360.935C85.3014 359.614 84.5734 358.263 83.8987 356.89C81.9854 352.997 82.7134 349.045 83.828 345.151C85.368 339.778 88.7347 335.646 93.1867 332.426C96.0947 330.323 99.6134 329.799 103.081 329.367C106.123 328.99 109.185 328.518 112.235 328.545C117.841 328.594 123.333 329.523 127.791 333.275C129.508 334.722 131.045 336.583 132.115 338.554C133.564 341.226 134.785 344.105 135.549 347.041C136.484 350.629 136.844 354.367 137.312 357.203Z" fill="white"/>
<path fill-rule="evenodd" clip-rule="evenodd" d="M101.16 353.627C103.494 353.445 105.105 353.122 106.478 351.933C109.388 349.411 109.076 345.07 106.281 342.502C103.448 339.898 99.1543 340.015 96.809 342.925C96.0757 343.835 95.489 344.903 95.0103 345.975C93.7543 348.781 94.7623 351.458 97.5917 352.643C98.8957 353.191 100.338 353.409 101.16 353.627ZM101.66 355.879C100.122 355.453 98.5157 355.187 97.0583 354.57C92.9663 352.837 91.665 349.377 93.281 345.19C94.209 342.786 95.6637 340.961 97.981 339.723C101.285 337.963 104.985 338.606 107.641 341.067C109.972 343.226 111.102 347.289 110.044 349.942C108.592 353.575 105.665 355.566 101.66 355.879Z" fill="white"/>
<path fill-rule="evenodd" clip-rule="evenodd" d="M120.447 351.479C116.962 351.668 113.809 355.334 114.118 359.03C114.261 360.742 114.986 362.006 116.55 362.932C119.854 364.894 122.685 364.536 125.861 362.4C129.542 359.928 129.262 355.52 125.374 353.296C123.875 352.44 122.097 352.07 120.447 351.479ZM119.435 349.815C125.771 350.243 128.369 352.378 129.927 356.523C130.634 358.4 130.302 360.086 129.21 361.588C125.757 366.348 119.857 367.46 115.233 364.515C113.839 363.627 112.901 362.506 112.582 360.948C111.714 356.728 113.07 353.403 116.491 350.906C117.461 350.198 118.823 350.028 119.435 349.815Z" fill="white"/>
<path fill-rule="evenodd" clip-rule="evenodd" d="M101.814 387.877C102.881 387.637 103.981 387.497 105.008 387.14C106.812 386.513 108.384 384.017 108.142 382.367C107.688 379.239 104.182 376.443 101.268 376.88C97.6892 377.417 95.1452 380.677 95.7172 384.14C95.8278 384.815 96.2838 385.603 96.8265 386.005C98.2705 387.077 99.9145 387.771 101.814 387.877ZM101.7 374.885C105.204 374.841 108.504 377.439 109.678 380.859C110.572 383.456 109.65 386.413 106.998 388.219C105.673 389.123 103.874 389.481 102.236 389.724C101.114 389.892 99.8118 389.651 98.7438 389.215C96.6732 388.367 94.1532 387.787 93.9185 384.916C93.6612 381.764 93.9732 378.771 97.0038 376.811C98.5892 375.787 100.118 374.68 101.7 374.885Z" fill="white"/>
<path fill-rule="evenodd" clip-rule="evenodd" d="M119.209 379.254C120.117 379.13 120.549 379.115 120.956 379.007C122.298 378.65 123.172 377.428 123.174 375.951C123.177 374.659 122.641 374.008 120.904 373.751C119.948 373.61 118.929 373.932 117.937 373.96C116.893 373.992 115.945 374.29 115.942 375.427C115.94 376.268 116.208 377.336 116.765 377.898C117.481 378.619 118.605 378.94 119.209 379.254ZM119.702 381.196C116.1 381.235 113.504 378.498 114.053 375.236C114.346 373.495 115.289 372.344 116.977 371.702C119.493 370.743 121.694 371.559 123.686 372.93C125.202 373.971 125.544 376.039 124.854 377.779C123.966 380.018 122.232 381.17 119.702 381.196Z" fill="white"/>
<path fill-rule="evenodd" clip-rule="evenodd" d="M100.579 362.173C100.359 362.229 99.764 362.312 99.224 362.529C97.828 363.09 96.988 364.213 97.0334 365.36C97.0947 366.92 98.3387 367.185 99.4707 367.534C99.9507 367.682 100.465 367.776 100.965 367.784C103.033 367.817 104.803 366.408 104.752 364.81C104.707 363.356 102.953 362.138 100.579 362.173ZM100.856 370.208C99.256 369.516 97.624 369.013 96.22 368.144C94.8267 367.277 94.612 364.865 95.5054 363.268C97.4187 359.852 103.025 359.25 105.651 362.18C107.271 363.986 107.012 367.174 104.965 368.477C103.785 369.226 102.359 369.59 100.856 370.208Z" fill="white"/>
<path fill-rule="evenodd" clip-rule="evenodd" d="M117.6 338.849C116.756 339.464 115.672 339.902 115.174 340.706C114.564 341.69 114.989 342.849 115.901 343.662C116.937 344.586 119.876 344.568 120.91 343.664C122.113 342.612 122.165 341.174 120.834 340.234C119.98 339.633 118.88 339.38 117.6 338.849ZM118.025 346.298C116.625 346.164 114.777 346.005 113.742 343.997C112.829 342.222 112.821 340.352 113.994 338.982C115.292 337.469 116.772 336.442 118.905 337.409C119.438 337.65 120.073 337.656 120.628 337.865C122.674 338.629 123.953 340.696 123.644 342.669C123.362 344.477 121.558 346.076 119.533 346.293C119.197 346.329 118.853 346.298 118.025 346.298Z" fill="white"/>
<path fill-rule="evenodd" clip-rule="evenodd" d="M115.622 387.143C114.7 387.05 113.645 386.727 113.466 388.154C113.337 389.184 114.448 390.143 115.68 390.116C116.696 390.096 117.646 389.299 117.573 388.419C117.474 387.224 116.77 386.802 115.622 387.143ZM115.273 385.135C117.842 385.152 119.44 386.468 119.477 388.599C119.506 390.348 117.694 391.94 115.664 391.946C113.372 391.951 111.633 390.452 111.712 388.536C111.805 386.296 113.038 385.119 115.273 385.135Z" fill="white"/>
<path fill-rule="evenodd" clip-rule="evenodd" d="M296.199 105.612C296.57 108.423 296.529 111.246 297.358 113.78C299.474 120.251 303.329 125.243 309.883 128.095C319.349 132.215 328.933 132.704 338.53 129.322C348.573 125.78 352.921 117.606 354.249 107.638C355.023 101.834 353.413 96.2951 350.907 91.0871C349.229 87.5964 346.899 84.4697 343.511 82.4737C339.269 79.9724 334.514 78.9738 329.646 78.4458C325.626 78.0084 321.674 78.6604 317.709 79.0378C313.343 79.4524 309.43 81.2031 306.187 84.0311C299.671 89.7164 297.005 97.2644 296.199 105.612ZM324.977 134.024C317.709 133.523 310.95 131.66 304.897 127.726C299.487 124.21 296.469 119.038 295.291 112.694C294.605 108.976 294.115 105.284 294.906 101.547C295.239 99.9737 295.614 98.3791 296.233 96.9057C297.742 93.3137 298.774 89.4591 301.441 86.4524C306.171 81.1151 311.435 76.6844 319.061 76.4111C322.886 76.2751 326.709 76.0031 330.533 76.0018C335.797 75.9991 340.477 77.6844 344.775 80.8417C350.923 85.3591 353.95 91.5697 355.451 98.7804C356.718 104.859 356.353 110.84 353.866 116.512C350.086 125.132 343.899 131.035 334.278 132.64C331.186 133.155 328.078 133.566 324.977 134.024Z" fill="white"/>
<path fill-rule="evenodd" clip-rule="evenodd" d="M64.1489 218.092C63.2703 215.397 62.7945 212.614 61.5154 210.274C58.2512 204.3 53.5483 200.097 46.5824 198.493C36.5231 196.174 27.0113 197.446 18.1949 202.528C8.96968 207.847 6.19074 216.679 6.70893 226.722C7.00925 232.57 9.6061 237.72 13.022 242.382C15.311 245.506 18.1731 248.154 21.8691 249.497C26.4978 251.179 31.3549 251.291 36.2373 250.92C40.2695 250.614 44.0355 249.25 47.8649 248.154C52.0806 246.947 55.6076 244.51 58.2781 241.137C63.6439 234.355 64.8846 226.447 64.1489 218.092ZM30.659 195.425C37.8961 194.588 44.8814 195.183 51.5525 197.943C57.5138 200.41 61.4278 204.943 63.746 210.964C65.1012 214.493 66.2578 218.033 66.1642 221.852C66.1244 223.46 66.0478 225.096 65.7092 226.658C64.8825 230.465 64.5732 234.444 62.5016 237.888C58.8274 244 54.4629 249.319 47.0163 250.983C43.2804 251.817 39.572 252.784 35.8128 253.485C30.6381 254.45 25.7288 253.65 20.925 251.332C14.0543 248.016 9.94239 242.464 7.14712 235.65C4.78967 229.905 4.05447 223.958 5.4614 217.927C7.60045 208.761 12.6027 201.826 21.7679 198.487C24.7136 197.416 27.694 196.443 30.659 195.425Z" fill="white"/>
<path fill-rule="evenodd" clip-rule="evenodd" d="M327.839 97.906C332.046 97.5594 334.197 95.4767 334.841 91.7554C335.261 89.3327 333.879 87.1434 331.583 86.3207C327.983 85.0327 324.257 86.0247 321.922 89.01C321.434 89.6327 321.075 90.51 321.023 91.294C320.767 95.0967 323.69 97.878 327.839 97.906ZM327.807 99.9287C322.711 99.858 319.674 97.1554 319.151 92.1527C319.023 90.9114 319.478 89.4154 320.141 88.3234C322.349 84.678 328.767 82.7607 332.589 84.602C335.302 85.91 337.329 88.7274 336.667 92.2967C335.799 96.9834 332.223 99.6807 327.807 99.9287Z" fill="white"/>
<path fill-rule="evenodd" clip-rule="evenodd" d="M34.453 231.458C30.3808 232.568 28.6474 235.009 28.6952 238.785C28.7255 241.244 30.4841 243.144 32.8919 243.532C36.6668 244.14 40.149 242.483 41.8981 239.121C42.2639 238.419 42.456 237.491 42.3637 236.711C41.9196 232.926 38.5374 230.726 34.453 231.458ZM34.1144 229.463C39.1373 228.6 42.6178 230.702 44.047 235.524C44.3999 236.721 44.2267 238.275 43.775 239.47C42.2712 243.458 36.3117 246.517 32.218 245.406C29.3111 244.616 26.8032 242.217 26.8003 238.587C26.7962 233.821 29.8183 230.515 34.1144 229.463Z" fill="white"/>
<path fill-rule="evenodd" clip-rule="evenodd" d="M341.503 106.719C341.729 105.511 341.127 104.647 340.035 103.876C337.113 101.812 333.057 102.732 331.375 105.931C330.475 107.643 330.651 108.862 332.303 109.858C333.432 110.539 334.771 111.096 336.068 111.239C339.079 111.574 341.411 109.566 341.503 106.719ZM343.213 106.708C343.151 112.047 339.492 113.034 335.777 113.147C334.951 113.171 334.1 112.903 333.283 112.684C329.551 111.684 328.115 108.359 329.915 104.938C331.947 101.067 337.193 99.7603 340.856 102.158C342.572 103.28 343.576 104.684 343.213 106.708Z" fill="white"/>
<path fill-rule="evenodd" clip-rule="evenodd" d="M19.4083 225.293C19.4065 226.522 20.1571 227.262 21.3716 227.82C24.6213 229.314 28.4405 227.668 29.5095 224.215C30.0811 222.367 29.6851 221.201 27.8788 220.524C26.6438 220.061 25.2258 219.758 23.9242 219.855C20.9032 220.077 18.9779 222.478 19.4083 225.293ZM17.7285 225.617C16.8133 220.357 20.2297 218.717 23.8609 217.926C24.6692 217.752 25.5546 217.859 26.3981 217.925C30.2501 218.225 32.2703 221.232 31.1266 224.925C29.8371 229.102 24.9181 231.346 20.8786 229.659C18.9862 228.87 17.7422 227.673 17.7285 225.617Z" fill="white"/>
<path fill-rule="evenodd" clip-rule="evenodd" d="M343.716 97.9044C345.552 97.8951 346.996 96.9844 347.356 95.9338C347.749 94.7911 347.096 93.9191 346.369 93.2351C344.992 91.9364 342.448 91.9871 340.939 93.2058C339.493 94.3738 339.459 95.6844 341.021 96.7124C341.984 97.3458 343.155 97.6644 343.716 97.9044ZM343.615 90.6391C345.469 90.7204 347.159 91.0044 348.253 92.5351C349.303 94.0018 349.695 95.5924 348.719 97.3004C347.565 99.3204 345.632 100.116 343.552 99.8538C342.039 99.6631 340.432 98.8911 339.223 97.9298C337.204 96.3258 337.433 93.6138 339.465 91.9951C340.703 91.0071 342.12 90.4991 343.615 90.6391Z" fill="white"/>
<path fill-rule="evenodd" clip-rule="evenodd" d="M18.8448 234.364C17.0415 234.709 15.7885 235.869 15.6268 236.968C15.4492 238.163 16.251 238.901 17.0906 239.44C18.6823 240.465 21.1741 239.95 22.4349 238.475C23.6422 237.063 23.4364 235.768 21.7121 235.043C20.6498 234.597 19.4406 234.497 18.8448 234.364ZM20.2737 241.488C18.4355 241.748 16.7227 241.778 15.3664 240.473C14.0665 239.223 13.3901 237.731 14.0371 235.873C14.8014 233.676 16.5564 232.54 18.6494 232.418C20.1721 232.328 21.8928 232.793 23.2577 233.517C25.5357 234.725 25.8064 237.433 24.1049 239.396C23.0692 240.594 21.7688 241.353 20.2737 241.488Z" fill="white"/>
<path fill-rule="evenodd" clip-rule="evenodd" d="M481.33 360.603C483.398 360.415 485.765 360.527 487.945 359.936C492.595 358.675 496.778 356.372 500.251 352.971C501.33 351.913 502.354 350.705 503.062 349.385C505.341 345.132 506.338 340.636 505.046 335.831C504.647 334.351 504.341 332.847 503.913 331.375C503.223 329.011 503.367 326.656 503.882 324.299C504.174 322.971 504.546 321.66 504.851 320.335C505.817 316.128 505.635 312.229 502.991 308.444C500.801 305.308 498.114 303.352 494.469 302.495C490.986 301.677 487.505 301.06 483.911 300.807C479.851 300.519 475.959 300.729 472.118 302.096C467.351 303.792 463.235 306.443 460.211 310.513C457.609 314.016 456.645 317.989 457.753 322.333C458.419 324.947 459.781 327.159 461.447 329.252C465.689 334.58 467.629 340.477 466.091 347.369C465.685 349.197 465.794 351.333 466.318 353.139C467.578 357.477 471.122 359.348 475.243 360.156C477.147 360.531 479.139 360.459 481.33 360.603ZM480.421 362.867C477.586 362.352 474.691 362.049 471.935 361.265C468.981 360.424 466.642 358.469 465.171 355.74C464.021 353.604 463.886 351.187 463.945 348.792C463.961 348.197 464.046 347.595 464.191 347.02C465.759 340.869 463.761 335.672 460.078 330.825C457.969 328.052 455.897 325.221 455.499 321.545C455.081 317.673 455.849 314.096 457.903 310.819C462.773 303.045 470.242 299.879 478.973 298.505C484.187 297.685 488.893 299.344 493.783 300.263C494.778 300.449 495.726 300.887 496.713 301.135C502.051 302.472 504.45 306.74 506.442 311.211C507.759 314.168 507.226 317.408 506.713 320.524C506.494 321.861 506.031 323.161 505.682 324.477C505.075 326.748 505.074 329.02 505.642 331.3C506.054 332.953 506.389 334.625 506.825 336.271C508.078 341.005 506.707 345.357 504.95 349.664C503.237 353.861 499.679 356.271 496.095 358.565C491.361 361.595 486.077 362.741 480.421 362.867Z" fill="white"/>
<path fill-rule="evenodd" clip-rule="evenodd" d="M473.138 325.182C474.219 324.997 475.312 324.865 476.38 324.618C478.862 324.044 480.339 322.453 480.835 319.972C481.556 316.354 479.542 312.454 476.247 311.613C471.87 310.493 468.43 311.54 466.492 315.373C465.463 317.409 464.846 319.756 466.51 321.868C468.171 323.974 470.323 325.213 473.138 325.182ZM482.823 318.897C482.695 323.17 479.927 326.122 475.706 326.81C471.432 327.508 467.731 326.729 465.056 323.116C464.39 322.217 463.9 320.992 463.828 319.885C463.338 312.341 469.95 307.592 476.832 309.769C480.832 311.034 482.892 314.67 482.823 318.897Z" fill="white"/>
<path fill-rule="evenodd" clip-rule="evenodd" d="M497.222 345.25C497.254 341.335 492.674 338.432 488.917 340.023C487.145 340.774 485.762 342.034 484.762 343.674C483.911 345.074 484.054 346.826 485.045 347.944C486.929 350.07 490.618 351.072 493.225 350.055C494.939 349.384 497.587 347.182 497.222 345.25ZM490.627 352.431C487.845 352.252 485.417 351.13 483.447 349.124C482.221 347.875 482.051 346.236 482.486 344.591C483.479 340.838 487.878 336.56 493.595 338.012C496.775 338.819 499.589 343.047 499.106 346.252C498.742 348.671 495.515 351.695 492.715 352.206C492.05 352.328 491.366 352.354 490.627 352.431Z" fill="white"/>
<path fill-rule="evenodd" clip-rule="evenodd" d="M494.102 309.562C493.406 309.496 493.153 309.456 492.901 309.451C490.764 309.412 489.277 310.715 488.71 313.115C488.214 315.21 488.806 316.347 490.836 317.427C492.525 318.327 494.301 318.28 496.038 317.844C498.069 317.335 499.292 314.832 498.694 312.826C497.942 310.3 496.15 309.383 494.102 309.562ZM493.72 320.116C493.278 320.08 492.765 320.07 492.26 319.998C489.434 319.594 487.344 317.878 486.874 315.604C486.292 312.764 487.721 309.502 490.146 308.132C493.584 306.192 498.934 308.064 500.249 311.668C501.697 315.631 499.494 319.367 495.32 320.007C494.817 320.086 494.298 320.079 493.72 320.116Z" fill="white"/>
<path fill-rule="evenodd" clip-rule="evenodd" d="M475.106 332.112C473.205 332.339 471.666 333.368 471.101 334.995C470.657 336.273 471.006 337.571 472.145 338.393C473.836 339.613 475.786 339.951 477.716 339.297C478.973 338.872 480.08 338.013 480.26 336.407C480.434 334.831 479.461 334.031 478.336 333.413C477.325 332.86 476.188 332.536 475.106 332.112ZM475.724 341.951C474.177 341.341 472.53 340.904 471.108 340.081C468.669 338.672 468.501 335.013 469.968 333.159C473.09 329.213 478.777 329.424 481.372 333.716C483.158 336.669 481.076 340.743 477.382 341.485C476.888 341.585 476.37 341.577 475.864 341.619L475.724 341.951Z" fill="white"/>
<path fill-rule="evenodd" clip-rule="evenodd" d="M490.692 332.448C491.916 332.401 493.067 331.465 493.004 330.568C492.931 329.516 491.941 328.789 490.617 328.809C489.059 328.836 488.02 329.581 488.059 330.643C488.099 331.685 489.289 332.503 490.692 332.448ZM490.476 334.364C488.145 334.32 486.024 332.569 485.987 330.656C485.951 328.852 488.395 326.576 490.261 326.679C492.895 326.823 494.809 328.607 494.803 330.909C494.797 332.743 492.715 334.407 490.476 334.364Z" fill="white"/>
<path fill-rule="evenodd" clip-rule="evenodd" d="M475.963 349.13C474.596 349.082 474.051 349.562 474.026 350.839C474.002 352.013 474.416 352.381 475.77 352.39C477.179 352.403 478.166 351.715 478.166 350.723C478.163 349.794 477.31 349.177 475.963 349.13ZM475.783 354.315C473.188 354.31 472.176 353.327 472.166 350.81C472.159 348.825 473.747 347.198 475.676 347.211C478.179 347.226 480.08 348.818 480.052 350.873C480.027 352.827 478.174 354.322 475.783 354.315Z" fill="white"/>
<path fill-rule="evenodd" clip-rule="evenodd" d="M484.632 551.112C483.26 553.884 481.663 556.423 479.168 557.92C476.69 559.408 473.838 560.269 471.11 561.42C472.596 564.196 473.096 567.241 472.464 570.275C471.836 573.291 470.699 576.197 469.726 579.344C477.214 579.679 480.108 585.369 482.875 591.299C486.958 584.236 493.154 581.467 504.679 582.269C504.804 573.683 506.211 570.709 511.26 565.597C511.456 565.399 511.496 565.048 511.648 564.68C504.855 563.24 502.304 558.565 501.711 552.337C495.827 555.173 490.091 556.532 484.632 551.112ZM503.796 548.405C503.796 550.008 503.815 550.92 503.794 551.832C503.714 555.22 504.526 558.295 507.244 560.517C508.19 561.289 509.408 561.803 510.583 562.196C511.93 562.648 513.372 562.816 514.572 563.7C514.424 565.245 513.502 566.136 512.648 567.067C511.499 568.316 510.252 569.492 509.226 570.837C507.406 573.225 506.923 576.103 506.635 579.001C506.468 580.689 506.916 582.228 508.238 583.371C508.83 583.884 509.19 584.428 508.744 585.121C508.26 585.875 507.602 585.463 506.935 585.263C501.807 583.732 496.758 583.78 491.708 585.796C488.507 587.072 486.231 589.151 484.812 592.241C484.528 592.86 484.31 593.516 483.959 594.093C483.723 594.484 483.232 595.088 482.994 595.029C482.523 594.916 481.984 594.488 481.766 594.047C481.206 592.907 480.718 591.712 480.354 590.493C479.515 587.688 477.643 585.584 475.679 583.576C474.096 581.956 471.922 581.677 469.78 581.509C468.782 581.431 467.772 581.496 466.966 581.496C466.14 580.324 466.547 579.671 467.078 578.916C468.656 576.677 469.742 574.225 470.471 571.551C471.108 569.217 471.018 566.973 470.338 564.775C469.984 563.632 469.091 562.625 468.327 561.645C467.887 561.081 467.218 560.693 466.218 559.865C467.326 559.483 467.958 559.176 468.624 559.053C470.291 558.747 471.984 558.583 473.646 558.255C477.935 557.413 480.7 554.628 482.57 550.887C483.08 549.865 483.038 548.581 483.356 547.448C483.474 547.039 483.908 546.72 484.198 546.361C484.555 546.663 485.036 546.897 485.248 547.281C485.695 548.084 485.88 549.045 486.382 549.803C488.115 552.411 490.864 552.789 493.635 552.648C496.466 552.504 499.194 551.817 501.387 549.767C501.898 549.291 502.628 549.052 503.796 548.405Z" fill="white"/>
<path fill-rule="evenodd" clip-rule="evenodd" d="M487.744 576.473C483.618 576.483 481.187 574.994 480.176 571.937C479.032 568.474 480.502 564.25 483.278 562.722C484.8 561.885 485.911 560.287 487.96 560.434C490.447 560.611 492.856 560.921 494.948 562.45C498.884 565.331 499.034 570.979 495.244 573.986C493.008 575.759 490.4 576.362 487.744 576.473Z" fill="white"/>
<path fill-rule="evenodd" clip-rule="evenodd" d="M620.555 36.6338C623.137 34.8738 625.275 33.3565 627.474 31.9325C629.903 30.3605 632.369 28.8418 634.859 27.3685C635.855 26.7791 636.971 26.1245 638.131 27.6231C636.261 30.1058 633.437 31.2031 630.999 32.8031C628.606 34.3738 626.198 35.9218 623.869 37.9405C625.421 38.0431 626.971 38.2005 628.526 38.2391C632.359 38.3338 636.194 38.3365 640.026 38.4525C641.907 38.5085 642.018 38.7151 642.273 41.3005C636.427 41.5565 630.607 40.6365 624.513 41.1138C624.978 41.6071 625.306 42.0245 625.701 42.3605C628.302 44.5645 630.874 46.8018 633.546 48.9165C634.599 49.7498 635.082 50.6418 634.878 52.0071C633.833 52.6525 633.063 52.0071 632.353 51.4565C629.794 49.4751 627.279 47.4365 624.727 45.4471C623.417 44.4258 622.062 43.4618 620.179 42.0645C620.179 44.5898 620.266 46.4405 620.161 48.2818C619.943 52.1058 619.625 55.9231 619.346 59.7445C619.322 60.0818 619.407 60.4925 619.247 60.7432C618.998 61.1312 618.591 61.6525 618.233 61.6698C617.843 61.6885 617.187 61.2631 617.081 60.9031C616.847 60.1165 616.787 59.2445 616.837 58.4165C617.147 53.3178 617.513 48.2218 617.847 43.1245C617.874 42.7258 617.815 42.3231 617.782 41.5898C615.189 43.1725 612.786 44.5618 610.462 46.0738C606.822 48.4405 603.238 50.8898 599.63 53.3045C599.489 53.3991 599.335 53.5872 599.207 53.5725C598.597 53.4978 597.786 53.5738 597.431 53.2151C596.867 52.6418 597.257 51.9791 597.903 51.5218C599.431 50.4391 600.917 49.2925 602.47 48.2458C605.153 46.4378 607.877 44.6898 610.579 42.9058C610.838 42.7351 611.055 42.5018 611.711 41.9365C608.725 41.9365 606.223 41.9431 603.722 41.9325C602.869 41.9285 602.014 41.9245 601.169 41.8365C600.23 41.7405 599.215 41.5965 599.105 40.3778C599.019 39.4178 599.805 38.9458 601.317 38.9365C605.153 38.9085 608.987 38.8845 612.822 38.8565C613.246 38.8525 613.669 38.8205 614.526 38.7831C613.865 38.2285 613.509 37.8458 613.079 37.5791C609.898 35.6058 606.701 33.6551 603.511 31.6938C603.222 31.5165 602.809 31.3738 602.694 31.1098C602.453 30.5551 602.073 29.7298 602.302 29.3871C602.566 28.9938 603.583 28.6858 604.006 28.8911C605.839 29.7818 607.593 30.8431 609.341 31.9005C612.095 33.5685 614.822 35.2831 617.747 37.0925C617.983 36.4911 618.189 36.2098 618.194 35.9231C618.29 31.4991 618.355 27.0751 618.441 22.6498C618.449 22.2378 618.43 21.7485 618.639 21.4391C618.846 21.1338 619.335 20.8351 619.677 20.8605C619.983 20.8831 620.466 21.3165 620.511 21.6231C620.687 22.7965 620.807 23.9938 620.783 25.1791C620.719 28.2445 620.559 31.3071 620.457 34.3725C620.437 34.9485 620.503 35.5258 620.555 36.6338Z" fill="white"/>
<path fill-rule="evenodd" clip-rule="evenodd" d="M352.184 337.774C354.765 336.014 356.904 334.497 359.102 333.073C361.532 331.501 363.997 329.982 366.488 328.509C367.484 327.92 368.6 327.265 369.76 328.764C367.889 331.246 365.065 332.344 362.628 333.944C360.234 335.514 357.826 337.062 355.497 339.081C357.049 339.184 358.6 339.341 360.154 339.38C363.988 339.474 367.822 339.477 371.654 339.593C373.536 339.649 373.646 339.856 373.901 342.441C368.056 342.697 362.236 341.777 356.141 342.254C356.606 342.748 356.934 343.165 357.329 343.501C359.93 345.705 362.502 347.942 365.174 350.057C366.228 350.89 366.71 351.782 366.506 353.148C365.461 353.793 364.692 353.148 363.981 352.597C361.422 350.616 358.908 348.577 356.356 346.588C355.045 345.566 353.69 344.602 351.808 343.205C351.808 345.73 351.894 347.581 351.789 349.422C351.572 353.246 351.253 357.064 350.974 360.885C350.95 361.222 351.036 361.633 350.876 361.884C350.626 362.272 350.22 362.793 349.861 362.81C349.472 362.829 348.816 362.404 348.709 362.044C348.476 361.257 348.416 360.385 348.465 359.557C348.776 354.458 349.141 349.362 349.476 344.265C349.502 343.866 349.444 343.464 349.41 342.73C346.817 344.313 344.414 345.702 342.09 347.214C338.45 349.581 334.866 352.03 331.258 354.445C331.117 354.54 330.964 354.728 330.836 354.713C330.225 354.638 329.414 354.714 329.06 354.356C328.496 353.782 328.885 353.12 329.532 352.662C331.06 351.58 332.545 350.433 334.098 349.386C336.781 347.578 339.505 345.83 342.208 344.046C342.466 343.876 342.684 343.642 343.34 343.077C340.353 343.077 337.852 343.084 335.35 343.073C334.497 343.069 333.642 343.065 332.797 342.977C331.858 342.881 330.844 342.737 330.733 341.518C330.648 340.558 331.433 340.086 332.945 340.077C336.781 340.049 340.616 340.025 344.45 339.997C344.874 339.993 345.297 339.961 346.154 339.924C345.493 339.369 345.137 338.986 344.708 338.72C341.526 336.746 338.329 334.796 335.14 332.834C334.85 332.657 334.437 332.514 334.322 332.25C334.081 331.696 333.701 330.87 333.93 330.528C334.194 330.134 335.212 329.826 335.634 330.032C337.468 330.922 339.221 331.984 340.969 333.041C343.724 334.709 346.45 336.424 349.376 338.233C349.612 337.632 349.817 337.35 349.822 337.064C349.918 332.64 349.984 328.216 350.069 323.79C350.077 323.378 350.058 322.889 350.268 322.58C350.474 322.274 350.964 321.976 351.305 322.001C351.612 322.024 352.094 322.457 352.14 322.764C352.316 323.937 352.436 325.134 352.412 326.32C352.348 329.385 352.188 332.448 352.085 335.513C352.065 336.089 352.132 336.666 352.184 337.774Z" fill="white"/>
<path fill-rule="evenodd" clip-rule="evenodd" d="M190.484 212.64C191.88 218.803 191.657 224.923 191.687 231.431C192.836 230.837 193.66 230.459 194.44 230.003C198.631 227.552 202.812 225.081 206.997 222.617C207.219 222.488 207.456 222.385 207.669 222.244C208.401 221.755 209.169 221.251 209.932 222.104C210.509 222.749 210.069 223.811 208.85 224.547C204.547 227.149 200.219 229.709 195.896 232.28C194.877 232.884 193.841 233.463 192.427 234.275C194.789 235.529 196.841 236.617 198.891 237.709C201.448 239.071 204.007 240.431 206.556 241.807C207.003 242.047 207.515 242.285 207.801 242.671C208.057 243.016 208.235 243.635 208.095 243.997C207.951 244.371 207.356 244.851 207.009 244.813C206.193 244.725 205.355 244.461 204.623 244.084C201.06 242.251 197.531 240.352 193.987 238.488C193.393 238.177 192.773 237.923 191.789 237.471C191.635 239.592 191.353 241.489 191.391 243.381C191.457 246.955 191.711 250.524 191.88 254.095C191.896 254.431 191.992 254.847 191.839 255.089C191.549 255.545 191.131 256.181 190.719 256.221C190.313 256.259 189.612 255.729 189.46 255.301C189.185 254.523 189.151 253.635 189.141 252.789C189.088 248.017 189.073 243.245 189.036 238.473C189.031 237.972 188.957 237.471 188.896 236.719C188.253 236.989 187.711 237.133 187.257 237.421C182.52 240.448 177.801 243.505 173.064 246.529C172.427 246.936 171.727 247.375 171.011 247.475C170.593 247.533 169.932 247.045 169.675 246.624C169.515 246.363 169.805 245.675 170.088 245.343C170.4 244.973 170.943 244.803 171.369 244.524C176.289 241.319 181.205 238.109 186.273 234.801C182.513 232.621 178.913 230.532 175.312 228.444C174.577 228.017 173.745 227.692 173.14 227.124C172.729 226.74 172.315 225.904 172.465 225.465C172.793 224.521 173.689 224.371 174.577 224.845C176.383 225.807 178.175 226.791 179.96 227.78C182.853 229.38 185.739 230.992 188.875 232.735C189.476 228.811 189.235 225.267 189.085 221.737C188.987 219.357 188.647 216.988 188.413 214.613C188.257 213.032 188.256 213.032 190.484 212.64Z" fill="white"/>
<path fill-rule="evenodd" clip-rule="evenodd" d="M616.844 585.434C620.382 587.608 623.805 589.682 627.192 591.804C628.198 592.436 629.194 593.128 630.038 593.955C630.557 594.464 630.781 595.278 631.145 595.964C629.681 596.958 628.802 596.33 627.849 595.707C624.926 593.795 621.972 591.931 619.016 590.067C618.232 589.572 617.404 589.147 616.362 588.556C616.226 589.324 616.098 589.858 616.041 590.398C615.529 595.3 615.026 600.204 614.522 605.108C614.496 605.363 614.586 605.712 614.45 605.856C614.038 606.299 613.541 606.666 613.078 607.062C612.692 606.572 612.096 606.128 611.974 605.582C611.833 604.964 612.1 604.248 612.224 603.582C613.19 598.384 613.37 593.128 613.544 587.608C612.86 587.822 612.357 587.866 611.992 588.111C607.196 591.346 602.432 594.628 597.617 597.838C597.048 598.218 596.108 598.53 595.562 598.314C595.076 598.119 594.896 597.15 594.505 596.371C600.114 592.658 605.494 589.096 611.074 585.404C610.508 584.944 610.104 584.564 609.65 584.254C606.281 581.946 602.894 579.659 599.533 577.338C599.05 577.007 598.542 576.594 598.281 576.095C598.084 575.719 598.081 575.004 598.32 574.699C598.557 574.398 599.266 574.227 599.665 574.346C600.294 574.532 600.844 574.999 601.41 575.37C605.112 577.795 608.808 580.232 612.513 582.65C612.844 582.866 613.237 582.98 613.946 583.296C614.138 579.376 614.337 575.75 614.484 572.122C614.549 570.504 614.521 568.882 614.521 567.262C614.52 566.376 614.86 565.706 615.8 565.69C616.798 565.674 617.056 566.436 617.036 567.276C616.948 570.85 616.853 574.424 616.726 577.999C616.685 579.142 616.537 580.282 616.393 581.915C617.794 581.134 618.765 580.654 619.677 580.074C622.768 578.108 625.826 576.09 628.928 574.135C629.706 573.644 630.568 573.23 631.448 572.97C631.808 572.864 632.628 573.191 632.692 573.455C632.808 573.934 632.658 574.618 632.36 575.024C632.026 575.475 631.409 575.719 630.906 576.04C626.389 578.936 621.87 581.827 617.354 584.73C617.229 584.81 617.164 584.986 616.844 585.434Z" fill="white"/>
<path fill-rule="evenodd" clip-rule="evenodd" d="M399.996 184.818C404.83 188.502 407.562 193.426 409.716 198.917C411.965 193.215 414.101 187.805 416.242 182.381C413.893 179.389 411.456 176.287 408.776 172.875C407.304 178.114 404.386 181.942 399.996 184.818ZM408.12 166.559C408.748 166.966 409.264 167.109 409.353 167.385C411.154 173.071 414.732 177.534 419.09 181.561C419.013 181.869 419.014 182.238 418.845 182.499C415.574 187.559 413.78 193.234 412.03 198.919C411.51 200.618 411.314 202.415 410.877 204.146C410.773 204.55 410.29 204.859 409.981 205.211C409.64 204.889 409.128 204.626 408.989 204.234C408.126 201.754 407.458 199.203 406.513 196.757C404.885 192.538 402.245 189.049 398.521 186.421C396.758 185.178 396.86 184.631 398.736 183.406C403.517 180.283 406.65 176.046 407.405 170.245C407.553 169.105 407.84 167.985 408.12 166.559Z" fill="white"/>
<path fill-rule="evenodd" clip-rule="evenodd" d="M39.8147 452.487C37.9027 457.26 35.5827 461.259 32.0254 464.692C36.7 466.784 39.4187 470.219 41.1307 474.7C42.244 470.32 44.0907 466.383 46.6747 462.812C45.4974 461.091 44.38 459.492 43.3014 457.87C42.2254 456.25 41.184 454.607 39.8147 452.487ZM39.4894 447.894C40.0934 448.603 40.5374 448.92 40.6974 449.346C42.3747 453.79 45.2107 457.512 48.1507 461.138C49.0467 462.242 49.0494 462.906 48.26 463.987C44.88 468.62 42.6 473.668 42.7814 479.568C42.788 479.822 42.8534 480.127 42.7414 480.323C42.516 480.716 42.2067 481.318 41.8974 481.342C41.5307 481.367 40.916 480.951 40.7787 480.586C40.208 479.083 39.9 477.471 39.2627 476C38.4267 474.068 37.5307 472.123 36.3667 470.38C35.172 468.591 33.356 467.419 31.328 466.602C28.7987 465.58 28.7947 465.282 30.7494 463.518C34.9894 459.692 37.624 454.946 38.744 449.347C38.8187 448.971 39.0987 448.64 39.4894 447.894Z" fill="white"/>
<path fill-rule="evenodd" clip-rule="evenodd" d="M227.736 544.071C228.23 544.074 228.512 544.29 228.515 544.803C228.52 545.366 228.484 545.933 228.538 546.49C228.958 550.907 230.466 554.829 233.8 557.905C234.699 558.73 235.61 559.545 236.519 560.361C237.072 560.858 236.982 561.309 236.375 562.045C235.244 563.418 234.119 564.803 233.096 566.258C231.487 568.546 231.062 571.241 230.702 573.933C230.606 574.639 230.664 575.363 230.572 576.071C230.542 576.321 230.272 576.543 230.112 576.779C229.854 576.582 229.539 576.429 229.352 576.178C229.22 576.001 229.264 575.691 229.231 575.441C228.75 571.861 227.322 568.67 225.095 565.858C224.067 564.563 222.763 563.587 221.056 563.246C220.132 563.063 219.988 562.582 220.583 561.853C221.39 560.863 222.248 559.915 223.048 558.921C225.672 555.659 227.002 551.91 227.168 547.749C227.207 546.837 227.106 545.915 227.004 545.003C226.936 544.397 227.219 544.162 227.736 544.071Z" fill="white"/>
<path fill-rule="evenodd" clip-rule="evenodd" d="M253.297 265C253.791 265.002 254.073 265.218 254.076 265.732C254.081 266.294 254.045 266.861 254.099 267.418C254.519 271.836 256.027 275.757 259.361 278.833C260.26 279.658 261.171 280.473 262.08 281.289C262.633 281.786 262.543 282.237 261.936 282.973C260.805 284.346 259.68 285.732 258.657 287.186C257.048 289.474 256.623 292.169 256.263 294.861C256.167 295.568 256.225 296.292 256.133 297C256.103 297.249 255.833 297.472 255.673 297.708C255.415 297.51 255.1 297.357 254.913 297.106C254.781 296.929 254.825 296.62 254.792 296.369C254.311 292.789 252.883 289.598 250.656 286.786C249.628 285.492 248.324 284.516 246.617 284.174C245.693 283.992 245.549 283.51 246.144 282.781C246.951 281.792 247.809 280.844 248.609 279.849C251.233 276.588 252.563 272.838 252.729 268.677C252.768 267.765 252.667 266.844 252.565 265.932C252.497 265.325 252.78 265.09 253.297 265Z" fill="white"/>
<path fill-rule="evenodd" clip-rule="evenodd" d="M30.179 136.106C30.543 136.37 30.8484 136.472 30.891 136.64C31.7857 140.107 33.7804 142.898 36.2617 145.452C36.2057 145.634 36.195 145.856 36.0844 146.006C33.959 148.931 32.6977 152.272 31.4657 155.62C31.095 156.622 30.9217 157.692 30.6004 158.714C30.5284 158.954 30.2284 159.122 30.031 159.324C29.8377 159.119 29.5377 158.946 29.4684 158.704C29.0324 157.191 28.715 155.64 28.2297 154.144C27.3924 151.563 25.9244 149.387 23.7777 147.691C22.7644 146.888 22.843 146.564 24.007 145.892C26.9737 144.178 28.9884 141.742 29.631 138.291C29.7577 137.612 29.9657 136.951 30.179 136.106Z" fill="white"/>
<path fill-rule="evenodd" clip-rule="evenodd" d="M596.843 294.852C596.999 294.714 597.155 294.578 597.312 294.441C596.091 291.154 594.867 287.868 593.66 284.625C598.119 282.46 599.734 281.341 600.986 279.52C597.392 279.025 593.89 278.544 590.458 278.072C589.674 274.98 588.778 272.246 586.991 269.288C585.567 272.608 584.275 275.372 583.212 278.22C582.755 279.445 582.203 279.852 580.882 280.034C578.515 280.364 576.1 280.81 573.722 282.289C575.666 283.262 577.319 284.109 578.988 284.922C581.414 286.101 581.359 286.069 580.371 288.697C579.52 290.96 578.822 293.28 578.056 295.574C580.676 293.702 582.934 291.668 585.226 289.674C586.772 288.332 586.791 288.377 588.494 289.484C591.267 291.288 594.059 293.064 596.843 294.852ZM578.974 287.112C576.687 285.98 574.562 284.93 572.442 283.876C571.908 283.61 571.327 283.392 570.874 283.024C570.52 282.738 570.088 282.217 570.136 281.862C570.184 281.504 570.731 281.064 571.148 280.925C573.726 280.072 576.291 279.118 578.934 278.548C580.747 278.157 581.775 277.262 582.4 275.626C583.4 273.001 584.442 270.392 585.494 267.786C585.767 267.113 586.143 266.482 586.666 265.444C587.354 266.233 587.89 266.642 588.15 267.185C589.296 269.558 590.567 271.902 591.39 274.392C591.996 276.229 593.195 276.597 594.764 276.853C597.528 277.305 600.28 277.837 603.036 278.338C603.288 278.384 603.583 278.378 603.775 278.514C604.16 278.784 604.723 279.104 604.77 279.461C604.819 279.841 604.458 280.434 604.1 280.678C603.122 281.352 602.026 281.852 601.018 282.49C599.374 283.532 597.767 284.629 595.996 285.798C596.559 287.228 597.108 288.538 597.586 289.874C598.244 291.714 598.895 293.561 599.434 295.437C599.6 296.016 599.395 296.701 599.359 297.337C598.652 297.284 597.816 297.457 597.262 297.14C594.086 295.325 590.976 293.393 587.843 291.504C587.556 291.329 587.26 291.168 586.666 290.828C584.707 292.608 582.707 294.424 580.712 296.244C579.77 297.104 578.882 298.032 577.884 298.821C577.275 299.302 576.707 300.284 575.704 299.638C574.684 298.982 575.346 298.121 575.595 297.354C576.52 294.52 577.467 291.694 578.403 288.865C578.562 288.385 578.715 287.904 578.974 287.112Z" fill="white"/>
<path fill-rule="evenodd" clip-rule="evenodd" d="M23.7808 43.6941L24.2501 43.9367C26.6421 41.9221 29.0568 39.9314 31.4221 37.8874C33.4861 36.1021 33.4168 36.1434 35.6874 37.7181C37.8594 39.2221 40.1434 40.5647 42.3794 41.9781C41.9621 39.4861 41.1474 37.3727 40.4168 35.2314C39.4808 32.5047 39.5328 32.5261 41.7128 30.7927C43.6581 29.2461 45.6314 27.7074 47.2688 25.3234C44.5021 25.0061 42.0754 24.6074 39.6354 24.4941C38.1008 24.4207 37.0594 23.7901 36.2701 22.6074C35.8021 21.9034 35.4914 21.0914 35.0181 20.3887C34.5234 19.6581 33.9194 19.0007 33.2394 18.1607C32.7981 18.7647 32.5248 19.0807 32.3141 19.4341C31.2341 21.2661 30.1968 23.1261 29.0848 24.9367C28.5128 25.8687 27.8794 26.4141 26.4994 26.5167C24.0194 26.7034 21.5874 27.5527 18.5554 28.2607C19.9861 29.0927 20.9181 29.6341 21.8488 30.1741C23.2461 30.9861 24.6448 31.7927 26.0381 32.6101C26.8461 33.0847 26.9968 33.7074 26.5168 34.5354C24.8634 37.3754 24.4421 40.5701 23.7808 43.6941ZM44.1394 45.5114C40.6034 43.2994 37.0221 41.0567 33.4021 38.7914C30.9741 40.8167 28.6528 42.7954 26.2794 44.7101C25.4941 45.3421 24.6274 45.9514 23.6981 46.3007C23.0901 46.5274 22.1554 46.4861 21.6421 46.1474C21.3328 45.9421 21.3914 44.9021 21.5461 44.3061C22.4208 40.9461 23.3754 37.6061 24.3634 34.0421C23.3768 33.4807 22.4141 32.9834 21.5021 32.4047C19.7834 31.3114 18.0674 30.2127 16.4114 29.0287C15.9368 28.6914 15.6768 28.0554 15.0928 27.2474C16.8848 26.7647 18.2541 26.3767 19.6354 26.0314C21.5314 25.5581 23.4168 25.0047 25.3408 24.7021C26.9554 24.4487 27.9114 23.5821 28.6101 22.2181C29.6168 20.2554 30.6554 18.3101 31.6994 16.3687C32.4154 15.0394 33.2568 14.8967 34.2128 16.0901C35.3794 17.5434 36.4688 19.0727 37.4474 20.6567C38.2448 21.9434 39.2274 22.4941 40.7621 22.5807C43.4688 22.7341 46.1581 23.1474 48.8541 23.4647C49.1874 23.5034 49.5328 23.5687 49.8408 23.7021C50.8514 24.1381 50.9968 24.9127 50.1821 25.6727C48.0701 27.6407 45.9914 29.6541 43.7834 31.5114C42.3648 32.7047 41.8554 33.8941 42.5408 35.7181C43.4688 38.1754 44.1728 40.7181 44.9714 43.2247C45.2088 43.9714 45.4488 44.7221 44.1394 45.5114Z" fill="white"/>
<path fill-rule="evenodd" clip-rule="evenodd" d="M340.029 565.71C342.376 567.652 344.625 569.515 346.875 571.375C347.059 570.295 346.845 569.502 346.628 568.707C346.183 567.07 345.772 565.422 345.279 563.8C344.78 562.168 345.063 560.846 346.391 559.676C347.144 559.012 347.671 558.092 348.337 557.322C349.017 556.532 349.743 555.783 350.448 555.015C348.356 554.866 346.512 555.071 344.681 555.368C342.097 555.787 341.445 555.447 340.361 552.983C339.899 551.935 339.403 550.9 338.779 549.546C337.848 551.532 337.052 553.119 336.36 554.751C335.717 556.272 334.588 556.836 333.001 556.972C331.033 557.142 329.084 557.515 326.756 557.855C329.103 560.223 332.099 561.048 333.555 563.124C332.523 566.532 331.599 569.586 330.675 572.639C330.839 572.75 331.003 572.86 331.168 572.97C334.089 570.576 337.009 568.183 340.029 565.71ZM349.047 574.759C348.072 574.355 347.265 574.196 346.681 573.746C344.523 572.084 342.441 570.327 340.076 568.399C338.468 569.647 336.813 570.942 335.148 572.22C334.001 573.102 332.883 574.032 331.669 574.811C330.736 575.412 329.66 575.696 328.181 575.202C328.883 571.296 330.443 567.652 331.361 563.751C329.823 562.698 328.333 561.736 326.908 560.682C326.025 560.027 325.175 559.3 324.432 558.495C323.252 557.215 323.528 556.504 325.311 556.188C327.575 555.79 329.845 555.295 332.132 555.172C333.976 555.071 334.903 554.308 335.419 552.622C336.013 550.674 336.724 548.756 337.491 546.867C337.719 546.303 338.296 545.882 338.715 545.396C339.128 545.863 339.681 546.264 339.931 546.808C340.673 548.431 341.207 550.155 341.991 551.755C342.856 553.527 343.309 553.655 345.239 553.406C347.511 553.114 349.783 552.8 352.065 552.618C352.635 552.571 353.447 552.83 353.78 553.24C354.317 553.904 353.653 554.4 353.155 554.916C351.679 556.444 350.371 558.144 348.833 559.602C346.869 561.462 346.804 563.54 347.583 565.903C348.143 567.598 348.664 569.316 349.008 571.064C349.216 572.106 349.047 573.22 349.047 574.759Z" fill="white"/>
<path fill-rule="evenodd" clip-rule="evenodd" d="M354.099 273.313C356.445 275.256 358.695 277.118 360.944 278.978C361.128 277.898 360.915 277.105 360.697 276.31C360.252 274.673 359.841 273.025 359.348 271.404C358.849 269.772 359.132 268.449 360.46 267.28C361.213 266.616 361.74 265.696 362.407 264.925C363.087 264.136 363.812 263.386 364.517 262.618C362.425 262.469 360.581 262.674 358.751 262.972C356.167 263.39 355.515 263.05 354.431 260.586C353.968 259.538 353.472 258.504 352.848 257.149C351.917 259.136 351.121 260.722 350.429 262.354C349.787 263.876 348.657 264.44 347.071 264.576C345.103 264.745 343.154 265.118 340.826 265.458C343.172 267.826 346.168 268.652 347.624 270.728C346.592 274.136 345.668 277.189 344.744 280.242C344.908 280.353 345.072 280.464 345.238 280.573C348.159 278.18 351.079 275.786 354.099 273.313ZM363.116 282.362C362.141 281.958 361.335 281.8 360.751 281.349C358.592 279.688 356.511 277.93 354.145 276.002C352.537 277.25 350.883 278.545 349.217 279.824C348.071 280.705 346.952 281.636 345.739 282.414C344.806 283.016 343.73 283.3 342.251 282.805C342.952 278.9 344.512 275.256 345.431 271.354C343.892 270.301 342.403 269.34 340.978 268.285C340.095 267.63 339.244 266.904 338.502 266.098C337.322 264.818 337.598 264.108 339.38 263.792C341.644 263.393 343.915 262.898 346.202 262.776C348.045 262.674 348.972 261.912 349.488 260.225C350.083 258.277 350.793 256.36 351.56 254.47C351.788 253.906 352.365 253.485 352.784 253C353.197 253.466 353.751 253.868 354 254.412C354.743 256.034 355.276 257.758 356.06 259.358C356.925 261.13 357.379 261.258 359.308 261.009C361.58 260.717 363.852 260.404 366.135 260.221C366.704 260.174 367.516 260.433 367.849 260.844C368.387 261.508 367.723 262.004 367.224 262.52C365.748 264.048 364.44 265.748 362.903 267.205C360.939 269.065 360.873 271.144 361.652 273.506C362.212 275.201 362.733 276.92 363.077 278.668C363.285 279.709 363.116 280.824 363.116 282.362Z" fill="white"/>
<path fill-rule="evenodd" clip-rule="evenodd" d="M224.094 405.208C223.113 401.972 220.862 399.827 220.814 396.621C223.698 396.364 225.75 394.777 228.121 392.517C225.602 392.763 223.666 392.909 221.741 393.148C219.822 393.385 219.386 393.145 218.802 391.273C218.452 390.139 218.149 388.984 217.718 387.88C217.342 386.911 217.042 385.844 216.078 385.247C214.845 387.635 213.693 389.897 212.51 392.141C212.108 392.907 211.49 393.072 210.592 392.949C209.053 392.736 207.497 392.833 205.72 393.771C207.185 394.597 208.346 395.267 209.521 395.911C210.516 396.457 210.654 396.987 210.13 398.147C208.925 400.815 208.034 403.625 207.014 406.377C207.133 406.451 207.253 406.521 207.373 406.593C209.997 404.359 212.621 402.124 215.072 400.036C218.13 401.789 220.881 403.365 224.094 405.208ZM226.642 408.676C222.74 406.607 218.916 404.579 214.982 402.493C212.925 404.323 210.969 406.081 208.99 407.816C208.157 408.547 207.334 409.311 206.4 409.891C205.92 410.188 205.209 410.117 204.602 410.213C204.548 409.66 204.316 409.049 204.47 408.563C205.138 406.457 205.936 404.391 206.657 402.301C207.182 400.787 207.668 399.255 208.23 397.549C205.777 396.016 203.464 394.572 200.769 392.889C201.698 392.38 202.144 391.963 202.638 391.893C204.829 391.584 207.026 391.305 209.23 391.156C210.372 391.08 211.16 390.735 211.672 389.677C212.674 387.611 213.725 385.568 214.788 383.531C215.154 382.828 215.618 382.175 216.289 381.092C218.594 384.435 219.469 387.915 220.956 391.152C224.66 391.148 228.362 389.611 232.344 391.241C229.657 394.572 225.977 396.032 222.988 398.771C224.417 401.315 225.764 403.856 227.264 406.304C227.882 407.317 227.969 407.98 226.642 408.676Z" fill="white"/>
<path fill-rule="evenodd" clip-rule="evenodd" d="M470.545 450.165C468.423 448.839 466.274 447.492 464.102 446.133C462.645 447.349 461.253 448.536 459.829 449.685C459.358 450.065 458.838 450.429 458.281 450.639C457.915 450.776 457.355 450.749 457.047 450.547C456.861 450.424 456.897 449.8 456.989 449.443C457.515 447.427 458.086 445.421 458.679 443.284C458.087 442.948 457.51 442.648 456.962 442.303C455.931 441.645 454.903 440.987 453.907 440.276C453.625 440.073 453.466 439.693 453.118 439.205C454.191 438.916 455.015 438.685 455.843 438.476C456.979 438.195 458.111 437.861 459.265 437.68C460.234 437.528 460.806 437.008 461.227 436.191C461.831 435.013 462.455 433.845 463.082 432.68C463.51 431.883 464.015 431.797 464.59 432.513C465.289 433.385 465.942 434.303 466.53 435.252C467.007 436.025 467.598 436.355 468.518 436.407C470.142 436.5 471.755 436.748 473.373 436.937C473.574 436.961 473.782 437 473.965 437.081C474.573 437.341 474.661 437.807 474.171 438.263C472.903 439.443 471.657 440.651 470.333 441.765C469.481 442.481 469.174 443.195 469.586 444.289C470.142 445.764 470.565 447.289 471.043 448.795C471.186 449.243 471.33 449.693 470.545 450.165Z" fill="white"/>
<path fill-rule="evenodd" clip-rule="evenodd" d="M236.615 35.5649C236.031 35.3222 235.546 35.2276 235.197 34.9582C233.902 33.9609 232.651 32.9062 231.234 31.7489C230.267 32.4982 229.275 33.2742 228.275 34.0409C227.587 34.5702 226.918 35.1289 226.19 35.5969C225.63 35.9569 224.983 36.1276 224.097 35.8302C224.518 33.4876 225.453 31.3009 226.005 28.9609C225.081 28.3276 224.187 27.7516 223.333 27.1182C222.803 26.7262 222.293 26.2902 221.846 25.8062C221.139 25.0382 221.305 24.6116 222.374 24.4236C223.733 24.1836 225.095 23.8862 226.466 23.8129C227.574 23.7529 228.13 23.2956 228.439 22.2822C228.797 21.1129 229.223 19.9636 229.682 18.8302C229.818 18.4916 230.166 18.2396 230.417 17.9476C230.665 18.2276 230.997 18.4689 231.145 18.7942C231.59 19.7689 231.911 20.8022 232.382 21.7622C232.901 22.8249 233.174 22.9036 234.33 22.7542C235.695 22.5769 237.058 22.3902 238.426 22.2796C238.767 22.2529 239.254 22.4076 239.455 22.6542C239.778 23.0529 239.379 23.3489 239.081 23.6596C238.195 24.5769 237.411 25.5956 236.486 26.4702C235.31 27.5876 235.27 28.8342 235.738 30.2516C236.073 31.2676 236.386 32.2996 236.593 33.3476C236.715 33.9729 236.615 34.6422 236.615 35.5649Z" fill="white"/>
<path fill-rule="evenodd" clip-rule="evenodd" d="M61.523 618.504C59.1817 617.261 56.887 616.045 54.5257 614.793C53.2924 615.892 52.119 616.947 50.9324 617.988C50.4324 618.425 49.9377 618.884 49.3777 619.232C49.0884 619.411 48.6617 619.368 48.299 619.425C48.2657 619.092 48.127 618.728 48.219 618.436C48.6204 617.171 49.099 615.931 49.531 614.679C49.847 613.769 50.1377 612.851 50.475 611.827C49.0017 610.908 47.615 610.04 45.999 609.032C46.5564 608.725 46.8244 608.476 47.1204 608.433C48.435 608.249 49.7524 608.083 51.075 607.991C51.7604 607.945 52.2324 607.739 52.5404 607.103C53.1417 605.864 53.7724 604.637 54.4084 603.416C54.6297 602.993 54.9084 602.603 55.3124 601.952C56.6937 603.959 57.2177 606.045 58.1097 607.988C60.3324 607.985 62.5537 607.064 64.9444 608.043C63.3297 610.04 61.1244 610.919 59.3297 612.559C60.187 614.087 60.995 615.611 61.895 617.08C62.267 617.689 62.319 618.085 61.523 618.504Z" fill="white"/>
<path fill-rule="evenodd" clip-rule="evenodd" d="M386.89 406.877C387.284 408.065 387.682 409.252 388.069 410.443C388.174 410.764 388.452 411.128 388.024 411.401C387.601 411.672 387.364 411.26 387.109 411.059C386.69 410.727 386.314 410.337 385.918 409.976C385.082 409.211 384.242 408.448 383.42 407.7C383.17 407.844 383.046 407.911 382.924 407.984C381.609 408.779 380.304 409.591 378.969 410.352C378.737 410.485 378.385 410.412 378.088 410.435C378.073 410.168 377.986 409.88 378.057 409.637C378.284 408.849 378.557 408.073 378.833 407.301C379.033 406.739 379.265 406.189 379.5 405.588C378.757 405.097 378.082 404.637 377.392 404.2C376.969 403.932 376.509 403.721 376.096 403.439C375.948 403.336 375.794 403.085 375.814 402.927C375.836 402.777 376.073 402.643 376.234 402.529C376.314 402.472 376.438 402.475 376.544 402.456C377.702 402.244 378.857 402.021 380.018 401.833C380.677 401.725 381.182 401.571 381.436 400.797C381.781 399.752 382.314 398.768 382.797 397.771C382.906 397.544 383.13 397.372 383.418 397.04C383.64 397.476 383.797 397.74 383.912 398.023C384.354 399.119 384.792 400.213 385.21 401.316C385.474 402.004 385.906 402.38 386.666 402.544C387.778 402.784 388.856 403.183 389.937 403.541C390.112 403.601 390.341 403.785 390.362 403.936C390.382 404.084 390.2 404.303 390.052 404.424C389.862 404.577 389.618 404.669 389.393 404.781C388.502 405.225 387.612 405.665 386.65 406.14C386.758 406.473 386.822 406.676 386.89 406.877Z" fill="white"/>
<path fill-rule="evenodd" clip-rule="evenodd" d="M405.155 45.7323C405.299 44.999 405.517 44.2776 405.753 43.5656C406.08 42.5723 406.055 41.7003 405.229 40.919C404.583 40.307 404.033 39.5936 403.413 38.951C403.204 38.7336 402.925 38.527 403.151 38.2483C403.292 38.075 403.632 37.9656 403.871 37.9843C404.829 38.063 405.784 38.1936 406.737 38.3163C407.549 38.4216 407.739 38.367 408.103 37.623C408.432 36.951 408.656 36.2283 408.968 35.5456C409.072 35.3176 409.304 35.1496 409.479 34.9523C409.653 35.1563 409.897 35.3336 409.992 35.5696C410.315 36.3643 410.612 37.1683 410.861 37.987C411.08 38.6963 411.468 39.0163 412.243 39.0576C413.203 39.1096 414.157 39.3176 415.109 39.4856C415.856 39.6176 415.973 39.9163 415.477 40.4536C415.165 40.7923 414.807 41.0976 414.437 41.3723C413.839 41.815 413.213 42.219 412.568 42.6616C412.953 44.3003 413.608 45.831 413.903 47.471C413.281 47.6776 412.831 47.559 412.437 47.307C411.927 46.9803 411.459 46.5883 410.976 46.219C410.277 45.6816 409.583 45.1376 408.905 44.6136C407.913 45.4243 407.039 46.1616 406.132 46.8603C405.888 47.0483 405.548 47.115 405.139 47.2856C405.139 46.639 405.069 46.1696 405.155 45.7323Z" fill="white"/>
<path fill-rule="evenodd" clip-rule="evenodd" d="M418.445 530.967C417.3 530.359 416.174 529.763 415.018 529.15C414.413 529.687 413.838 530.205 413.256 530.715C413.01 530.93 412.768 531.155 412.494 531.325C412.353 531.413 412.144 531.391 411.966 531.419C411.95 531.257 411.882 531.077 411.926 530.934C412.124 530.315 412.357 529.707 412.57 529.094C412.725 528.647 412.866 528.198 413.03 527.697C412.31 527.246 411.632 526.822 410.838 526.327C411.112 526.175 411.244 526.053 411.388 526.034C412.032 525.942 412.678 525.861 413.326 525.817C413.661 525.794 413.893 525.693 414.044 525.382C414.338 524.774 414.648 524.173 414.961 523.574C415.068 523.369 415.204 523.175 415.402 522.858C416.08 523.839 416.336 524.863 416.773 525.817C417.862 525.814 418.952 525.363 420.122 525.842C419.33 526.822 418.25 527.251 417.37 528.055C417.792 528.803 418.188 529.551 418.628 530.271C418.809 530.569 418.836 530.763 418.445 530.967Z" fill="white"/>
<path fill-rule="evenodd" clip-rule="evenodd" d="M266.165 182.14C265.492 181.806 264.869 181.5 264.245 181.189C264.088 181.11 263.918 181.046 263.784 180.938C263.681 180.854 263.553 180.7 263.568 180.597C263.582 180.49 263.742 180.362 263.864 180.321C264.622 180.07 265.377 179.789 266.153 179.622C266.688 179.506 266.989 179.244 267.173 178.762C267.468 177.992 267.773 177.224 268.082 176.458C268.162 176.26 268.273 176.074 268.426 175.769C268.63 176.001 268.786 176.122 268.864 176.281C269.2 176.978 269.574 177.668 269.814 178.4C269.994 178.941 270.346 179.049 270.806 179.124C271.621 179.257 272.429 179.413 273.24 179.56C273.314 179.574 273.401 179.572 273.458 179.612C273.57 179.692 273.737 179.785 273.749 179.89C273.765 180.001 273.658 180.176 273.553 180.249C273.265 180.446 272.942 180.593 272.646 180.781C272.164 181.088 271.692 181.41 271.17 181.753C271.336 182.174 271.497 182.558 271.637 182.952C271.83 183.493 272.024 184.036 272.182 184.588C272.23 184.757 272.169 184.958 272.158 185.145C271.952 185.13 271.705 185.181 271.542 185.088C270.609 184.554 269.694 183.986 268.773 183.43C268.689 183.38 268.601 183.333 268.426 183.232C267.852 183.756 267.262 184.289 266.677 184.825C266.401 185.077 266.137 185.35 265.845 185.582C265.666 185.724 265.5 186.012 265.205 185.822C264.905 185.63 265.098 185.376 265.173 185.15C265.444 184.317 265.722 183.486 265.997 182.656C266.044 182.514 266.089 182.373 266.165 182.14Z" fill="white"/>
<path fill-rule="evenodd" clip-rule="evenodd" d="M590.453 138.239C590.166 138.121 589.929 138.073 589.758 137.941C589.122 137.453 588.51 136.935 587.815 136.369C587.343 136.737 586.857 137.117 586.367 137.493C586.03 137.751 585.701 138.025 585.343 138.254C585.07 138.431 584.754 138.514 584.318 138.369C584.525 137.221 584.983 136.15 585.254 135.003C584.802 134.693 584.363 134.41 583.945 134.101C583.685 133.907 583.434 133.694 583.215 133.457C582.87 133.081 582.95 132.873 583.474 132.779C584.141 132.662 584.807 132.517 585.481 132.481C586.023 132.451 586.294 132.226 586.446 131.73C586.622 131.157 586.83 130.594 587.055 130.039C587.122 129.874 587.293 129.749 587.415 129.606C587.535 129.743 587.701 129.862 587.773 130.021C587.991 130.499 588.147 131.005 588.378 131.477C588.633 131.997 588.765 132.035 589.333 131.962C590.002 131.875 590.669 131.783 591.341 131.729C591.507 131.715 591.747 131.793 591.845 131.913C592.002 132.107 591.807 132.254 591.661 132.406C591.226 132.854 590.843 133.354 590.39 133.782C589.813 134.33 589.794 134.941 590.023 135.635C590.187 136.134 590.341 136.639 590.442 137.153C590.502 137.458 590.453 137.786 590.453 138.239Z" fill="white"/>
<path fill-rule="evenodd" clip-rule="evenodd" d="M113.408 275.079C112.26 274.469 111.136 273.873 109.979 273.26C109.375 273.799 108.799 274.316 108.218 274.825C107.974 275.04 107.731 275.265 107.455 275.436C107.315 275.523 107.106 275.501 106.927 275.529C106.911 275.367 106.843 275.188 106.89 275.045C107.086 274.425 107.32 273.819 107.532 273.204C107.687 272.759 107.827 272.308 107.994 271.807C107.272 271.356 106.594 270.932 105.802 270.437C106.074 270.287 106.206 270.164 106.351 270.144C106.994 270.053 107.64 269.971 108.288 269.928C108.624 269.905 108.855 269.803 109.006 269.493C109.302 268.885 109.608 268.284 109.922 267.685C110.031 267.479 110.166 267.287 110.364 266.968C111.042 267.951 111.299 268.975 111.735 269.927C112.826 269.925 113.914 269.473 115.084 269.952C114.294 270.932 113.212 271.361 112.332 272.165C112.754 272.913 113.15 273.661 113.591 274.381C113.772 274.679 113.798 274.873 113.408 275.079Z" fill="white"/>
<path fill-rule="evenodd" clip-rule="evenodd" d="M532.145 23.4341C531.607 23.1674 531.109 22.9221 530.609 22.6728C530.484 22.6101 530.348 22.5594 530.24 22.4728C530.159 22.4061 530.056 22.2821 530.067 22.1994C530.077 22.1141 530.207 22.0114 530.304 21.9794C530.911 21.7781 531.515 21.5541 532.136 21.4194C532.561 21.3274 532.804 21.1168 532.951 20.7328C533.187 20.1154 533.432 19.5021 533.679 18.8888C533.743 18.7301 533.833 18.5821 533.955 18.3381C534.117 18.5234 534.241 18.6194 534.304 18.7474C534.572 19.3048 534.872 19.8568 535.064 20.4421C535.208 20.8754 535.491 20.9621 535.859 21.0208C536.509 21.1274 537.156 21.2528 537.804 21.3701C537.864 21.3808 537.935 21.3794 537.979 21.4114C538.069 21.4754 538.203 21.5501 538.213 21.6341C538.225 21.7234 538.14 21.8634 538.056 21.9208C537.825 22.0794 537.567 22.1968 537.331 22.3474C536.945 22.5928 536.565 22.8501 536.149 23.1248C536.281 23.4621 536.411 23.7688 536.523 24.0834C536.676 24.5168 536.831 24.9514 536.957 25.3928C536.997 25.5274 536.949 25.6888 536.94 25.8381C536.775 25.8261 536.577 25.8674 536.448 25.7928C535.7 25.3661 534.968 24.9114 534.231 24.4661C534.164 24.4261 534.095 24.3874 533.955 24.3074C533.495 24.7261 533.023 25.1541 532.555 25.5821C532.333 25.7834 532.124 26.0021 531.889 26.1874C531.745 26.3008 531.613 26.5314 531.377 26.3794C531.137 26.2261 531.292 26.0234 531.351 25.8434C531.567 25.1768 531.791 24.5114 532.011 23.8461C532.049 23.7341 532.085 23.6208 532.145 23.4341Z" fill="white"/>
<path fill-rule="evenodd" clip-rule="evenodd" d="M252.791 478.709C251.874 478.223 250.974 477.744 250.048 477.255C249.564 477.684 249.103 478.099 248.64 478.507C248.442 478.679 248.25 478.857 248.03 478.995C247.916 479.065 247.75 479.048 247.606 479.071C247.594 478.94 247.54 478.796 247.576 478.681C247.734 478.187 247.92 477.7 248.091 477.209C248.214 476.852 248.327 476.493 248.46 476.092C247.882 475.732 247.339 475.392 246.706 474.996C246.924 474.876 247.028 474.779 247.146 474.761C247.66 474.688 248.176 474.624 248.695 474.588C248.963 474.571 249.148 474.489 249.27 474.24C249.504 473.755 249.752 473.273 250.002 472.793C250.088 472.628 250.198 472.476 250.356 472.221C250.898 473.008 251.103 473.825 251.452 474.587C252.324 474.585 253.195 474.225 254.132 474.608C253.499 475.392 252.635 475.736 251.931 476.379C252.267 476.977 252.584 477.575 252.936 478.151C253.083 478.389 253.103 478.545 252.791 478.709Z" fill="white"/>
<path fill-rule="evenodd" clip-rule="evenodd" d="M32.8538 356.656C29.5351 356.777 26.1085 353.847 26.0351 350.821C25.9365 346.721 28.8805 343.232 32.5591 342.984C36.8258 342.697 39.6565 346.427 39.7658 350.025C39.8845 353.911 37.0391 356.393 32.8538 356.656Z" fill="white"/>
<path fill-rule="evenodd" clip-rule="evenodd" d="M629.392 378.078C624.904 377.843 622.628 375.461 622.538 371.426C622.464 367.885 625.79 364.345 628.89 364.494C633.554 364.718 636.053 368.391 636.076 371.909C636.093 374.791 633.224 378.166 629.392 378.078Z" fill="white"/>
<path fill-rule="evenodd" clip-rule="evenodd" d="M506.275 256.518C506.283 259.548 504.747 261.058 502.546 262.043C499.062 263.604 495.026 261.948 493.078 259.15C492.197 257.886 492.153 256.339 492.618 254.862C493.459 252.186 495.421 250.451 498.022 249.93C500.507 249.431 502.847 250.415 504.551 252.406C505.639 253.676 506.517 255.102 506.275 256.518Z" fill="white"/>
<path fill-rule="evenodd" clip-rule="evenodd" d="M550.437 635.592C548.504 635.558 546.713 635.304 545.205 633.798C542.753 631.342 543.647 626.099 546.473 624.335C549.7 622.319 553.32 622.835 555.568 626.064C556.263 627.064 556.833 628.264 557.071 629.451C557.604 632.122 555.099 635.351 551.689 635.588C551.273 635.618 550.853 635.592 550.437 635.592Z" fill="white"/>
<path fill-rule="evenodd" clip-rule="evenodd" d="M335.619 15.1821C335.731 18.6248 332.906 21.4101 328.239 21.5128C324.84 21.5875 322.686 18.6088 322.66 15.3235C322.627 10.9355 325.555 9.25145 329.379 9.04745C333.403 8.83412 335.591 12.1488 335.619 15.1821Z" fill="white"/>
<path fill-rule="evenodd" clip-rule="evenodd" d="M170.438 620.959C169.202 620.587 167.882 620.383 166.746 619.811C163.171 618.009 163.219 613.125 165.942 610.707C167.123 609.657 168.537 609.005 170.079 608.699C171.437 608.429 172.783 608.639 173.719 609.691C174.617 610.701 175.389 611.857 176.041 613.043C177.709 616.087 175.077 621.233 170.438 620.959Z" fill="white"/>
<path fill-rule="evenodd" clip-rule="evenodd" d="M237.251 639.367C236.015 638.995 234.695 638.791 233.559 638.219C229.984 636.416 230.032 631.532 232.755 629.115C233.936 628.064 235.35 627.412 236.892 627.107C238.25 626.836 239.596 627.047 240.532 628.099C241.43 629.108 242.202 630.264 242.854 631.451C244.522 634.495 241.89 639.64 237.251 639.367Z" fill="white"/>
<path fill-rule="evenodd" clip-rule="evenodd" d="M9.99172 532.411C11.4357 532.467 13.2571 533.549 14.5277 535.374C15.5717 536.87 14.9971 538.533 14.2037 539.941C12.9331 542.202 9.79306 542.919 7.25839 541.699C4.85839 540.542 3.79572 537.919 4.70506 535.402C5.35306 533.607 7.13706 532.399 9.99172 532.411Z" fill="white"/>
<path fill-rule="evenodd" clip-rule="evenodd" d="M647.958 531.991C644.898 531.824 643.27 530.303 643.278 527.275C643.286 524.273 645.129 522.491 648.661 522.293C651.221 522.147 653.531 524.26 653.51 526.78C653.485 530.027 651.35 531.911 647.958 531.991Z" fill="white"/>
<path fill-rule="evenodd" clip-rule="evenodd" d="M296.044 415.192C295.132 414.971 294.186 414.836 293.314 414.507C291.425 413.796 290.218 411.714 290.516 409.864C290.784 408.203 293.052 405.835 294.88 406.028C296.254 406.171 297.577 406.242 298.789 407.007C300.542 408.119 301.341 409.88 300.906 411.679C300.473 413.484 298.401 415.283 296.618 415.034C296.444 415.01 296.262 415.031 296.082 415.031C296.07 415.084 296.057 415.138 296.044 415.192Z" fill="white"/>
<path fill-rule="evenodd" clip-rule="evenodd" d="M263.361 348.175C262.449 347.953 261.503 347.819 260.631 347.489C258.742 346.779 257.535 344.696 257.833 342.847C258.101 341.185 260.369 338.817 262.197 339.011C263.571 339.153 264.894 339.224 266.106 339.989C267.859 341.101 268.658 342.863 268.223 344.661C267.79 346.467 265.718 348.265 263.935 348.016C263.761 347.992 263.579 348.013 263.399 348.013C263.387 348.067 263.374 348.12 263.361 348.175Z" fill="white"/>
<path fill-rule="evenodd" clip-rule="evenodd" d="M116.205 19.5899C113.531 19.6246 111.872 18.0859 111.829 15.5326C111.785 12.8632 113.721 10.9326 116.433 10.9406C119.135 10.9486 121.203 12.8566 121.221 15.3659C121.233 17.1592 119.307 19.8872 116.205 19.5899Z" fill="white"/>
<path fill-rule="evenodd" clip-rule="evenodd" d="M179.695 322.494C178.34 322.469 177.088 322.293 176.033 321.238C174.317 319.52 174.943 315.849 176.921 314.613C179.179 313.204 181.713 313.564 183.285 315.825C183.773 316.524 184.171 317.364 184.337 318.194C184.713 320.065 182.957 322.325 180.572 322.492C180.28 322.512 179.987 322.494 179.695 322.494Z" fill="white"/>
<path fill-rule="evenodd" clip-rule="evenodd" d="M143.13 436.674C142.266 436.416 141.34 436.273 140.547 435.872C138.044 434.609 138.076 431.19 139.983 429.497C140.81 428.762 141.799 428.308 142.88 428.092C143.828 427.904 144.771 428.05 145.427 428.786C146.054 429.494 146.596 430.304 147.051 431.136C148.218 433.264 146.378 436.868 143.13 436.674Z" fill="white"/>
<path fill-rule="evenodd" clip-rule="evenodd" d="M591.596 360.057C589.456 359.94 588.316 358.874 588.323 356.754C588.327 354.653 589.617 353.406 592.088 353.266C593.881 353.166 595.499 354.644 595.484 356.409C595.465 358.682 593.971 360 591.596 360.057Z" fill="white"/>
<path fill-rule="evenodd" clip-rule="evenodd" d="M121.52 189.097C120.882 188.941 120.22 188.847 119.61 188.618C118.288 188.119 117.442 186.661 117.651 185.366C117.838 184.203 119.427 182.547 120.707 182.682C121.668 182.782 122.595 182.831 123.442 183.367C124.67 184.145 125.228 185.377 124.926 186.638C124.622 187.901 123.17 189.159 121.923 188.986C121.8 188.969 121.674 188.983 121.548 188.983C121.539 189.021 121.531 189.059 121.52 189.097Z" fill="white"/>
<path fill-rule="evenodd" clip-rule="evenodd" d="M630.346 259.243C628.473 259.267 627.313 258.189 627.281 256.403C627.251 254.533 628.606 253.183 630.505 253.187C632.395 253.193 633.843 254.529 633.857 256.285C633.865 257.541 632.515 259.451 630.346 259.243Z" fill="white"/>
<path fill-rule="evenodd" clip-rule="evenodd" d="M239.313 131.006C236.989 131.091 234.59 129.038 234.54 126.922C234.47 124.052 236.53 121.61 239.106 121.436C242.093 121.235 244.073 123.844 244.15 126.366C244.233 129.086 242.241 130.822 239.313 131.006Z" fill="white"/>
<path fill-rule="evenodd" clip-rule="evenodd" d="M505.091 504.75C505.097 506.871 504.02 507.927 502.481 508.617C500.041 509.711 497.217 508.553 495.852 506.591C495.236 505.709 495.205 504.625 495.531 503.591C496.119 501.718 497.495 500.502 499.313 500.138C501.053 499.789 502.692 500.478 503.885 501.87C504.647 502.761 505.26 503.758 505.091 504.75Z" fill="white"/>
<path fill-rule="evenodd" clip-rule="evenodd" d="M403.109 116.477C400.91 116.362 399.794 115.194 399.75 113.217C399.713 111.482 401.343 109.747 402.862 109.821C405.147 109.93 406.371 111.73 406.383 113.453C406.393 114.866 404.986 116.519 403.109 116.477Z" fill="white"/>
<path fill-rule="evenodd" clip-rule="evenodd" d="M431.271 605C430.325 604.983 429.447 604.86 428.707 604.121C427.507 602.917 427.945 600.348 429.33 599.483C430.91 598.496 432.685 598.749 433.786 600.332C434.127 600.821 434.406 601.411 434.522 601.991C434.783 603.301 433.557 604.883 431.885 604.999C431.682 605.012 431.475 605 431.271 605Z" fill="white"/>
<path fill-rule="evenodd" clip-rule="evenodd" d="M435.942 285.26C434.596 285.408 432.906 284.034 433.174 282.442C433.44 280.876 435.149 279.38 437.125 280.316C437.954 280.708 438.422 281.368 438.742 282.169C439.158 283.214 438.541 284.601 437.474 284.957C436.984 285.12 436.456 285.162 435.942 285.26Z" fill="white"/>
<path fill-rule="evenodd" clip-rule="evenodd" d="M273.198 586.718C273.904 586.746 274.796 587.276 275.419 588.17C275.932 588.904 275.65 589.717 275.262 590.408C274.638 591.516 273.099 591.866 271.858 591.269C270.682 590.701 270.162 589.417 270.607 588.184C270.924 587.305 271.799 586.712 273.198 586.718Z" fill="white"/>
<path fill-rule="evenodd" clip-rule="evenodd" d="M45.7846 282.403C44.2859 282.322 43.4872 281.575 43.4912 280.093C43.4939 278.622 44.3979 277.749 46.1299 277.651C47.3832 277.579 48.5152 278.615 48.5059 279.85C48.4926 281.441 47.4472 282.365 45.7846 282.403Z" fill="white"/>
<path fill-rule="evenodd" clip-rule="evenodd" d="M4.52713 407.01C4.08046 406.901 3.61646 406.836 3.1898 406.674C2.26446 406.325 1.67246 405.305 1.81913 404.398C1.9498 403.585 3.06046 402.426 3.9578 402.52C4.6298 402.59 5.2778 402.624 5.87246 403C6.73113 403.544 7.1218 404.406 6.91113 405.289C6.6978 406.172 5.6818 407.054 4.80846 406.932C4.72313 406.921 4.63513 406.93 4.54713 406.93C4.5418 406.957 4.5338 406.984 4.52713 407.01Z" fill="white"/>
<path fill-rule="evenodd" clip-rule="evenodd" d="M94.8146 637.715C93.504 637.733 92.6893 636.977 92.6693 635.728C92.648 634.419 93.596 633.473 94.9253 633.477C96.2493 633.48 97.2626 634.415 97.272 635.644C97.2786 636.524 96.3333 637.86 94.8146 637.715Z" fill="white"/>
<path fill-rule="evenodd" clip-rule="evenodd" d="M345.098 208.413C345.101 209.898 344.349 210.637 343.27 211.119C341.564 211.885 339.585 211.074 338.629 209.702C338.2 209.083 338.177 208.325 338.405 207.602C338.817 206.29 339.778 205.439 341.053 205.185C342.27 204.941 343.417 205.422 344.252 206.397C344.786 207.021 345.216 207.718 345.098 208.413Z" fill="white"/>
<path fill-rule="evenodd" clip-rule="evenodd" d="M466.062 4.23809C464.752 4.25542 463.937 3.50076 463.917 2.25009C463.896 0.942089 464.844 -0.00324402 466.173 -0.000577355C467.497 0.00342264 468.51 0.938089 468.52 2.16742C468.526 3.04742 467.581 4.38342 466.062 4.23809Z" fill="white"/>
<path fill-rule="evenodd" clip-rule="evenodd" d="M517.617 396.266C517.172 396.156 516.708 396.091 516.281 395.93C515.354 395.58 514.762 394.56 514.909 393.654C515.04 392.84 516.15 391.682 517.048 391.775C517.721 391.846 518.369 391.879 518.964 392.255C519.822 392.799 520.213 393.662 520.001 394.544C519.789 395.427 518.772 396.31 517.898 396.187C517.813 396.176 517.725 396.186 517.638 396.186C517.632 396.212 517.625 396.239 517.617 396.266Z" fill="white"/>
<mask id="mask0_178_2370" style="mask-type:luminance" maskUnits="userSpaceOnUse" x="545" y="232" width="7" height="8">
<path d="M545.369 232.37H551.817V239.037H545.369V232.37Z" fill="white"/>
</mask>
<g mask="url(#mask0_178_2370)">
<g opacity="0.699997">
<path d="M548.594 239.037C552.894 239.037 552.894 232.37 548.594 232.37C544.294 232.37 544.294 239.037 548.594 239.037Z" fill="#2D2E83"/>
</g>
</g>
<mask id="mask1_178_2370" style="mask-type:luminance" maskUnits="userSpaceOnUse" x="84" y="498" width="8" height="8">
<path d="M84.7729 498.715H91.2209V505.381H84.7729V498.715Z" fill="white"/>
</mask>
<g mask="url(#mask1_178_2370)">
<g opacity="0.699997">
<path d="M87.9969 505.381C92.2956 505.381 92.2956 498.715 87.9969 498.715C83.6983 498.715 83.6983 505.381 87.9969 505.381Z" fill="#2D2E83"/>
</g>
</g>
<mask id="mask2_178_2370" style="mask-type:luminance" maskUnits="userSpaceOnUse" x="272" y="61" width="8" height="8">
<path d="M272.773 61.3817H279.221V68.0483H272.773V61.3817Z" fill="white"/>
</mask>
<g mask="url(#mask2_178_2370)">
<g opacity="0.699997">
<path d="M275.997 68.0483C280.296 68.0483 280.296 61.3817 275.997 61.3817C271.698 61.3817 271.698 68.0483 275.997 68.0483Z" fill="#2D2E83"/>
</g>
</g>
<mask id="mask3_178_2370" style="mask-type:luminance" maskUnits="userSpaceOnUse" x="559" y="536" width="7" height="7">
<path d="M559.439 536.048H565.887V542.715H559.439V536.048Z" fill="white"/>
</mask>
<g mask="url(#mask3_178_2370)">
<g opacity="0.699997">
<path d="M562.663 542.715C566.963 542.715 566.963 536.048 562.663 536.048C558.363 536.048 558.363 542.715 562.663 542.715Z" fill="#2D2E83"/>
</g>
</g>
<mask id="mask4_178_2370" style="mask-type:luminance" maskUnits="userSpaceOnUse" x="191" y="167" width="10" height="9">
<path d="M191.805 167.048H200.189V175.715H191.805V167.048Z" fill="white"/>
</mask>
<g mask="url(#mask4_178_2370)">
<g opacity="0.699997">
<path d="M195.997 175.715C201.585 175.715 201.585 167.048 195.997 167.048C190.409 167.048 190.409 175.715 195.997 175.715Z" fill="#2D2E83"/>
</g>
</g>
<mask id="mask5_178_2370" style="mask-type:luminance" maskUnits="userSpaceOnUse" x="414" y="479" width="9" height="9">
<path d="M414.472 479.048H422.856V487.715H414.472V479.048Z" fill="white"/>
</mask>
<g mask="url(#mask5_178_2370)">
<g opacity="0.699997">
<path d="M418.664 487.715C424.252 487.715 424.252 479.048 418.664 479.048C413.076 479.048 413.076 487.715 418.664 487.715Z" fill="#2D2E83"/>
</g>
</g>
<mask id="mask6_178_2370" style="mask-type:luminance" maskUnits="userSpaceOnUse" x="562" y="81" width="9" height="10">
<path d="M562.472 81.7147H570.856V90.3813H562.472V81.7147Z" fill="white"/>
</mask>
<g mask="url(#mask6_178_2370)">
<g opacity="0.699997">
<path d="M566.664 90.3813C572.252 90.3813 572.252 81.7147 566.664 81.7147C561.076 81.7147 561.076 90.3813 566.664 90.3813Z" fill="#2D2E83"/>
</g>
</g>
</g>
</svg>
