<svg width="41" height="41" viewBox="0 0 41 41" fill="none" xmlns="http://www.w3.org/2000/svg">
<path d="M20.0918 22.5416H26.6252C27.2036 22.5416 27.6885 22.3459 28.0798 21.9546C28.4712 21.5633 28.6668 21.0784 28.6668 20.4999C28.6668 19.9214 28.4712 19.4365 28.0798 19.0452C27.6885 18.6539 27.2036 18.4583 26.6252 18.4583H20.0918L21.9293 16.6208C22.3036 16.2464 22.4908 15.7701 22.4908 15.1916C22.4908 14.6131 22.3036 14.1367 21.9293 13.7624C21.555 13.3881 21.0786 13.201 20.5002 13.201C19.9217 13.201 19.4453 13.3881 19.071 13.7624L13.7627 19.0708C13.3543 19.4791 13.1502 19.9555 13.1502 20.4999C13.1502 21.0444 13.3543 21.5207 13.7627 21.9291L19.071 27.2374C19.4453 27.6117 19.9217 27.7989 20.5002 27.7989C21.0786 27.7989 21.555 27.6117 21.9293 27.2374C22.3036 26.8631 22.4908 26.3867 22.4908 25.8083C22.4908 25.2298 22.3036 24.7534 21.9293 24.3791L20.0918 22.5416ZM20.5002 40.9166C17.6759 40.9166 15.0217 40.3806 12.5377 39.3088C10.0536 38.2369 7.89287 36.7822 6.05537 34.9447C4.21787 33.1072 2.76318 30.9464 1.69131 28.4624C0.619434 25.9784 0.0834961 23.3242 0.0834961 20.4999C0.0834961 17.6756 0.619434 15.0214 1.69131 12.5374C2.76318 10.0534 4.21787 7.89263 6.05537 6.05513C7.89287 4.21763 10.0536 2.76294 12.5377 1.69106C15.0217 0.619189 17.6759 0.083252 20.5002 0.083252C23.3245 0.083252 25.9786 0.619189 28.4627 1.69106C30.9467 2.76294 33.1075 4.21763 34.945 6.05513C36.7825 7.89263 38.2371 10.0534 39.309 12.5374C40.3809 15.0214 40.9168 17.6756 40.9168 20.4999C40.9168 23.3242 40.3809 25.9784 39.309 28.4624C38.2371 30.9464 36.7825 33.1072 34.945 34.9447C33.1075 36.7822 30.9467 38.2369 28.4627 39.3088C25.9786 40.3806 23.3245 40.9166 20.5002 40.9166ZM20.5002 36.8332C25.0599 36.8332 28.922 35.251 32.0866 32.0864C35.2512 28.9218 36.8335 25.0596 36.8335 20.4999C36.8335 15.9402 35.2512 12.078 32.0866 8.91346C28.922 5.74888 25.0599 4.16658 20.5002 4.16658C15.9404 4.16658 12.0783 5.74888 8.9137 8.91346C5.74912 12.078 4.16683 15.9402 4.16683 20.4999C4.16683 25.0596 5.74912 28.9218 8.9137 32.0864C12.0783 35.251 15.9404 36.8332 20.5002 36.8332Z" fill="white"/>
</svg>
