<svg width="31" height="31" viewBox="0 0 31 31" fill="none" xmlns="http://www.w3.org/2000/svg">
<path d="M3.83421 14.4424L11.2485 4.37598C11.397 4.18476 11.5675 4.06203 11.7599 4.0078C11.9524 3.95359 12.15 3.95508 12.3529 4.01226C12.5558 4.06941 12.7232 4.17784 12.855 4.33754C12.9867 4.49723 13.0526 4.68846 13.0526 4.91124V15.1492C13.0526 15.506 12.9277 15.8023 12.6777 16.0379C12.4277 16.2735 12.1134 16.3913 11.7348 16.3913H4.89788C4.6343 16.3913 4.4063 16.3292 4.21388 16.205C4.02143 16.0808 3.86769 15.923 3.75263 15.7318C3.63758 15.5406 3.58529 15.3321 3.59576 15.1063C3.6062 14.8806 3.68568 14.6593 3.83421 14.4424ZM5.48778 14.8535H11.4211V6.8246L5.48778 14.8535ZM19.1271 16.3913C18.5205 16.3913 18.1461 16.1877 18.0039 15.7806C17.8616 15.3735 17.8511 14.9462 17.9725 14.4986C18.1816 13.5838 18.3657 12.5483 18.5247 11.3921C18.6837 10.2358 18.7632 9.08293 18.7632 7.93356C18.7632 6.68561 18.6889 5.46969 18.5404 4.28579C18.3919 3.10192 18.213 2.03781 18.0038 1.09347C17.9494 0.882516 17.9615 0.702122 18.0399 0.552293C18.1184 0.402464 18.2287 0.283185 18.3709 0.194456C18.5132 0.0860183 18.6774 0.0224446 18.8635 0.00373516C19.0497 -0.0149999 19.2307 0.0367444 19.4064 0.158971C20.8079 0.961376 22.0499 1.90572 23.1323 2.99199C24.2148 4.07829 25.1828 5.28978 26.0362 6.62646C26.8541 7.9099 27.5282 9.25544 28.0585 10.6631C28.5887 12.0707 28.9532 13.5178 29.1519 15.0043C29.2063 15.3809 29.1001 15.7062 28.8335 15.9802C28.5668 16.2542 28.2336 16.3913 27.8341 16.3913H19.1271ZM19.5852 14.8535H27.5047C27.1051 12.328 26.225 9.97406 24.8643 7.79162C23.5036 5.60917 21.8412 3.77372 19.877 2.28524C20.036 3.19805 20.162 4.14487 20.2551 5.12568C20.3482 6.10649 20.3947 7.04245 20.3947 7.93356C20.3947 9.09872 20.3179 10.2727 20.1641 11.4556C20.0104 12.6385 19.8174 13.7711 19.5852 14.8535ZM10.6053 25.7952C9.87733 25.7952 9.17816 25.6656 8.50775 25.4064C7.83733 25.1471 7.19881 24.8292 6.59219 24.4527C6.44997 24.364 6.30983 24.3038 6.17177 24.2723C6.03371 24.2407 5.89042 24.2348 5.74189 24.2545C5.59339 24.2743 5.45168 24.3063 5.31674 24.3506C5.18184 24.395 5.05686 24.4714 4.94181 24.5798C4.78074 24.7257 4.61863 24.8475 4.45548 24.9451C4.29232 25.0427 4.11347 25.126 3.91893 25.1949C3.30184 24.7474 2.75118 24.254 2.26696 23.7148C1.7827 23.1756 1.3701 22.5837 1.02916 21.939C0.811615 21.5507 0.839325 21.1697 1.11229 20.7961C1.38528 20.4225 1.75187 20.2357 2.21205 20.2357H28.7879C29.2481 20.2357 29.6064 20.421 29.8626 20.7916C30.1189 21.1623 30.1549 21.5447 29.9708 21.939C29.5964 22.564 29.1755 23.151 28.708 23.7C28.2405 24.2491 27.6982 24.7474 27.0811 25.1949C26.9075 25.126 26.7286 25.0377 26.5445 24.9303C26.3605 24.8228 26.1983 24.706 26.0582 24.5798C25.9431 24.4714 25.8182 24.395 25.6833 24.3506C25.5483 24.3063 25.4066 24.2743 25.2581 24.2545C25.1096 24.2348 24.9663 24.2393 24.8282 24.2679C24.6902 24.2964 24.55 24.3551 24.4078 24.4438C23.8012 24.8204 23.1627 25.1398 22.4923 25.402C21.8218 25.6642 21.1227 25.7952 20.3947 25.7952C19.625 25.7952 18.8965 25.6528 18.2094 25.3679C17.5222 25.0831 16.8649 24.7425 16.2374 24.3462C16.1223 24.2772 16.0078 24.222 15.8938 24.1806C15.7798 24.1392 15.6485 24.1185 15.5 24.1185C15.3515 24.1185 15.2202 24.1392 15.1062 24.1806C14.9922 24.222 14.8777 24.2772 14.7626 24.3462C14.1351 24.7425 13.4778 25.0831 12.7906 25.3679C12.1035 25.6528 11.375 25.7952 10.6053 25.7952ZM15.5 29.758C14.6486 30.1818 13.8151 30.4948 12.9993 30.6969C12.1835 30.899 11.3855 31 10.6053 31C9.82504 31 9.02704 30.899 8.21125 30.6969C7.39546 30.4948 6.56188 30.1818 5.71053 29.758C4.85917 30.1818 4.02559 30.4948 3.20981 30.6969C2.39402 30.899 1.59601 31 0.815789 31C0.583589 31 0.38958 30.9266 0.233765 30.7797C0.0779216 30.6328 0 30.4499 0 30.2311C0 30.0123 0.0779216 29.8294 0.233765 29.6825C0.38958 29.5357 0.583589 29.4622 0.815789 29.4622C1.59182 29.4622 2.33178 29.3405 3.03568 29.097C3.73957 28.8535 4.43874 28.578 5.13319 28.2705C5.22733 28.2192 5.32356 28.1857 5.42186 28.1699C5.52016 28.1541 5.61638 28.1463 5.71053 28.1463C5.80467 28.1463 5.90089 28.1541 5.99919 28.1699C6.0975 28.1857 6.19372 28.2192 6.28786 28.2705C6.98232 28.578 7.68149 28.8521 8.38538 29.0926C9.08927 29.3331 9.82923 29.4534 10.6053 29.4534C11.3813 29.4534 12.1213 29.3331 12.8251 29.0926C13.529 28.8521 14.2282 28.578 14.9227 28.2705C15.0168 28.2192 15.113 28.1857 15.2113 28.1699C15.3096 28.1541 15.4059 28.1463 15.5 28.1463C15.5941 28.1463 15.6904 28.1541 15.7887 28.1699C15.887 28.1857 15.9832 28.2192 16.0773 28.2705C16.7718 28.578 17.471 28.8521 18.1749 29.0926C18.8787 29.3331 19.6187 29.4534 20.3947 29.4534C21.1708 29.4534 21.9107 29.3331 22.6146 29.0926C23.3185 28.8521 24.0177 28.578 24.7121 28.2705C24.7791 28.2389 24.9715 28.1975 25.2895 28.1463C25.3229 28.1463 25.5154 28.1877 25.8668 28.2705C26.5613 28.578 27.2604 28.8535 27.9643 29.097C28.6682 29.3405 29.4082 29.4622 30.1842 29.4622C30.4164 29.4622 30.6104 29.5357 30.7662 29.6825C30.9221 29.8294 31 30.0123 31 30.2311C31 30.4499 30.9221 30.6328 30.7662 30.7797C30.6104 30.9266 30.4164 31 30.1842 31C29.404 31 28.606 30.899 27.7902 30.6969C26.9744 30.4948 26.1408 30.1818 25.2895 29.758C24.4381 30.1818 23.6045 30.4948 22.7888 30.6969C21.973 30.899 21.175 31 20.3947 31C19.6145 31 18.8165 30.899 18.0007 30.6969C17.1849 30.4948 16.3514 30.1818 15.5 29.758Z" fill="white"/>
</svg>
