<svg width="6" height="26" viewBox="0 0 6 26" fill="none" xmlns="http://www.w3.org/2000/svg">
<path d="M0.471924 3.08809C0.471924 2.12809 0.663924 1.45609 1.04792 1.07209C1.43192 0.688094 2.07192 0.496094 2.96792 0.496094C3.63992 0.496094 4.15192 0.576094 4.50392 0.736094C4.88792 0.896094 5.15992 1.16809 5.31992 1.55209C5.51192 1.93609 5.60792 2.44809 5.60792 3.08809C5.60792 4.04809 5.41592 4.70409 5.03192 5.05609C4.64792 5.44009 3.97592 5.63209 3.01592 5.63209C2.37592 5.63209 1.86392 5.55209 1.47992 5.39209C1.12792 5.23209 0.871924 4.96009 0.711924 4.57609C0.551924 4.22409 0.471924 3.72809 0.471924 3.08809Z" fill="white"/>
<path d="M0.471924 13.2131C0.471924 12.2531 0.663924 11.5811 1.04792 11.1971C1.43192 10.8131 2.07192 10.6211 2.96792 10.6211C3.63992 10.6211 4.15192 10.7011 4.50392 10.8611C4.88792 11.0211 5.15992 11.2931 5.31992 11.6771C5.51192 12.0611 5.60792 12.5731 5.60792 13.2131C5.60792 14.1731 5.41592 14.8291 5.03192 15.1811C4.64792 15.5651 3.97592 15.7571 3.01592 15.7571C2.37592 15.7571 1.86392 15.6771 1.47992 15.5171C1.12792 15.3571 0.871924 15.0851 0.711924 14.7011C0.551924 14.3491 0.471924 13.8531 0.471924 13.2131Z" fill="white"/>
<path d="M0.471924 23.3381C0.471924 22.3781 0.663924 21.7061 1.04792 21.3221C1.43192 20.9381 2.07192 20.7461 2.96792 20.7461C3.63992 20.7461 4.15192 20.8261 4.50392 20.9861C4.88792 21.1461 5.15992 21.4181 5.31992 21.8021C5.51192 22.1861 5.60792 22.6981 5.60792 23.3381C5.60792 24.2981 5.41592 24.9541 5.03192 25.3061C4.64792 25.6901 3.97592 25.8821 3.01592 25.8821C2.37592 25.8821 1.86392 25.8021 1.47992 25.6421C1.12792 25.4821 0.871924 25.2101 0.711924 24.8261C0.551924 24.4741 0.471924 23.9781 0.471924 23.3381Z" fill="white"/>
</svg>
