<svg width="30" height="30" viewBox="0 0 30 30" fill="none" xmlns="http://www.w3.org/2000/svg">
<mask id="mask0_160_404" style="mask-type:alpha" maskUnits="userSpaceOnUse" x="0" y="0" width="30" height="30">
<rect x="30" width="30" height="30" transform="rotate(90 30 0)" fill="#D9D9D9"/>
</mask>
<g mask="url(#mask0_160_404)">
<path d="M15.1874 9.30543C15.9854 9.71247 16.7691 10.1496 17.5383 10.6167C18.3076 11.0839 19.0456 11.5851 19.7523 12.1203L20.2283 9.7718C20.2443 9.70768 20.2423 9.64557 20.2222 9.58549C20.2022 9.52538 20.1682 9.47129 20.1201 9.42321L16.7258 6.01696C16.7018 5.99292 16.6718 5.98491 16.6357 5.99293C16.5996 6.00093 16.5776 6.02096 16.5696 6.05302L15.1874 9.30543ZM24.9975 24.7501C24.8612 22.577 24.4181 20.6904 23.6681 19.0902C22.9182 17.4901 21.7827 15.9296 20.2619 14.4088C19.5279 13.6748 18.6461 12.9641 17.6165 12.2766C16.5868 11.5891 15.4903 10.9785 14.3268 10.4448L10.3389 14.4208C10.8805 15.5842 11.4951 16.6828 12.1826 17.7164C12.8701 18.7501 13.5808 19.6339 14.3148 20.3679C15.8356 21.8887 17.3909 23.0241 18.9807 23.7741C20.5704 24.5241 22.4518 24.9672 24.6249 25.1034C24.6714 25.1034 24.7198 25.097 24.7703 25.0842C24.8208 25.0714 24.8669 25.0482 24.9085 25.0145C24.9422 24.9808 24.9654 24.942 24.9782 24.8979C24.9911 24.8538 24.9975 24.8046 24.9975 24.7501ZM17.459 17.5842C17.8276 17.2076 18.2851 17.0193 18.8316 17.0193C19.3781 17.0193 19.8396 17.2076 20.2162 17.5842C20.5928 17.9608 20.7811 18.4224 20.7811 18.9688C20.7811 19.5153 20.5928 19.9768 20.2162 20.3534C19.8396 20.73 19.3781 20.9183 18.8316 20.9183C18.2851 20.9183 17.8276 20.73 17.459 20.3534C17.0824 19.9768 16.8941 19.5153 16.8941 18.9688C16.8941 18.4224 17.0824 17.9608 17.459 17.5842ZM9.18023 15.2813L5.94704 16.6635C5.915 16.6715 5.89697 16.6936 5.89295 16.7296C5.88895 16.7657 5.89897 16.7958 5.92301 16.8198L9.30523 20.214C9.35331 20.2621 9.4094 20.2962 9.47351 20.3162C9.53761 20.3362 9.59771 20.3382 9.65379 20.3222L12.0144 19.8655C11.4791 19.1587 10.9727 18.4196 10.4951 17.6479C10.0176 16.8763 9.57927 16.0874 9.18023 15.2813ZM25.5191 26.5529C23.1072 26.5513 20.9085 26.1294 18.923 25.2873C16.9374 24.4452 15.0696 23.1531 13.3196 21.4111C13.2748 21.3582 13.2291 21.3054 13.1826 21.2525C13.1362 21.1996 13.0905 21.1467 13.0456 21.0938L9.94466 21.7092C9.64016 21.7717 9.34809 21.7593 9.06844 21.6719C8.7888 21.5846 8.54241 21.4344 8.32929 21.2212L4.2716 17.1756C4.05046 16.9464 3.97113 16.6764 4.03363 16.3655C4.09613 16.0546 4.27962 15.8406 4.5841 15.7236L8.90138 13.8631L13.7691 9.01455L15.6104 4.67805C15.7354 4.37357 15.9566 4.19729 16.2739 4.14921C16.5912 4.10114 16.8605 4.18769 17.0816 4.40883L21.12 8.43524C21.3332 8.64838 21.4846 8.89678 21.5744 9.18043C21.6641 9.46409 21.6777 9.75415 21.6152 10.0506L20.9998 13.1516C21.0447 13.1964 21.0904 13.2433 21.1369 13.2922C21.1834 13.3411 21.229 13.392 21.2739 13.4448C23.0239 15.1868 24.322 17.0474 25.1681 19.0265C26.0142 21.0057 26.4341 23.2012 26.4277 25.613C26.4357 25.738 26.4157 25.8558 26.3676 25.9664C26.3195 26.077 26.2474 26.1803 26.1513 26.2765C26.0471 26.3726 25.947 26.4427 25.8508 26.4868C25.7547 26.5309 25.6441 26.5529 25.5191 26.5529ZM9.99991 5.47374C10.6169 6.0827 10.9266 6.82307 10.929 7.69486C10.9314 8.56663 10.6241 9.31101 10.0071 9.92799C9.39814 10.5369 8.65777 10.8382 7.78598 10.8318C6.91421 10.8254 6.16983 10.5177 5.55285 9.90877C4.72593 9.07383 4.21553 8.08025 4.02163 6.92802C3.82772 5.77579 3.66105 4.61635 3.52163 3.44971C4.6963 3.58912 5.86295 3.75258 7.02157 3.94008C8.18022 4.12758 9.173 4.6388 9.99991 5.47374ZM8.96866 6.46168C8.47508 5.99374 7.90016 5.68685 7.24391 5.54102C6.58768 5.39519 5.91902 5.26778 5.23791 5.1588C5.34689 5.83988 5.47831 6.50655 5.63216 7.1588C5.786 7.81103 6.09689 8.38795 6.56485 8.88955C6.88696 9.25813 7.28759 9.44243 7.76676 9.44243C8.24592 9.44243 8.66339 9.27096 9.01916 8.92802C9.3621 8.57225 9.53157 8.15478 9.52757 7.67561C9.52357 7.19645 9.33727 6.7918 8.96866 6.46168Z" fill="white"/>
</g>
</svg>
