<svg width="82" height="82" viewBox="0 0 82 82" fill="none" xmlns="http://www.w3.org/2000/svg">
<path fill-rule="evenodd" clip-rule="evenodd" d="M45.3732 79.0886C45.3732 79.9912 45.3844 81.7255 46.6514 81.7255C47.9834 81.7255 47.9218 79.9189 47.9218 78.9887C47.9218 78.107 47.8754 76.4639 46.6514 76.4639C45.3814 76.4639 45.3732 78.182 45.3732 79.0886ZM44.6567 79.0964C44.6567 77.7501 44.9976 76.1895 46.6439 76.1895C48.3204 76.1895 48.6385 77.7222 48.6385 79.0964C48.6385 80.4409 48.2841 82 46.6439 82C45.0025 82 44.6567 80.4393 44.6567 79.0964ZM40.8287 79.2431C41.1926 78.771 41.6707 78.5185 42.2701 78.5185C43.233 78.5185 43.8477 79.1333 43.8477 80.0961C43.8477 81.2448 43.1387 82 41.9784 82C40.5882 82 40.1118 80.8034 40.1118 79.5916C40.1118 78.5752 40.3498 77.7504 40.8242 77.1163C41.394 76.3545 42.2918 75.9681 43.2151 76.2593C43.2151 76.393 43.2151 76.5267 43.2151 76.6601C42.576 76.1618 41.7854 76.5951 41.4026 77.1991C41.0903 77.6952 40.8983 78.3762 40.8287 79.2431ZM40.8869 80.2423C40.8869 80.9118 41.2042 81.7255 41.9855 81.7255C42.8311 81.7255 43.1144 80.9516 43.1144 80.2255C43.1144 79.5056 42.8672 78.8354 42.039 78.8354C41.2435 78.8354 40.8869 79.5269 40.8869 80.2423ZM35.8461 81.8458C35.8461 81.6893 35.8461 81.5325 35.8461 81.3757C36.5383 81.9127 37.3392 81.8075 37.8422 81.067C38.2407 80.4951 38.4273 79.5656 38.3704 78.8806C38.0727 79.4281 37.5568 79.6341 36.9556 79.6341C35.979 79.6341 35.3755 78.965 35.3755 78.0049C35.3755 76.8877 36.1872 76.1811 37.2791 76.1811C38.6728 76.1811 39.1329 77.3424 39.1329 78.5595C39.1329 79.5943 38.9065 80.4258 38.4535 81.0515C37.824 81.9235 36.8216 82.1994 35.8461 81.8458ZM37.2288 76.4443C36.3893 76.4443 36.0579 77.2839 36.0579 78.0063C36.0579 78.7284 36.4333 79.2972 37.2037 79.2972C38.0512 79.2972 38.3382 78.6052 38.3382 77.8602C38.3382 77.1321 38.0602 76.4443 37.2288 76.4443ZM33.363 81.9992C33.4288 80.2979 33.4745 78.5593 33.4155 76.8559L32.1191 77.6052C32.049 77.4523 31.9687 77.3276 31.8431 77.214C32.6435 76.9213 33.4279 76.5228 34.1889 76.1394C34.0847 78.0677 34.0731 80.0666 34.1289 81.9992C33.9006 81.9528 33.5922 81.9559 33.363 81.9992ZM50.3647 8.17375C49.8511 8.48775 49.2964 8.60093 48.7089 8.44415C47.9164 8.23345 47.4422 7.70961 47.6671 6.86468C47.8702 6.1018 48.4102 5.84708 49.1619 5.87629C49.5883 5.89862 50.715 6.03608 51.0127 5.88272C51.1181 5.48646 51.2539 5.00257 51.0676 4.6134C50.6969 3.84171 49.4583 3.90055 48.8428 4.44372L48.7648 4.42332L48.9244 3.90399C49.7354 3.52856 51.2807 3.60546 51.7571 4.48561C52.0052 4.94029 51.8866 5.50472 51.7597 5.97787L51.2691 7.6643C51.0962 8.31378 50.9137 8.54509 51.6278 8.74999L51.6143 8.95338C50.9976 8.99226 50.2777 9.01266 50.3647 8.17375ZM50.8816 6.29445C49.9764 6.20876 49.3782 6.21434 49.0865 6.31185C48.7936 6.40699 48.6041 6.62048 48.5156 6.95102C48.3634 7.52426 48.5558 7.9667 49.1482 8.12585C49.645 8.25923 50.4005 8.10072 50.5539 7.52448L50.8816 6.29445ZM44.2392 7.65635C44.478 6.18835 44.774 4.35609 44.8228 2.85395C45.0672 2.95017 45.4261 2.98153 45.6875 2.95941C45.5994 3.32818 45.5322 3.69953 45.4864 4.07603C45.974 3.30906 46.4108 2.86104 47.2852 3.15893C47.2096 3.40163 47.1729 3.67182 47.1428 3.92375L47.0569 3.9637C45.7955 3.13917 45.3728 4.76653 45.2592 5.70016C45.1765 6.38423 45.0957 7.07903 45.0579 7.76674C44.8215 7.68234 44.4914 7.64905 44.2392 7.65635ZM39.1752 4.54059L41.8756 4.53758C41.8756 3.66602 41.6513 2.74935 40.5903 2.75107C39.6251 2.75257 39.2035 3.69931 39.1752 4.54059ZM42.4398 6.89239C41.9172 7.27018 41.3442 7.474 40.6971 7.474C39.2173 7.47637 38.2744 6.42783 38.272 4.97486C38.2714 3.51825 39.1161 2.43686 40.6307 2.43406C42.2437 2.43278 42.684 3.5 42.684 4.89325L39.1556 4.8969C39.1498 6.06292 39.5639 7.06958 40.8814 7.06829C41.5111 7.06829 42.015 6.81335 42.4598 6.37994C42.4486 6.55562 42.4391 6.7167 42.4398 6.89239ZM36.0261 7.72014C35.9836 7.43255 35.9361 7.01696 35.8407 6.74548C35.6092 7.532 35.1367 7.98775 34.327 8.14497C32.9541 8.41344 32.0836 7.41043 31.8381 6.15442C31.5817 4.8445 32.0389 3.46778 33.4775 3.18664C34.194 3.04575 34.7701 3.26589 35.2593 3.79853C35.0222 2.58677 34.7984 1.37157 34.5125 0.169894C34.8603 0.192446 35.0667 0.157649 35.379 2.8289e-06C35.761 2.51246 36.313 5.08032 36.8577 7.55798C36.5568 7.54789 36.3021 7.60072 36.0261 7.72014ZM33.7507 3.53243C32.5675 3.76439 32.4764 4.97852 32.6687 5.96005C32.8461 6.86619 33.3448 7.94286 34.4543 7.72615C35.6867 7.4856 35.7406 6.2064 35.5433 5.19845C35.3622 4.27212 34.8495 3.31744 33.7507 3.53243ZM26.9708 7.18771L29.491 6.2167C29.1787 5.40764 28.6448 4.6265 27.651 5.00945C26.7507 5.35609 26.697 6.39282 26.9708 7.18771ZM30.8617 8.21262C30.5095 8.75407 30.0469 9.14733 29.4427 9.381C28.0623 9.91236 26.8067 9.27318 26.2837 7.91687C25.7612 6.55798 26.1615 5.24377 27.575 4.6991C29.0922 4.11512 29.8536 4.95962 30.3733 6.25837L27.0801 7.52705C27.4962 8.60738 28.2294 9.41301 29.4698 8.93599C30.0587 8.70897 30.4365 8.29381 30.697 7.72723C30.7486 7.89454 30.7988 8.0496 30.8617 8.21262ZM23.1838 12.1849C22.3282 10.2644 21.0378 7.95811 19.8874 5.99291C20.9691 5.48561 22.0767 4.85352 23.122 4.26804C23.2279 4.46263 23.3293 4.65979 23.4362 4.85674C22.645 5.08096 21.6873 5.59643 20.956 5.98496C21.329 6.76202 21.7384 7.51288 22.143 8.27297C22.9003 7.86941 23.6458 7.48281 24.3559 6.99677C24.4502 7.17031 24.5208 7.35695 24.6373 7.52319C23.8598 7.8853 23.1029 8.25192 22.3458 8.65355C22.8069 9.51824 23.5097 10.9199 24.0322 11.7322C23.761 11.8232 23.4031 11.9996 23.1838 12.1849ZM14.8953 14.8763L16.9005 13.0666C16.3148 12.4209 15.539 11.8857 14.7491 12.5992C14.0326 13.2446 14.355 14.2328 14.8953 14.8763ZM18.8949 14.4388C18.7601 15.0715 18.4703 15.6022 17.989 16.0376C16.8911 17.0275 15.4881 16.8816 14.5145 15.8026C13.5461 14.7287 13.4503 13.3451 14.5672 12.3368C15.7504 11.2676 16.8082 11.738 17.7384 12.7899L15.1191 15.154C15.8848 16.0206 16.8762 16.4942 17.8548 15.613C18.3236 15.1888 18.5257 14.6679 18.5672 14.0453C18.6763 14.1825 18.7775 14.3084 18.8949 14.4388ZM14.6576 19.2846C14.4508 19.088 14.1494 18.7809 13.9112 18.6303C14.213 19.3941 14.1211 20.0414 13.5798 20.6656C12.6681 21.7175 11.3539 21.4626 10.3929 20.6286C9.38444 19.7545 8.89715 18.3877 9.85762 17.2809C10.3357 16.7291 10.925 16.5474 11.6385 16.6664C10.7063 15.858 9.7812 15.0352 8.81562 14.2667C9.10304 14.0737 9.24677 13.9128 9.39434 13.599C11.2457 15.3501 13.2458 17.0174 15.2126 18.6445C14.9718 18.8198 14.7987 19.0225 14.6576 19.2846ZM10.2859 17.3849C9.49584 18.2959 10.1727 19.3099 10.9279 19.9648C11.6266 20.5702 12.6812 21.1108 13.4228 20.2568C14.2441 19.3077 13.5012 18.268 12.7248 17.5947C12.0109 16.9761 11.0202 16.5395 10.2859 17.3849ZM10.4985 23.8954C10.6778 24.4708 10.6543 25.0345 10.3601 25.5674C9.96258 26.2856 9.34123 26.619 8.57492 26.1965C7.88486 25.814 7.76722 25.2289 7.97781 24.5071C8.10198 24.0979 8.5087 23.0393 8.43203 22.7128C8.07244 22.5141 7.63685 22.2654 7.2135 22.352C6.3574 22.5277 6.13557 23.7465 6.51019 24.4703L6.47099 24.5406L6.00621 24.2603C5.83448 23.358 6.3007 21.8969 7.25637 21.652C7.75758 21.5217 8.27623 21.7749 8.70486 22.0109L10.2222 22.8947C10.8167 23.2233 11.013 23.454 11.3623 22.8093L11.5569 22.872C11.4252 23.5116 11.2922 24.1838 10.4985 23.8954ZM8.79966 22.9392C8.49738 23.7968 8.35821 24.379 8.38203 24.6855C8.40376 24.9929 8.56467 25.2285 8.86377 25.3941C9.38216 25.6806 9.86047 25.6005 10.1574 25.0644C10.4048 24.6155 10.439 23.8413 9.91374 23.5552L8.79966 22.9392ZM8.76435 28.7147C8.49562 28.6093 8.11321 28.4394 7.82672 28.3881C8.39242 28.9828 8.55076 29.6179 8.28203 30.3986C7.82788 31.7229 6.52469 31.974 5.31356 31.5586C4.05055 31.1258 3.0874 30.0408 3.56303 28.655C3.80003 27.9641 4.2785 27.5754 4.98451 27.4181C3.81623 27.0174 2.6514 26.6046 1.46793 26.2502C1.66374 25.9602 1.73322 25.7644 1.75427 25.4151C4.12111 26.3404 6.62128 27.146 9.03912 27.9136C8.88139 28.1664 8.79631 28.4183 8.76435 28.7147ZM3.99928 28.591C3.60817 29.7315 4.61469 30.4181 5.56055 30.7422C6.43519 31.0423 7.61555 31.1486 7.9831 30.0784C8.39057 28.8913 7.31091 28.2051 6.33938 27.8722C5.44721 27.5655 4.36282 27.5328 3.99928 28.591ZM0.411414 33.2008C0.125566 33.1406 -0.0486836 32.8679 0.0120557 32.5831C0.0720433 32.2991 0.341698 32.1205 0.626429 32.1808C0.910344 32.2412 1.09643 32.5131 1.03644 32.7994C0.975529 33.0859 0.696081 33.2609 0.411414 33.2008ZM6.92858 34.4748C5.35415 34.0822 3.79022 33.7431 2.18971 33.4738C2.30355 33.2173 2.35331 32.9284 2.36437 32.6499C3.93938 33.0483 5.50198 33.3732 7.10276 33.6512C6.9739 33.9445 6.93144 34.1552 6.92858 34.4748ZM5.18033 38.571C5.66046 38.3341 6.03499 37.9802 6.10261 37.4263C6.17376 36.8408 5.89764 36.3956 5.29156 36.3225C4.76394 36.2577 4.54682 36.5863 4.35846 37.0262L4.17197 37.4793C3.88554 38.164 3.49297 38.512 2.72363 38.4186C1.81703 38.3086 1.40032 37.5487 1.50442 36.6898C1.55829 36.2476 1.71207 35.8107 1.99356 35.4611C2.19407 35.5786 2.39191 35.678 2.61347 35.7491C2.22461 36.0051 1.85219 36.3651 1.7937 36.8507C1.73161 37.3591 2.03273 37.7585 2.54442 37.821C3.06407 37.8833 3.30639 37.5949 3.49541 37.149L3.78326 36.4819C4.03638 35.8805 4.39991 35.562 5.07612 35.6443C6.10546 35.7695 6.57269 36.6817 6.45497 37.6464C6.39844 38.1078 6.24634 38.564 5.93188 38.9151C5.68506 38.7858 5.43864 38.6754 5.18033 38.571ZM6.09077 42.0238C4.60756 41.9641 2.73134 41.8992 1.25249 42.0292C1.31952 41.7719 1.30459 41.4183 1.25148 41.1582C1.62783 41.201 2.0053 41.2225 2.38409 41.222C1.57674 40.8365 1.06389 40.4591 1.25474 39.5478C1.50191 39.5951 1.7802 39.5966 2.03146 39.5966L2.08132 39.6769C1.41868 41.0367 3.10795 41.2506 4.0237 41.2489C4.71192 41.2484 5.41364 41.2448 6.09992 41.1971C6.04582 41.4484 6.0516 41.7691 6.09077 42.0238ZM3.55347 47.2261L3.31519 44.5365C2.44601 44.6129 1.55367 44.9151 1.64705 45.9729C1.73322 46.9346 2.71255 47.2712 3.55347 47.2261ZM5.61098 43.7695C6.03439 44.2562 6.28543 44.8105 6.3429 45.4551C6.47385 46.9286 5.5124 47.96 4.06473 48.0882C2.61474 48.2169 1.46155 47.4684 1.32792 45.96C1.18612 44.3543 2.2101 43.8206 3.59868 43.7001L3.91028 47.2156C5.06345 47.0964 6.04028 46.6481 5.92282 45.3066C5.86702 44.6776 5.57187 44.2014 5.09996 43.7942C5.27479 43.7895 5.43697 43.7852 5.61098 43.7695ZM7.30268 51.0418C5.87752 51.9452 4.44495 53.1494 3.13691 54.2186C3.1266 53.9202 3.01794 53.5715 2.89043 53.3032C4.04149 52.6509 5.23385 51.6713 6.25942 50.8333C4.89985 50.5399 3.49499 50.3773 2.10346 50.3799C2.10773 50.1666 2.0459 49.937 1.93574 49.7553C3.56075 50.018 5.51693 50.3876 7.14604 50.4598C7.16007 50.6217 7.22886 50.8977 7.30268 51.0418ZM2.48804 57.42C2.21639 57.5298 1.92115 57.4009 1.81108 57.1312C1.70225 56.8616 1.82667 56.5639 2.09607 56.454C2.36506 56.3455 2.6717 56.4664 2.78177 56.7377C2.8921 57.0089 2.75735 57.3105 2.48804 57.42ZM8.60368 54.832C7.0801 55.3857 5.59092 55.9802 4.11516 56.6511C4.06473 56.3741 3.9472 56.1093 3.79902 55.8713C5.32975 55.3187 6.80122 54.7156 8.28731 54.0513C8.34311 54.3663 8.4281 54.5663 8.60368 54.832ZM11.2151 60.1653C9.84387 60.7836 8.22975 61.6653 6.93672 62.4467C6.87263 62.2246 6.72336 61.8912 6.5528 61.7261C6.81801 61.5852 7.08068 61.4587 7.34884 61.3133C6.62454 61.2854 6.05731 61.0115 5.70812 60.3571C5.15348 59.3176 5.57539 58.5648 6.55338 58.0429C7.47921 57.5506 8.3837 57.0912 9.29945 56.5725C9.38141 56.8739 9.49645 57.0721 9.69301 57.3116C8.81721 57.7151 7.95013 58.1728 7.09931 58.6264C6.39123 59.0044 5.8714 59.5562 6.30823 60.3732C6.86683 61.4205 7.91153 61.0016 8.72844 60.5659C9.42613 60.1945 10.1454 59.8318 10.8127 59.4106C10.9054 59.7192 11.0069 59.9187 11.2151 60.1653ZM10.9122 70.8859C10.7606 70.634 10.5165 70.3693 10.2811 70.1946C11.2178 69.3758 12.1579 68.5538 13.0811 67.7205C14.2583 66.6582 15.0657 65.5248 13.7938 64.1174C13.0747 63.3199 12.1598 63.0908 11.2109 63.6436C10.8945 63.8268 10.4093 64.2143 9.75375 64.8058C8.95907 65.5235 8.16927 66.2495 7.39454 66.9887C7.30066 66.8006 7.12785 66.6198 6.95517 66.5021C8.10382 65.5476 9.47514 64.1752 10.6229 63.3876C11.9696 62.4638 13.1756 62.7214 14.2583 63.9215C15.6774 65.4928 15.4473 66.792 13.9233 68.1685C12.9151 69.056 11.865 69.9408 10.9122 70.8859ZM65.0761 13.3625L67.054 15.2014C68.754 13.3758 66.6906 11.7444 65.0761 13.3625ZM65.8611 17.3075C63.7563 17.0485 62.5145 14.7897 64.1201 13.0633C66.2888 10.7319 69.8339 13.428 67.4024 16.0124L64.8192 13.6095C63.3592 15.1585 64.2084 16.9892 66.2243 16.9474C66.0987 17.0657 65.9771 17.1823 65.8611 17.3075ZM60.5357 13.6265C60.7151 13.3664 60.9373 13.0788 61.0649 12.7876C59.8766 13.489 58.296 12.8589 58.0868 11.4216C57.8705 9.93062 58.7818 8.81592 59.865 8.42202C61.15 7.95446 62.6655 8.47572 62.6493 10.2356C63.3023 9.18749 63.9666 8.14561 64.5787 7.07173C64.8031 7.31357 65.0104 7.4463 65.3276 7.53951C63.8828 9.65076 62.5561 11.8737 61.2546 14.0747C61.0475 13.8679 60.8111 13.7242 60.5357 13.6265ZM61.7282 9.01202C59.9816 7.92332 57.7256 11.527 59.3821 12.559C61.1195 13.6415 63.4586 10.0904 61.7282 9.01202ZM52.8136 9.57989C53.8226 7.32237 54.8396 4.76074 55.5647 2.38703C55.8306 2.51031 56.0795 2.60287 56.3591 2.69072C55.3121 4.99656 54.4051 7.48131 53.6027 9.88186C53.3561 9.74591 53.09 9.63702 52.8136 9.57989ZM64.8358 67.3637C64.798 65.2136 67.6142 64.3302 67.7415 66.8779C67.7703 67.4563 66.5227 68.3814 66.4838 69.0822C67.1743 69.7791 68.4082 70.4126 68.8036 69.077C68.8725 68.8438 68.7851 68.33 68.8848 68.2317L69.2512 68.6324C69.1928 69.236 68.9093 69.7814 68.4795 70.2058C66.7022 71.9621 64.7926 67.0727 63.6996 68.1616L63.531 68.0469C63.8276 67.4694 64.1637 66.8713 64.8358 67.3637ZM66.1953 68.7609C66.6331 68.1539 67.5424 67.1129 66.8263 66.3878C65.7845 65.3337 64.5639 67.1077 65.2999 67.8552L66.1953 68.7609ZM73.1909 67.6198C73.7115 68.0622 73.0373 68.8562 72.5158 68.4138C71.9849 67.9634 72.6602 67.1692 73.1909 67.6198ZM68.0643 63.3985C69.2572 64.4892 70.4808 65.5379 71.7559 66.5334C71.5328 66.7074 71.3539 66.9325 71.2108 67.1752C70.0201 66.0796 68.7881 65.0416 67.5188 64.0403C67.7566 63.8549 67.9187 63.6619 68.0643 63.3985ZM70.1597 60.3494C71.423 61.2918 72.7794 62.3058 74.1548 63.0781C73.9443 63.2637 73.7718 63.5396 73.6632 63.7976C73.3773 63.5497 73.0766 63.3178 72.765 63.1049C73.1945 63.8466 73.4095 64.4963 72.7517 65.1247C72.5689 64.9415 72.3487 64.7905 72.138 64.6449L72.1419 64.5506C74.0365 63.4705 70.5953 61.5609 69.6853 61.0259C69.8796 60.8427 70.045 60.5903 70.1597 60.3494ZM71.9877 58.3874C71.5377 57.2147 72.074 54.8238 73.7587 55.6213C75.4463 56.4196 73.7897 58.3307 74.1237 59.4379C75.4746 60.077 76.6735 58.4561 75.9276 57.2141L75.9624 57.1408L76.4437 57.3921C76.8198 58.8565 75.5564 60.9426 73.8953 60.1556C73.6318 60.0235 71.9351 59.0244 71.5328 59.0994C71.3348 59.1365 71.2677 59.3655 71.1926 59.5257L70.9952 59.4752C71.0762 58.8313 71.1894 58.1546 71.9877 58.3874ZM73.7424 59.2353C73.949 58.5046 74.4656 56.887 73.5203 56.44C72.0442 55.7407 71.6666 58.2519 72.5919 58.6904L73.7424 59.2353ZM75.3891 46.2691C77.494 47.387 79.8009 48.268 82 49.1784L81.9549 49.3434C79.9025 49.7495 77.849 50.1662 75.8142 50.6526C77.3144 52.1443 78.8445 53.609 80.3877 55.0573L80.3524 55.1872C77.9873 54.7974 75.6176 54.4376 73.2478 54.0773C73.3919 53.7929 73.4699 53.5096 73.4901 53.1928C75.1385 53.518 76.8947 53.9179 78.5745 54.0289C77.2858 52.69 75.8694 51.2029 74.3386 50.14L74.3754 50.0051C76.1686 49.981 78.251 49.2693 79.9781 48.8689C78.4242 48.1947 76.8105 47.4969 75.1812 47.0285C75.3191 46.7862 75.373 46.5442 75.3891 46.2691ZM76.0433 41.163C75.0848 40.3584 74.7628 38.2961 76.4239 38.1894C78.2895 38.07 77.62 40.2688 78.4214 41.047C79.2725 40.9922 79.9695 40.8408 79.904 39.8064C79.8587 39.0902 79.1003 38.6421 79.0883 38.4508L79.6308 38.4364C80.047 38.8767 80.2743 39.449 80.3129 40.0509C80.5073 43.111 75.8015 40.8754 75.9001 42.5444L75.7025 42.5962C75.46 41.9935 75.2323 41.3468 76.0433 41.163ZM77.9892 41.0541C77.8189 40.3249 77.6299 38.9559 76.6125 39.021C75.134 39.1157 75.6722 41.2016 76.7193 41.1359L77.9892 41.0541ZM79.1147 34.1662C79.2691 34.1574 79.3898 34.1355 79.5391 34.1121C79.558 34.3296 79.5797 34.5489 79.613 34.7656C80.0086 34.7051 80.4016 34.6376 80.7962 34.5642C80.8823 34.8354 81.0036 35.1015 81.171 35.3329C80.6733 35.3853 80.1877 35.4533 79.6931 35.5287C79.7596 35.9684 79.8522 36.4048 79.9596 36.8365C79.8155 36.8434 79.6797 36.85 79.5378 36.8713C79.4961 36.4456 79.46 35.9916 79.361 35.5741C78.4085 35.6507 77.4278 35.8032 76.4862 35.9469C74.2772 36.2826 76.0996 37.445 75.4463 37.7787C74.597 36.8374 74.635 35.4473 76.1271 35.2205C77.161 35.0631 78.2059 34.9589 79.2433 34.8013C79.2102 34.5857 79.1712 34.3765 79.1147 34.1662ZM73.3837 29.7676C74.9289 29.4454 76.559 28.9637 78.0524 28.4587C78.067 28.7046 78.134 29.036 78.2727 29.2444C77.9873 29.3258 77.6935 29.3962 77.407 29.4763C79.2483 29.9566 79.5049 32.2744 77.4813 32.8419C76.4785 33.1222 75.4791 33.382 74.4832 33.6877C74.4671 33.3889 74.3928 33.1466 74.2575 32.8818C75.2021 32.6744 76.1413 32.4162 77.0732 32.155C78.8666 31.652 78.4839 29.6467 76.9085 29.7109C75.9546 29.7491 74.515 30.2661 73.6148 30.5915C73.5899 30.2854 73.5264 30.0386 73.3837 29.7676ZM72.8021 27.1688C71.612 26.7822 70.5414 24.9892 72.0414 24.2684C73.7263 23.4596 73.9295 25.7476 74.9637 26.1703C75.7328 25.8007 76.3223 25.3977 75.8745 24.4641C75.5635 23.8183 74.6922 23.6849 74.6099 23.5131L75.1078 23.2966C75.6585 23.5487 76.0826 23.9944 76.3445 24.5386C77.672 27.3019 72.4602 26.9991 73.1866 28.5032L73.0236 28.625C72.5757 28.1559 72.1181 27.6437 72.8021 27.1688ZM74.5661 26.3385C74.1342 25.7261 73.446 24.5279 72.5276 24.969C71.1932 25.6104 72.4701 27.3421 73.4183 26.8902L74.5661 26.3385ZM68.4589 20.2074C68.8208 20.1153 69.1679 19.9879 69.4969 19.8108C68.4524 21.2487 69.7785 23.3885 71.4452 22.32C73.015 21.314 70.6634 18.9791 72.5371 17.7785C74.2525 16.6785 75.7242 18.4362 75.8973 20.0494C75.6202 20.09 75.3421 20.1512 75.0762 20.2362C76.1146 17.7942 72.2955 17.0779 72.7439 19.8151C72.9295 20.9471 73.2764 22.0751 72.1215 22.8159C70.2892 23.9905 68.3042 22.0925 68.4589 20.2074ZM44.2278 16.4139C43.1808 16.5603 42.0332 16.4377 41.2731 17.1147C40.5817 17.7309 40.0725 18.8131 39.3287 19.4446C38.371 20.2573 37.4969 20.1608 36.8188 21.4544C36.2761 22.4901 36.5553 23.8524 37.6303 24.6166C37.3693 23.8501 37.5422 22.4388 38.4713 21.8735C38.3695 22.5062 38.5358 23.6007 38.932 24.12C38.8637 22.8713 39.7529 21.122 41.1681 20.3668C40.9812 20.829 40.2078 22.2364 40.9638 24.0522C41.1939 23.0513 41.8876 22.308 42.8524 21.9912C42.4984 22.5829 42.1258 23.9897 42.5304 24.8071C43.7149 24.3664 43.4626 23.4246 44.1542 22.3191C44.9684 21.0178 44.3784 20.4229 44.2731 19.2358C43.8479 19.7888 43.9931 20.7504 42.7817 21.0605C42.2095 21.207 41.9567 20.6898 42.2379 20.2476C43.3092 18.564 42.5946 18.0053 44.2278 16.4139ZM33.801 16.4139C32.7546 16.5603 31.6066 16.4377 30.8471 17.1147C30.1553 17.7309 29.6461 18.8131 28.9023 19.4446C27.9446 20.2573 27.0705 20.1608 26.3924 21.4544C25.8499 22.4901 26.1291 23.8524 27.2036 24.6166C26.9429 23.8501 27.1162 22.4388 28.0449 21.8735C27.9427 22.5062 28.1096 23.6007 28.5058 24.12C28.4373 22.8713 29.3267 21.122 30.7419 20.3668C30.555 20.829 29.7812 22.2364 30.5374 24.0522C30.7675 23.0513 31.4612 22.308 32.426 21.9912C32.072 22.5829 31.6998 23.9897 32.1044 24.8071C33.2887 24.3664 33.0359 23.4246 33.7275 22.3191C34.5418 21.0178 33.952 20.4229 33.8467 19.2358C33.4217 19.7888 33.5667 20.7504 32.3553 21.0605C31.7831 21.207 31.5303 20.6898 31.8115 20.2476C32.8828 18.564 32.1684 18.0053 33.801 16.4139ZM54.6744 16.4139C53.6276 16.5603 52.4798 16.4377 51.7199 17.1147C51.0288 17.7306 50.5189 18.8131 49.7751 19.4446C48.8176 20.2573 47.9435 20.1608 47.2654 21.4544C46.7229 22.4901 47.0021 23.8524 48.0769 24.6166C47.8159 23.8501 47.9892 22.4388 48.9179 21.8735C48.8161 22.5062 48.9828 23.6007 49.3788 24.12C49.3105 22.8713 50.1999 21.122 51.6149 20.3668C51.4278 20.829 50.6542 22.2364 51.4106 24.0522C51.6407 23.0513 52.3344 22.308 53.2992 21.9912C52.945 22.5829 52.5728 23.9897 52.9775 24.8071C54.1617 24.3664 53.9094 23.4246 54.6007 22.3191C55.4148 21.018 54.8252 20.4229 54.7199 19.2358C54.2947 19.7888 54.4395 20.7504 53.2285 21.0605C52.6561 21.2068 52.4036 20.6896 52.6847 20.2476C53.7556 18.564 53.0415 18.0053 54.6744 16.4139ZM41.5141 64.2192C41.5008 64.524 41.4913 64.7804 41.4789 65.085C41.463 65.4638 41.4832 65.5289 41.8537 65.557C41.8519 65.5966 41.8466 65.6457 41.8455 65.6842C41.1301 65.6423 40.4823 65.6412 39.7278 65.6442C39.7276 65.6056 39.7267 65.5671 39.7261 65.5281C39.9097 65.5117 40.0517 65.4387 39.9986 65.2471C39.9454 65.054 39.8163 64.7345 39.7559 64.5714C39.4101 64.5843 39.0826 64.5991 38.7377 64.6172C38.6865 64.7647 38.5618 65.1 38.5055 65.2985C38.4468 65.5057 38.624 65.5558 38.8002 65.5598L38.8012 65.676C38.5302 65.6906 38.214 65.7072 37.9142 65.7323L37.9129 65.6187C38.1182 65.5624 38.1683 65.5175 38.2437 65.3298C38.5304 64.6161 39.1298 62.873 39.2888 62.3556C39.3191 62.3541 39.3496 62.3526 39.3807 62.3513C39.5244 62.7332 40.1848 64.5618 40.4522 65.2027C40.5268 65.3814 40.597 65.4978 40.812 65.5034C41.0261 65.5091 41.0512 65.2912 41.0622 65.0635C41.0955 64.3719 41.1168 63.658 41.1447 62.9664C41.1604 62.5796 41.1436 62.5152 40.7699 62.4937C40.7714 62.4546 40.7727 62.4153 40.7742 62.376C41.1157 62.3925 41.4563 62.3921 41.7972 62.4159C42.1868 62.4432 42.516 62.5439 42.7295 62.8955C42.9404 63.242 42.8955 63.7875 42.6011 64.0734C42.3098 64.3562 41.865 64.3292 41.5141 64.2192ZM39.6861 64.3685C39.5353 63.9632 39.3835 63.5577 39.231 63.1526C39.0841 63.5712 38.955 63.9885 38.8087 64.4073C39.1073 64.3921 39.3878 64.3799 39.6861 64.3685ZM51.9169 67.1374L51.93 67.0059C52.2695 67.0233 52.3112 66.9202 52.3544 66.5738C52.4444 65.8549 52.5137 65.2254 52.613 64.5081C52.666 64.1241 52.5685 64.0923 52.2799 64.0712L52.2912 63.9159C52.7665 63.9411 53.154 63.9316 53.5395 63.9151L53.5213 64.0712C53.1944 64.0942 53.104 64.1659 53.0442 64.5506C52.9336 65.2652 52.8583 65.8925 52.7588 66.609C52.7195 66.8925 52.7154 67.0766 53.0159 67.077C53.2513 67.0774 53.3608 67.0096 53.4895 66.6372C53.8013 65.7349 54.1248 64.7229 54.4476 63.8283C55.1171 63.737 55.5636 63.615 56.0473 63.4653C56.0617 63.693 56.0595 63.7778 56.0735 64.0018L55.976 64.0521C55.9427 63.8105 55.8666 63.7072 55.6076 63.7896C55.4223 63.8487 55.1373 63.9198 54.9541 63.9565C54.9742 64.3588 55.0041 64.7918 55.0215 65.1943C55.1648 65.1535 55.3082 65.1114 55.4519 65.0624C55.7258 64.9694 55.7494 64.8448 55.7509 64.5736C55.7822 64.5618 55.8142 64.5502 55.846 64.5379C55.8544 64.8953 55.8613 65.1567 55.8679 65.5141C55.837 65.5285 55.8065 65.5407 55.7762 65.5532C55.749 65.3201 55.7515 65.1601 55.4616 65.2598C55.3179 65.3092 55.1733 65.3537 55.0303 65.3955C55.0432 65.7211 55.0541 66.0467 55.066 66.3698C55.0713 66.5169 55.0346 66.708 55.2219 66.6378C55.3321 66.5963 55.4856 66.5371 55.596 66.4892C55.8164 66.393 55.9723 66.1988 56.0937 65.7959C56.1274 65.778 56.1605 65.7609 56.1944 65.7428C56.133 66.033 56.1128 66.1591 56.0535 66.4486C55.5954 66.76 54.988 66.9821 54.4974 67.0759L54.4955 66.9548C54.7945 66.8668 54.764 66.7205 54.7517 66.4295C54.7386 66.1146 54.7225 65.7987 54.7075 65.481C54.5024 65.5315 54.2992 65.5787 54.0962 65.6234C53.9665 65.9825 53.8439 66.3491 53.7159 66.7033C53.6053 67.01 53.6559 67.1069 53.9876 67.0353L53.9959 67.155C53.2352 67.2347 52.5324 67.1949 51.9169 67.1374ZM54.6334 64.0545C54.4719 64.4789 54.3196 64.958 54.1867 65.3919C54.3561 65.356 54.5266 65.3197 54.6978 65.2796C54.6824 64.9885 54.6463 64.3408 54.6334 64.0545ZM52.1175 63.9039C52.0977 64.1784 52.0677 64.4359 52.0481 64.7106C52.0135 64.7102 51.9783 64.7098 51.9431 64.7074C51.9476 64.3925 51.9197 64.1161 51.546 64.0762C51.4261 64.0635 51.2908 64.0474 51.1679 64.0373C51.0715 64.8771 50.9931 65.6095 50.8958 66.4482C50.8535 66.815 50.8849 66.9097 51.2304 66.9439C51.2255 66.9845 51.2206 67.0238 51.2161 67.0631C50.8219 67.0205 50.384 66.9484 50.017 66.8902C50.0219 66.8509 50.0268 66.8111 50.0318 66.7716C50.3582 66.821 50.4289 66.7778 50.4755 66.3876C50.5749 65.5547 50.6566 64.8199 50.7551 63.9864C50.6514 63.9741 50.5466 63.9602 50.4435 63.9479C50.0545 63.9015 49.9259 64.08 49.852 64.4619C49.8172 64.4576 49.782 64.4527 49.7468 64.4482C49.7906 64.184 49.8301 63.9056 49.8739 63.6404C50.5788 63.7538 51.3634 63.8661 52.1175 63.9039ZM46.9905 63.1062C47.2259 63.1511 47.4609 63.196 47.6946 63.2405C48.0977 64.1127 48.5204 64.8947 48.9355 65.7609C49.006 65.1672 49.0633 64.6801 49.1321 64.0867C49.1729 63.7351 49.1349 63.6374 48.8286 63.583C48.8337 63.542 48.8382 63.501 48.8428 63.4587C49.1364 63.5126 49.4328 63.571 49.7478 63.6195C49.7429 63.6616 49.7386 63.7037 49.7337 63.7452C49.4235 63.6954 49.3737 63.7454 49.3335 64.0942C49.2298 64.9982 49.1342 65.8143 49.027 66.7188C48.995 66.7136 48.9624 66.7087 48.9304 66.704C48.4806 65.7716 48.0249 64.9273 47.5869 63.9898C47.5075 64.6238 47.4246 65.2078 47.3565 65.8429C47.3176 66.202 47.3565 66.2598 47.6535 66.3294L47.6303 66.4595C47.3294 66.3988 47.015 66.3513 46.7094 66.2907C46.7162 66.2503 46.7304 66.2024 46.7377 66.161C47.03 66.2089 47.1177 66.1518 47.1546 65.8064C47.2341 65.0676 47.3339 64.3811 47.4265 63.6432C47.3165 63.4149 47.2388 63.2776 46.9738 63.2289C46.9798 63.1878 46.9847 63.1477 46.9905 63.1062ZM45.361 63.0407C45.3152 63.449 45.2699 63.8571 45.2248 64.2656C45.4198 64.2985 45.6149 64.3315 45.8088 64.3685C46.1451 64.4325 46.2203 64.344 46.2742 64.016C46.3082 64.024 46.343 64.0306 46.3775 64.0384C46.3331 64.417 46.2978 64.7347 46.2547 65.1131C46.2203 65.1062 46.1866 65.0987 46.1518 65.091C46.1529 64.8051 46.1252 64.6369 45.7903 64.5693C45.5953 64.5302 45.3984 64.4991 45.2023 64.466C45.1619 64.836 45.1245 65.0753 45.0863 65.4449C45.0631 65.6681 45.0199 65.7811 45.2648 65.8234C45.4164 65.8496 45.6054 65.8818 45.7579 65.9046C46.1993 65.9707 46.3127 65.8397 46.5616 65.4471C46.5977 65.4559 46.6338 65.466 46.6703 65.4756C46.5569 65.7297 46.46 65.9741 46.3481 66.2282C45.5622 66.086 44.9297 66.0003 44.2325 65.9052C44.2368 65.8672 44.2409 65.8101 44.2448 65.7712C44.5983 65.7989 44.6426 65.7617 44.6812 65.4C44.7575 64.6859 44.8253 64.0523 44.9022 63.3382C44.943 62.9583 44.9003 62.8878 44.5577 62.8307C44.562 62.792 44.5695 62.7364 44.5738 62.6971C45.3002 62.803 45.9972 62.9254 46.7244 63.0568C46.7059 63.3025 46.6787 63.4847 46.661 63.7297C46.625 63.7218 46.5889 63.7136 46.553 63.7044C46.5446 63.356 46.4811 63.2403 46.1103 63.1657C45.8661 63.1165 45.6155 63.0779 45.361 63.0407ZM43.9054 65.7319L43.8936 65.8633C43.4671 65.8122 43.1264 65.7774 42.669 65.7407L42.6829 65.6037C43.0609 65.6075 43.079 65.5678 43.1133 65.1784C43.1752 64.4827 43.2385 63.8126 43.3045 63.1172C43.3397 62.7411 43.3339 62.6531 42.9396 62.6269C42.9434 62.583 42.9467 62.547 42.9507 62.5021C43.3799 62.5291 43.8075 62.6077 44.222 62.6481C44.2179 62.6928 44.213 62.7372 44.2087 62.7815C43.8608 62.7377 43.7914 62.7821 43.7527 63.1672C43.6834 63.8637 43.6176 64.5268 43.5526 65.2235C43.516 65.6133 43.5362 65.6818 43.9054 65.7319ZM37.8936 62.4696C37.9007 62.8393 37.9069 63.1189 37.9148 63.4885C37.879 63.4928 37.8437 63.4963 37.8087 63.5003C37.7535 63.1292 37.5965 62.8055 37.2344 62.7478C37.0237 62.7143 36.8105 62.7712 36.6685 62.9368C36.408 63.2413 36.5448 63.5066 36.8435 63.6866C37.1449 63.8678 37.5347 63.9793 37.8115 64.1825C38.3034 64.5437 38.1483 65.3 37.7041 65.6492C37.3962 65.8912 37.0991 65.8528 36.7278 65.7703C36.4949 65.7188 36.3897 65.6311 36.3586 65.8912L36.2488 65.9052C36.2409 65.5384 36.2389 65.2843 36.2314 64.9179L36.3375 64.8942C36.397 65.2136 36.4599 65.399 36.7714 65.547C37.0254 65.6681 37.3601 65.6694 37.5482 65.4527C37.7757 65.1913 37.7619 64.8098 37.4876 64.62C37.1876 64.4123 36.8008 64.318 36.5022 64.0974C36.0909 63.7929 36.0744 63.237 36.4028 62.8569C36.612 62.6148 36.9271 62.5008 37.2428 62.5334C37.5186 62.562 37.7252 62.83 37.7877 62.4808C37.8231 62.4772 37.8581 62.4731 37.8936 62.4696ZM41.5214 64.0523C41.769 64.1228 41.9907 64.1404 42.1937 63.9159C42.3885 63.7007 42.408 63.298 42.3111 63.0339C42.23 62.8109 42.0708 62.6591 41.8281 62.6419C41.7602 62.6372 41.6861 62.6419 41.5766 62.6642C41.5577 63.1019 41.5384 63.6146 41.5214 64.0523ZM28.3233 67.1569C28.3207 67.1159 28.3201 67.0768 28.3228 67.0323C28.6933 67.0132 28.6923 66.8953 28.6704 66.5418C28.627 65.8511 28.5752 65.1945 28.5333 64.5034C28.5106 64.1339 28.4897 64.0414 28.128 64.062C28.1259 64.0205 28.1225 63.9632 28.1201 63.9209C28.4938 63.9003 28.8521 63.8927 29.2208 63.8339C29.807 63.7405 30.2864 63.7978 30.6375 64.3653C30.996 64.9454 31.0129 65.7669 30.6689 66.362C30.4247 66.7854 30.0157 66.9701 29.5428 67.0278C29.1362 67.0774 28.7326 67.132 28.3233 67.1569ZM29.11 66.8103C29.279 66.8356 29.4088 66.838 29.5207 66.8242C29.8465 66.7843 30.072 66.614 30.2348 66.3373C30.5078 65.8734 30.4805 65.263 30.2995 64.7735C30.1315 64.3191 29.8018 63.9615 29.3035 64.0422C29.188 64.0607 29.0643 64.0783 28.9193 64.1438C28.9799 65.0454 29.0469 65.9086 29.11 66.8103ZM31.5316 63.7175C31.5501 64.1412 31.5686 64.4883 31.5875 64.9116C31.7829 64.882 31.9786 64.8489 32.1736 64.8139C32.496 64.7559 32.5761 64.6189 32.5748 64.3259C32.6094 64.3186 32.6442 64.3103 32.6785 64.3025C32.6942 64.6917 32.705 64.9421 32.7206 65.3311C32.6865 65.3382 32.6528 65.3461 32.6188 65.3537C32.5727 65.0701 32.4732 64.9705 32.1826 65.0212C31.9874 65.0555 31.7917 65.0906 31.5967 65.1198C31.6132 65.4767 31.6276 65.766 31.6425 66.1228C31.651 66.3322 31.6206 66.4827 31.8693 66.4406C32.0222 66.4149 32.1773 66.3839 32.3295 66.3506C32.8308 66.2415 32.9554 65.9303 33.0879 65.5104L33.199 65.4765C33.1483 65.7914 33.0572 66.1339 32.987 66.4372C32.3115 66.5603 31.6532 66.6973 30.8574 66.8242C30.8555 66.7838 30.8534 66.7437 30.8521 66.7033C31.226 66.653 31.2421 66.5242 31.2262 66.1709C31.1936 65.4561 31.1577 64.8599 31.1255 64.1455C31.1092 63.7832 31.0391 63.7224 30.7133 63.7465C30.7114 63.7055 30.7095 63.6647 30.708 63.6241C31.4348 63.5068 32.0566 63.3803 32.8472 63.233C32.8712 63.484 32.8974 63.6988 32.9202 63.9421C32.8849 63.9516 32.8497 63.9602 32.8151 63.9681C32.7299 63.5725 32.6708 63.487 32.2666 63.5729C32.0252 63.6241 31.8229 63.6621 31.5316 63.7175ZM34.8109 62.8599C34.8298 63.237 34.8472 63.5341 34.8669 63.911C34.8336 63.9187 34.7997 63.9269 34.7662 63.9351C34.714 63.641 34.6092 63.3455 34.3038 63.233C33.7997 63.0474 33.2234 63.6092 33.5755 64.0012C33.8074 64.2592 34.4754 64.5173 34.7907 64.7235C35.2366 65.0156 35.2467 65.4722 34.9599 65.8719C34.6818 66.2587 34.1683 66.3098 33.8006 66.207C33.5714 66.1425 33.4389 66.0798 33.4219 66.3513L33.3173 66.3736C33.2993 66.0029 33.3149 65.8234 33.2984 65.4527L33.4073 65.4213C33.4698 65.7237 33.5048 65.8734 33.8152 65.9984C34.0858 66.1071 34.4984 66.0654 34.6749 65.8274C34.8734 65.5598 34.7374 65.3571 34.4569 65.1769C34.0922 64.9421 33.4646 64.7512 33.2331 64.3335C32.8229 63.5929 33.644 62.809 34.4036 63.0089C34.6062 63.0622 34.6844 63.097 34.7108 62.8861C34.7439 62.8773 34.7771 62.8691 34.8109 62.8599ZM25.5977 63.7677C25.6033 64.0901 25.61 64.3201 25.6431 64.6902L25.5359 64.6629C25.4163 64.1829 25.0256 63.7259 24.5196 63.6651C24.0879 63.6127 24.0273 64.1161 24.3705 64.3949C24.7687 64.7186 25.6315 65.1704 25.892 65.658C26.2968 66.4164 25.7625 67.1827 25.11 66.8268C24.919 66.7231 24.7077 66.5422 24.5505 66.3912C24.4358 66.2815 24.3847 66.3064 24.4532 66.4608L24.3495 66.3895C24.2429 66.1307 24.1171 65.7044 24.0541 65.388L24.1746 65.4477C24.3823 65.9574 24.7058 66.3921 25.1278 66.6601C25.4861 66.8878 25.7797 66.5534 25.5724 66.1071C25.3439 65.6155 24.6102 65.2873 24.1667 64.8139C23.7247 64.3429 23.7309 63.5601 24.3348 63.4759C24.6778 63.428 25.008 63.6079 25.2749 63.7978C25.4251 63.9046 25.4822 63.9402 25.4884 63.7428L25.5977 63.7677ZM26.6076 64.0931C26.634 64.5038 26.6828 64.998 26.709 65.4084C26.8972 65.4316 27.0851 65.4507 27.2732 65.4559C27.6132 65.4658 27.6478 65.3281 27.642 65.0149C27.6779 65.0141 27.7137 65.0128 27.7494 65.0122C27.7741 65.3955 27.7969 65.7581 27.8211 66.1415C27.7855 66.1427 27.75 66.144 27.7144 66.1447C27.6585 65.8358 27.6394 65.6788 27.2842 65.6668C27.0973 65.6606 26.9098 65.643 26.723 65.62C26.7451 65.9656 26.7657 66.2944 26.7885 66.6395C26.8024 66.8489 26.8374 66.9853 27.0206 66.998C27.1794 67.0087 27.3239 67.0055 27.4721 67.0109C27.8847 67.027 28.0413 66.8126 28.1697 66.3951L28.2788 66.4088C28.2189 66.7531 28.1865 66.8973 28.1068 67.1717C27.313 67.2192 26.6587 67.2132 26.041 67.0873C26.0385 67.045 26.0359 67.0029 26.0331 66.9606C26.3484 67.021 26.4032 66.9497 26.3819 66.6198C26.3372 65.9232 26.2608 65.0787 26.2187 64.3822C26.2006 64.0863 26.127 63.9969 25.8151 63.9224C25.8125 63.8799 25.8099 63.8373 25.8078 63.7942C26.5638 63.9187 27.0819 63.9383 27.8813 63.9254C27.9075 64.1709 27.9328 64.417 27.9586 64.6623C27.9214 64.6634 27.8838 64.6653 27.8467 64.667C27.7582 64.2832 27.66 64.1395 27.3087 64.1316C27.0709 64.1262 26.8514 64.1176 26.6076 64.0931ZM33.2316 41.7482C32.9258 42.0332 32.673 42.2841 33.0119 42.6804C33.0563 42.6331 33.2481 42.419 33.6678 42.0272L36.0641 39.7931C36.4842 39.4012 36.711 39.2255 36.7613 39.184C36.3897 38.8185 36.1219 39.0528 35.8158 39.3382L33.2316 41.7482ZM35.3828 44.0545C35.0768 44.3399 34.8087 44.5743 34.4372 44.2087C34.4874 44.1677 34.7142 43.9916 35.1343 43.5998L37.5304 41.3653C37.9505 40.9735 38.1419 40.7598 38.1865 40.7121C38.5252 41.1086 38.2729 41.3597 37.9668 41.6449L35.3828 44.0545ZM43.3571 53.0869L46.4211 50.2302L46.1179 48.8831L42.0347 52.6907L43.3571 53.0869ZM49.5659 53.2012C49.8731 53.1675 50.2972 52.8629 50.4338 52.4293C50.8043 51.3416 49.0474 49.2424 50.4828 48.4282C50.081 48.2671 49.7027 48.3352 49.4437 48.5614C48.7025 49.2072 48.9852 52.5334 46.6078 50.4409L45.899 51.102C46.8419 52.1043 48.77 52.1535 49.5659 53.2012ZM46.1018 56.4314C46.0466 56.7355 45.7137 57.1374 45.2712 57.2437C44.1606 57.5371 42.1887 55.638 41.2765 57.0132C41.1436 56.6009 41.2379 56.2287 41.4819 55.986C42.1778 55.2914 45.4763 55.8056 43.5543 53.2884L44.2635 52.6271C45.1973 53.6374 45.1121 55.5641 46.1018 56.4314ZM57.281 52.8865C55.6386 52.7151 53.9826 53.1266 52.5178 53.8696L52.4719 54.4209C52.4424 54.7768 52.3799 55.1153 52.2887 55.4372C52.7728 55.676 53.4663 55.9009 54.212 56.1423C54.5586 56.2549 54.9163 56.3708 55.2728 56.4941C55.648 55.2209 56.305 53.8777 57.281 52.8865ZM28.4693 54.3829L26.5965 31.9628H53.8855L52.0129 54.3829C51.3091 62.8135 29.1732 62.8141 28.4693 54.3829ZM23.2002 52.8865C24.8432 52.7151 26.4987 53.1266 27.9635 53.8696L28.0095 54.4209C28.0391 54.7768 28.1016 55.1153 28.1925 55.4372C27.7084 55.676 27.0151 55.9009 26.2694 56.1423C25.9223 56.2549 25.5649 56.3708 25.2086 56.4941C24.8333 55.2209 24.1763 53.8777 23.2002 52.8865ZM21.7994 60.984C27.6869 64.7735 32.1231 61.1528 40.2409 61.1528C48.3578 61.1528 52.794 64.7735 58.682 60.984C58.4116 62.4911 58.1268 63.7458 57.5028 65.1466C56.4822 67.437 55.0546 68.4119 52.6284 68.3579C49.1091 68.2787 45.4261 66.8008 40.2409 66.8008C35.0553 66.8008 31.3721 68.2787 27.8529 68.3579C25.4268 68.4119 23.9991 67.437 22.9785 65.1466C22.3546 63.7458 22.07 62.4911 21.7994 60.984ZM52.1282 26.9128C52.3728 26.9128 53.7318 26.9295 54.1688 27.0562C54.497 27.1516 54.4899 27.3773 54.497 27.5339C54.5088 27.7968 54.5017 27.7667 54.4925 28.0191C54.4824 28.3002 54.3389 28.3934 53.9714 28.4559C53.5378 28.5296 52.6345 28.5464 52.1405 28.5464H49.2418C48.7476 28.5464 47.8447 28.5296 47.4108 28.4559C47.0431 28.3934 46.8992 28.3002 46.8896 28.0191C46.8803 27.7667 46.8735 27.7968 46.8855 27.5339C46.8924 27.3773 46.8851 27.1516 47.2135 27.0562C47.6505 26.9295 49.0088 26.9128 49.2538 26.9128H52.1282ZM53.1781 29.4035C53.2165 29.4035 53.2382 29.3814 53.2382 29.3451V28.9813C51.543 29.0242 49.8389 29.0242 48.1439 28.9813V29.3451C48.1439 29.381 48.1656 29.4035 48.204 29.4035H53.1781ZM49.0541 29.8649L49.0066 31.5015H49.2803L49.3245 30.1125H49.8969L49.841 31.5015H50.308L50.3746 30.1125H50.9465L50.8688 31.5015H51.3389L51.4244 30.1125H51.9968L51.8999 31.5015H52.2891L52.4055 29.8649H49.0541ZM27.3267 26.0975C27.2891 26.0975 27.267 26.1198 27.267 26.1559V26.5197C28.9618 26.4766 30.6661 26.4766 32.3609 26.5197V26.1559C32.3609 26.1198 32.3392 26.0975 32.301 26.0975H27.3267ZM28.377 26.934C28.1326 26.934 26.7734 26.9501 26.3364 27.0769C26.0078 27.172 26.0155 27.3986 26.0082 27.5547C25.9964 27.818 26.0032 27.7871 26.0125 28.0399C26.0226 28.3213 26.166 28.4141 26.5335 28.4766C26.9676 28.5504 27.8701 28.5674 28.3647 28.5674H31.2629C31.7578 28.5674 32.6603 28.5504 33.0941 28.4766C33.4618 28.4141 33.6055 28.3213 33.6156 28.0399C33.6251 27.7873 33.6317 27.8178 33.6197 27.5547C33.6126 27.3984 33.6199 27.172 33.2917 27.0769C32.8547 26.9501 31.496 26.934 31.2513 26.934H28.377ZM27.3267 29.4035C27.2891 29.4035 27.267 29.3814 27.267 29.3451V28.9813C28.9618 29.0242 30.6661 29.0242 32.3609 28.9813V29.3451C32.3609 29.3814 32.3392 29.4035 32.301 29.4035H27.3267ZM31.4509 29.8649L31.4986 31.5015H31.2015L31.1573 30.1125H30.5849L30.6407 31.5015H30.1736L30.1072 30.1125H29.5351L29.6124 31.5015H29.1429L29.057 30.1125H28.4846L28.5817 31.5015H28.2157L28.0995 29.8649H31.4509ZM29.1532 69.7111C29.6856 69.7992 30.0046 69.4928 30.5621 70.037L31.1309 70.5921L31.2975 70.4874L30.9906 69.8593C30.767 69.4009 31.3766 68.8927 31.7262 68.7538C32.0946 68.8298 32.7829 69.2241 32.6423 69.715L32.449 70.3866L32.6315 70.4607L33.095 69.8151C33.5495 69.182 33.917 69.4288 34.426 69.2499C34.6088 70.0495 33.0735 69.787 33.4202 71.1086C33.4958 71.3982 33.333 71.4949 33.0939 71.545C32.8845 70.4064 30.8718 70.5836 30.8632 71.74C30.6195 71.7326 30.4425 71.6652 30.4663 71.3671C30.5784 70.005 29.1122 70.5304 29.1532 69.7111ZM31.1429 71.8143C31.063 70.9017 32.752 70.7539 32.8315 71.6665C32.9114 72.5784 31.2226 72.726 31.1429 71.8143ZM32.5634 68.1848L32.5838 68.8945C32.3368 68.6696 32.031 68.5343 31.7007 68.4668C31.3796 68.5944 31.0995 68.7851 30.8916 69.06L30.8516 68.4991C31.4099 68.4052 31.9786 68.2972 32.5634 68.1848ZM30.7045 61.9411L30.3882 61.9928L30.1231 58.2714C30.2348 58.3646 30.3497 58.4548 30.4678 58.542L30.7045 61.9411ZM31.3065 61.8358L31.0179 61.8872L30.8265 58.794C30.9318 58.864 31.0389 58.9318 31.1478 58.9982L31.3061 61.8358H31.3065ZM31.8534 61.734L31.6188 61.7783L31.496 59.2001C31.5821 59.248 31.6691 59.2946 31.7572 59.3403L31.8534 61.734ZM32.3145 59.611L32.3731 61.6354L32.1659 61.675L32.0967 59.5092C32.1689 59.5435 32.2413 59.5777 32.3145 59.611ZM48.204 26.0975C48.1664 26.0975 48.1439 26.12 48.1439 26.1559V26.5197C49.8389 26.4766 51.543 26.4766 53.2382 26.5197V26.1559C53.2382 26.1198 53.2161 26.0975 53.1781 26.0975H48.204ZM40.242 67.664C40.6021 67.7727 41.2546 68.225 41.0719 68.7012L40.8212 69.3532L40.9958 69.4432L41.5141 68.8403C42.0218 68.2497 42.3665 68.527 42.8895 68.3932C43.0016 69.2059 41.4952 68.81 41.7254 70.1571C41.7751 70.4521 41.6054 70.5346 41.3629 70.5631C41.2538 69.4123 39.2301 69.4123 39.121 70.5631C38.8783 70.5346 38.7087 70.4521 38.7583 70.1571C38.9885 68.81 37.4823 69.2059 37.594 68.3932C38.1172 68.527 38.4621 68.2497 38.9698 68.8403L39.4877 69.4432L39.6625 69.3532L39.4121 68.7012C39.2293 68.2248 39.8818 67.7727 40.242 67.664ZM41.0906 70.6618C41.0906 71.577 39.3932 71.577 39.3932 70.6618C39.3932 69.7452 41.0906 69.7452 41.0906 70.6618ZM51.3301 69.7111C50.7977 69.7992 50.4781 69.4928 49.9207 70.037L49.3522 70.5921L49.1855 70.4874L49.4922 69.8593C49.7158 69.4009 49.1067 68.8927 48.7571 68.7538C48.3885 68.8298 47.6999 69.2241 47.8408 69.715L48.0341 70.3866L47.8516 70.4607L47.3881 69.8151C46.9338 69.1825 46.5659 69.4288 46.0569 69.2499C45.8745 70.0495 47.4093 69.787 47.0627 71.1086C46.9875 71.3982 47.1501 71.4949 47.3894 71.545C47.5983 70.4064 49.6115 70.5836 49.6196 71.74C49.8634 71.7326 50.0406 71.6652 50.0167 71.3671C49.9046 70.005 51.3709 70.5304 51.3301 69.7111ZM49.34 71.8143C49.4201 70.9017 47.7311 70.7539 47.6516 71.6665C47.5717 72.5784 49.2607 72.726 49.34 71.8143ZM47.9196 68.1848L47.899 68.8945C48.146 68.6696 48.4521 68.5343 48.7824 68.4668C49.1035 68.5944 49.3838 68.7851 49.5915 69.06L49.6316 68.4991C49.073 68.4052 48.5045 68.2972 47.9196 68.1848ZM49.7783 61.9411L50.0949 61.9928L50.36 58.2714C50.2485 58.3646 50.1334 58.4548 50.0154 58.542L49.7783 61.9411ZM49.177 61.8358L49.465 61.8872L49.6563 58.794C49.5513 58.864 49.4441 58.9318 49.3352 58.9982L49.177 61.8358ZM48.6295 61.734L48.864 61.7783L48.9871 59.2001C48.9007 59.248 48.8138 59.2946 48.7259 59.3403L48.6295 61.734ZM48.1688 59.611L48.1099 61.6354L48.317 61.675L48.3864 59.5092C48.3144 59.5435 48.2416 59.5777 48.1688 59.611ZM41.8857 31.5015L41.9179 29.8649H38.5645L38.5968 31.5015H38.9799L38.9578 30.1125H39.5021L39.5134 31.5015H39.9606L39.9567 30.1125H40.5008L40.4937 31.5015H40.9381L40.9555 30.1125H41.4995L41.4716 31.5015H41.8857ZM42.7289 29.4035C42.7671 29.4035 42.7888 29.3814 42.7888 29.3451V28.9813C41.0906 29.0242 39.3917 29.0242 37.6936 28.9813V29.3451C37.6936 29.3814 37.7151 29.4035 37.7535 29.4035H42.7289ZM41.6909 28.5674C42.1857 28.5674 43.0882 28.5504 43.5223 28.4766C43.8898 28.4141 44.0334 28.3213 44.0438 28.0399C44.053 27.7873 44.0594 27.8178 44.0476 27.5547C44.0405 27.3984 44.0478 27.172 43.7194 27.0769C43.2826 26.9501 41.9235 26.934 41.6793 26.934H38.8029C38.5587 26.934 37.1996 26.9501 36.7626 27.0769C36.4344 27.172 36.4419 27.3984 36.4346 27.5547C36.423 27.8178 36.4296 27.7873 36.4387 28.0399C36.449 28.3213 36.5927 28.4141 36.9599 28.4766C37.394 28.5504 38.2967 28.5674 38.7913 28.5674H41.6909ZM42.7888 26.5197V26.1559C42.7888 26.1198 42.7669 26.0975 42.7289 26.0975H37.7535C37.7153 26.0975 37.6936 26.1198 37.6936 26.1559V26.5197C39.3917 26.4766 41.0906 26.4766 42.7888 26.5197ZM39.3474 67.2796L39.3597 67.9217C39.5946 67.6503 39.9018 67.4795 40.242 67.3756C40.5817 67.4795 40.8893 67.6503 41.1238 67.9217L41.1365 67.2796C40.5403 67.2587 39.9436 67.2587 39.3474 67.2796ZM36.4881 55.1316C34.7277 52.5785 28.5346 52.9364 29.456 48.9944C30.1996 45.8191 35.4219 46.0564 38.0544 46.8161L41.0605 49.5824C39.7387 48.6919 38.0066 48.0169 36.5791 47.9046C35.3332 47.8062 34.1146 48.1011 33.3697 49.1707C32.3156 50.6879 33.1021 51.4271 34.382 52.3262C35.2967 52.9692 36.3409 53.7035 36.4881 55.1316ZM41.3444 50.9346C40.062 50.1363 37.2299 48.5296 35.9193 49.9319C34.3016 51.6632 37.2548 52.6567 36.6691 55.0474C36.4909 53.5775 35.4256 52.8285 34.4911 52.1715C33.3218 51.3502 32.5542 50.6763 33.5246 49.2796C34.2288 48.2678 35.389 48.001 36.5643 48.0934C38.3195 48.2315 40.5579 49.2469 41.8635 50.4505L41.3474 50.9316L41.3444 50.9346ZM42.1391 50.1932L35.633 44.2059L38.1002 41.9054L43.6193 48.8133L42.1391 50.1932ZM48.9396 43.5201C46.5158 41.5856 47.3043 35.4332 43.3081 36.0771C40.0886 36.5972 39.961 41.8236 40.5351 44.5023L43.0852 47.6945C42.289 46.3137 41.7366 44.5397 41.7241 43.1071C41.7134 41.8573 42.0908 40.6612 43.2108 39.9935C44.8056 39.0429 45.4787 39.8807 46.2886 41.2235C46.8659 42.1804 47.5255 43.2734 48.9396 43.5201ZM44.4138 48.0721C43.7074 46.7371 42.3023 43.7998 43.7922 42.5902C45.632 41.0972 46.4171 44.1121 48.8423 43.6952C47.3889 43.4145 46.716 42.2993 46.126 41.3215C45.3855 40.0932 44.7809 39.28 43.3088 40.1559C42.2497 40.788 41.9028 41.9265 41.9134 43.1056C41.9284 44.8653 42.786 47.1703 43.8949 48.556L44.4112 48.0745L44.4138 48.0721ZM41.5394 51.1376L44.6033 48.2804L45.9259 48.6771L41.8423 52.4847L41.5394 51.1376ZM44.4686 52.4359C45.425 53.469 45.3853 55.2862 46.2025 56.1417C46.9306 56.9039 48.7884 56.8575 49.7689 56.8915C49.8037 55.911 49.9794 54.0611 49.2697 53.2813C48.4736 52.4065 46.658 52.3195 45.6939 51.2931L44.4686 52.4359ZM33.5306 33.0137C33.0499 34.4216 32.1874 34.2371 31.7589 34.8339C31.4573 35.2536 31.4251 35.9499 31.0074 36.4695C30.273 37.3833 28.5181 37.5416 28.7711 39.4321C28.9676 40.9009 30.4406 41.9194 32.2563 41.3475C31.6156 40.9965 31.4148 40.189 31.4193 39.5833C31.7269 40.0023 32.5166 40.3429 33.0162 40.3101C32.2118 39.7184 32.0714 38.7714 32.4217 37.855C32.6135 38.4095 33.3746 39.2132 33.976 39.3314C33.5701 38.7624 33.5589 38.1035 34.0753 37.2841C34.0529 37.786 34.6884 38.4074 35.1206 38.5335C34.8695 37.1628 36.4185 36.4308 35.0403 34.9439C34.8577 35.9641 33.8946 35.8885 33.6006 36.7903C33.4539 37.2424 32.7329 37.3006 32.6901 36.625C32.5692 34.7242 35.0098 34.8885 33.5306 33.0137ZM21.7551 60.4026C21.2972 57.4883 26.2455 56.8771 28.3381 55.8769C28.6257 56.6312 29.0787 57.2873 29.6517 57.8558C28.1197 58.7809 25.6551 60.1687 25.4697 62.039C24.0241 61.7388 22.8894 61.1543 21.7551 60.4026ZM58.7262 60.4026C59.1843 57.4888 54.2367 56.8771 52.1439 55.8771C51.8561 56.6312 51.4031 57.2873 50.8301 57.8558C52.3619 58.7806 54.8263 60.1687 55.0116 62.039C56.4573 61.7388 57.592 61.1543 58.7262 60.4026ZM34.9816 43.4362C34.6629 43.7338 34.3742 43.9795 34.0261 44.2332C33.6715 44.4536 33.5722 44.4851 33.3886 44.3455C33.1949 44.202 32.9318 43.92 32.8025 43.7171C32.676 43.5242 32.7144 43.4273 32.9588 43.0886C33.2359 42.7594 33.5014 42.4886 33.8203 42.1911L36.2166 39.9563C36.536 39.6589 36.8244 39.4132 37.1721 39.1595C37.5267 38.9394 37.6266 38.9078 37.81 39.0474C38.0035 39.1907 38.2664 39.4731 38.3962 39.6759C38.5224 39.8689 38.484 39.9656 38.2398 40.3043C37.9625 40.6335 37.6973 40.9046 37.3779 41.202L34.9816 43.4362ZM29.9191 62.0616L29.6577 58.3889C28.4042 59.1406 26.0498 60.4993 25.9238 62.1219C27.2395 62.3311 28.5471 62.2568 29.9191 62.0616ZM32.7685 59.8118L32.8188 61.5478C34.0626 61.3094 35.3824 61.0624 36.8212 60.896C35.4625 60.6838 34.0527 60.3358 32.7685 59.8118ZM50.5614 62.0616L50.823 58.3889C52.0767 59.1406 54.4309 60.4993 54.5569 62.1219C53.241 62.3311 51.9336 62.2568 50.5614 62.0616ZM47.7124 59.8118L47.6619 61.5478C46.4183 61.3094 45.0983 61.0624 43.6597 60.896C45.0182 60.6838 46.4282 60.3358 47.7124 59.8118ZM27.9186 53.333L26.0954 31.5015H27.7421L27.6257 29.8649H27.3147C27.0252 29.8649 26.7934 29.6361 26.7934 29.3451V28.9733C26.16 28.9177 25.5692 28.8026 25.5398 28.0272C25.5303 27.7721 25.529 27.7152 25.54 27.4613C25.576 26.6858 26.159 26.5994 26.7934 26.5386V26.1559C26.7934 25.8649 27.0254 25.6359 27.3147 25.6359H32.2896C32.5791 25.6359 32.8109 25.8659 32.8109 26.1559V26.5386C33.4455 26.5994 34.0282 26.6858 34.0647 27.4613C34.075 27.7152 34.0742 27.7721 34.0647 28.0272C34.0351 28.8026 33.4444 28.9177 32.8109 28.9733V29.3451C32.8109 29.6361 32.5793 29.8649 32.2896 29.8649H31.8995L31.9472 31.5015H38.1251L38.0929 29.8649H37.7417C37.4516 29.8649 37.2202 29.6361 37.2202 29.3451V28.9733C36.5869 28.9177 35.996 28.8026 35.9662 28.0272C35.9567 27.7721 35.9558 27.7152 35.9666 27.4613C36.0029 26.6858 36.5856 26.5994 37.2202 26.5386V26.1559C37.2202 25.8649 37.4518 25.6359 37.7417 25.6359H42.7407C43.0304 25.6359 43.262 25.8651 43.262 26.1559V26.5386C43.8966 26.5994 44.4795 26.6858 44.5158 27.4613C44.5264 27.7152 44.5255 27.7721 44.5161 28.0272C44.4864 28.8026 43.8958 28.9177 43.262 28.9733V29.3451C43.262 29.6361 43.0304 29.8649 42.7407 29.8649H42.3893L42.3571 31.5015H48.5337L48.5812 29.8649H48.1913C47.9014 29.8649 47.6699 29.6361 47.6699 29.3451V28.9733C47.0363 28.9177 46.4456 28.8026 46.416 28.0272C46.4065 27.7721 46.4057 27.7152 46.4162 27.4613C46.4525 26.6858 47.0352 26.5994 47.6699 26.5386V26.1559C47.6699 25.8657 47.9014 25.6359 48.1913 25.6359H53.1658C53.4558 25.6359 53.6871 25.8651 53.6871 26.1559V26.5386C54.3217 26.5994 54.9047 26.6858 54.9407 27.4613C54.9517 27.7152 54.9506 27.7721 54.941 28.0272C54.9115 28.8026 54.3209 28.9177 53.6871 28.9733V29.3451C53.6871 29.6361 53.4558 29.8649 53.1658 29.8649H52.855L52.7386 31.5015H54.3855L52.5621 53.333C54.4197 52.4338 56.0997 52.2033 58.1839 52.5863C56.9212 53.9531 56.2498 54.7901 55.7071 56.6492C57.3643 57.2585 59.3426 58.1988 59.2159 60.1735C59.1124 61.8382 58.6046 63.803 57.9221 65.3345C56.2679 69.0474 53.5906 69.1148 50.0975 68.5732L50.0404 69.379C50.4237 69.1741 51.1851 69.4063 51.7088 69.2205C52.0982 71.2368 50.3973 70.251 50.4858 71.3309C50.5268 71.848 50.2126 72.1553 49.7283 72.1946C49.3037 73.2297 47.4619 73.0669 47.2218 71.9761C46.7429 71.8502 46.4976 71.4901 46.6269 70.9931C46.9027 69.9412 45.2457 70.6409 45.7437 68.7059C46.1739 68.935 47.0479 68.7841 47.4405 69.178L47.4714 68.097C45.5017 67.7198 43.602 67.3998 41.5933 67.2969L41.5762 68.173C41.9628 67.9765 42.7903 68.0783 43.2141 67.8564C43.7568 69.8611 42.0143 69.0152 42.1743 70.0633C42.2486 70.5852 42.0154 70.9203 41.498 71.0089C41.1644 72.0732 39.3163 72.0732 38.9827 71.0089C38.4653 70.9203 38.2321 70.5852 38.3066 70.0633C38.4664 69.0152 36.7239 69.8611 37.2669 67.8564C37.6904 68.0783 38.5179 67.9765 38.9048 68.173L38.8876 67.2967C36.8807 67.4 34.978 67.7201 33.0091 68.097L33.0405 69.178C33.4331 68.7841 34.307 68.935 34.737 68.7059C35.2353 70.6409 33.578 69.9412 33.8538 70.9931C33.9829 71.4901 33.7378 71.8502 33.2589 71.9761C33.0188 73.0669 31.1772 73.2297 30.7522 72.1946C30.2685 72.1553 29.9539 71.848 29.9951 71.3309C30.0836 70.251 28.3826 71.2368 28.7722 69.2205C29.2958 69.4063 30.057 69.1741 30.4406 69.379L30.3832 68.5732C26.8898 69.1148 24.2129 69.0474 22.5586 65.3345C21.8761 63.803 21.3681 61.8382 21.265 60.1735C21.1385 58.1988 23.1164 57.2585 24.7736 56.6492C24.2311 54.7901 23.5595 53.9531 22.2964 52.5863C24.3812 52.2033 26.061 52.4338 27.9186 53.333Z" fill="white"/>
</svg>
